<?xml version="1.0" encoding="UTF-8"?> <svg xmlns="http://www.w3.org/2000/svg" width="1876" height="1285" viewBox="0 0 1876 1285" fill="none"> <rect width="1876" height="1284.52" fill="#6FABA3"></rect> <rect opacity="0.5" x="199.933" y="91.2659" width="2.66448" height="40.0803" rx="1.33224" transform="rotate(24.5007 199.933 91.2659)" fill="#008F72"></rect> <rect opacity="0.5" x="292.333" y="46.7268" width="2.66448" height="27.9287" rx="1.33224" transform="rotate(18.9676 292.333 46.7268)" fill="#008F72"></rect> <rect opacity="0.5" x="398.61" y="722.944" width="2.66448" height="28.9634" rx="1.33224" transform="rotate(-44.0967 398.61 722.944)" fill="#008F72"></rect> <rect opacity="0.5" x="380.209" y="145.114" width="2.66448" height="49.6391" rx="1.33224" transform="rotate(2.46233 380.209 145.114)" fill="#008F72"></rect> <rect opacity="0.5" x="436.22" y="244.014" width="2.66448" height="49.6391" rx="1.33224" transform="rotate(16.7745 436.22 244.014)" fill="#008F72"></rect> <rect opacity="0.5" x="438.878" y="350.369" width="2.66448" height="58.8522" rx="1.33224" transform="rotate(16.7745 438.878 350.369)" fill="#008F72"></rect> <rect opacity="0.5" x="315.444" y="348.172" width="2.66448" height="35.0301" rx="1.33224" transform="rotate(25.3285 315.444 348.172)" fill="#008F72"></rect> <rect opacity="0.5" x="265.873" y="498.709" width="2.66448" height="62.6798" rx="1.33224" transform="rotate(25.3285 265.873 498.709)" fill="#008F72"></rect> <rect opacity="0.5" x="394.351" y="1250.49" width="2.66448" height="33.4678" rx="1.33224" transform="rotate(-26.5117 394.351 1250.49)" fill="#008F72"></rect> <rect opacity="0.5" x="369.781" y="576.327" width="2.66448" height="62.6798" rx="1.33224" transform="rotate(25.3285 369.781 576.327)" fill="#008F72"></rect> <rect opacity="0.5" x="222.828" y="647.293" width="2.66448" height="55.573" rx="1.33224" transform="rotate(25.3285 222.828 647.293)" fill="#008F72"></rect> <rect opacity="0.5" x="294.199" y="773.55" width="2.66448" height="42.7766" rx="1.33224" transform="rotate(-27.4962 294.199 773.55)" fill="#008F72"></rect> <rect opacity="0.5" x="362.751" y="895.007" width="2.66448" height="42.7766" rx="1.33224" transform="rotate(44.053 362.751 895.007)" fill="#008F72"></rect> <rect opacity="0.5" x="411.274" y="1044.01" width="2.66448" height="42.7766" rx="1.33224" transform="rotate(44.053 411.274 1044.01)" fill="#008F72"></rect> <rect opacity="0.5" x="280.149" y="1007.68" width="2.66448" height="56.2087" rx="1.33224" transform="rotate(29.0146 280.149 1007.68)" fill="#008F72"></rect> <rect opacity="0.5" x="260.675" y="1164.68" width="2.66448" height="56.2087" rx="1.33224" transform="rotate(36.2083 260.675 1164.68)" fill="#008F72"></rect> <rect opacity="0.5" x="110.769" y="1252.69" width="2.66448" height="33.4678" rx="1.33224" transform="rotate(23.0805 110.769 1252.69)" fill="#008F72"></rect> <rect opacity="0.5" x="17.5267" y="987.247" width="2.66448" height="56.2087" rx="1.33224" transform="rotate(-52.0864 17.5267 987.247)" fill="#008F72"></rect> <rect opacity="0.5" x="80.4011" y="1129.56" width="2.66448" height="56.2087" rx="1.33224" transform="rotate(-52.0864 80.4011 1129.56)" fill="#008F72"></rect> <rect opacity="0.5" x="92.0024" y="797.648" width="2.66448" height="77.183" rx="1.33224" transform="rotate(42.2961 92.0024 797.648)" fill="#008F72"></rect> <rect opacity="0.5" x="176.249" y="915.916" width="2.66448" height="62.8479" rx="1.33224" transform="rotate(42.2961 176.249 915.916)" fill="#008F72"></rect> <rect opacity="0.5" x="291.768" y="198.865" width="2.66448" height="38.0026" rx="1.33224" transform="rotate(19.3503 291.768 198.865)" fill="#008F72"></rect> <rect opacity="0.5" x="207.89" y="244.014" width="2.66448" height="49.6749" rx="1.33224" transform="rotate(19.3503 207.89 244.014)" fill="#008F72"></rect> <rect opacity="0.5" x="163.724" y="394.243" width="2.66448" height="49.6749" rx="1.33224" transform="rotate(28.2471 163.724 394.243)" fill="#008F72"></rect> <rect opacity="0.5" x="125.191" y="535.569" width="2.66448" height="59.8952" rx="1.33224" transform="rotate(-24.6704 125.191 535.569)" fill="#008F72"></rect> <rect opacity="0.5" x="43.1556" y="554.358" width="2.66448" height="85.4378" rx="1.33224" transform="rotate(27.4616 43.1556 554.358)" fill="#008F72"></rect> <rect opacity="0.5" x="73.8627" y="645.12" width="2.66448" height="46.8817" rx="1.33224" transform="rotate(-40.9609 73.8627 645.12)" fill="#008F72"></rect> <rect opacity="0.5" x="22.5344" y="360.657" width="2.66448" height="41.339" rx="1.33224" transform="rotate(-33.4109 22.5344 360.657)" fill="#008F72"></rect> <rect opacity="0.5" x="83.6852" y="242.762" width="2.66448" height="49.6749" rx="1.33224" transform="rotate(28.3568 83.6852 242.762)" fill="#008F72"></rect> <rect opacity="0.5" x="102.657" y="115.166" width="2.66448" height="57.5797" rx="1.33224" transform="rotate(-30.4366 102.657 115.166)" fill="#008F72"></rect> <rect opacity="0.5" x="137.805" width="2.66448" height="44.1397" rx="1.33224" transform="rotate(20.029 137.805 0)" fill="#008F72"></rect> <rect opacity="0.5" y="73.0149" width="2.66448" height="24.98" rx="1.33224" transform="rotate(-41.4546 0 73.0149)" fill="#008F72"></rect> <rect opacity="0.5" x="668.933" y="91.2659" width="2.66448" height="40.0803" rx="1.33224" transform="rotate(24.5007 668.933 91.2659)" fill="#008F72"></rect> <rect opacity="0.5" x="761.333" y="46.7268" width="2.66448" height="27.9287" rx="1.33224" transform="rotate(18.9676 761.333 46.7268)" fill="#008F72"></rect> <rect opacity="0.5" x="867.61" y="722.944" width="2.66448" height="28.9634" rx="1.33224" transform="rotate(-44.0967 867.61 722.944)" fill="#008F72"></rect> <rect opacity="0.5" x="849.209" y="145.114" width="2.66448" height="49.6391" rx="1.33224" transform="rotate(2.46233 849.209 145.114)" fill="#008F72"></rect> <rect opacity="0.5" x="905.219" y="244.014" width="2.66448" height="49.6391" rx="1.33224" transform="rotate(16.7745 905.219 244.014)" fill="#008F72"></rect> <rect opacity="0.5" x="907.878" y="350.369" width="2.66448" height="58.8522" rx="1.33224" transform="rotate(16.7745 907.878 350.369)" fill="#008F72"></rect> <rect opacity="0.5" x="784.444" y="348.172" width="2.66448" height="35.0301" rx="1.33224" transform="rotate(25.3285 784.444 348.172)" fill="#008F72"></rect> <rect opacity="0.5" x="734.873" y="498.709" width="2.66448" height="62.6798" rx="1.33224" transform="rotate(25.3285 734.873 498.709)" fill="#008F72"></rect> <rect opacity="0.5" x="863.351" y="1250.49" width="2.66448" height="33.4678" rx="1.33224" transform="rotate(-26.5117 863.351 1250.49)" fill="#008F72"></rect> <rect opacity="0.5" x="838.781" y="576.327" width="2.66448" height="62.6798" rx="1.33224" transform="rotate(25.3285 838.781 576.327)" fill="#008F72"></rect> <rect opacity="0.5" x="691.828" y="647.293" width="2.66448" height="55.573" rx="1.33224" transform="rotate(25.3285 691.828 647.293)" fill="#008F72"></rect> <rect opacity="0.5" x="763.199" y="773.55" width="2.66448" height="42.7766" rx="1.33224" transform="rotate(-27.4962 763.199 773.55)" fill="#008F72"></rect> <rect opacity="0.5" x="831.751" y="895.007" width="2.66448" height="42.7766" rx="1.33224" transform="rotate(44.053 831.751 895.007)" fill="#008F72"></rect> <rect opacity="0.5" x="880.274" y="1044.01" width="2.66448" height="42.7766" rx="1.33224" transform="rotate(44.053 880.274 1044.01)" fill="#008F72"></rect> <rect opacity="0.5" x="749.149" y="1007.68" width="2.66448" height="56.2087" rx="1.33224" transform="rotate(29.0146 749.149 1007.68)" fill="#008F72"></rect> <rect opacity="0.5" x="729.675" y="1164.68" width="2.66448" height="56.2087" rx="1.33224" transform="rotate(36.2083 729.675 1164.68)" fill="#008F72"></rect> <rect opacity="0.5" x="579.769" y="1252.69" width="2.66448" height="33.4678" rx="1.33224" transform="rotate(23.0805 579.769 1252.69)" fill="#008F72"></rect> <rect opacity="0.5" x="486.527" y="987.247" width="2.66448" height="56.2087" rx="1.33224" transform="rotate(-52.0864 486.527 987.247)" fill="#008F72"></rect> <rect opacity="0.5" x="549.401" y="1129.56" width="2.66448" height="56.2087" rx="1.33224" transform="rotate(-52.0864 549.401 1129.56)" fill="#008F72"></rect> <rect opacity="0.5" x="561.002" y="797.648" width="2.66448" height="77.183" rx="1.33224" transform="rotate(42.2961 561.002 797.648)" fill="#008F72"></rect> <rect opacity="0.5" x="645.249" y="915.916" width="2.66448" height="62.8479" rx="1.33224" transform="rotate(42.2961 645.249 915.916)" fill="#008F72"></rect> <rect opacity="0.5" x="760.768" y="198.865" width="2.66448" height="38.0026" rx="1.33224" transform="rotate(19.3503 760.768 198.865)" fill="#008F72"></rect> <rect opacity="0.5" x="676.89" y="244.014" width="2.66448" height="49.6749" rx="1.33224" transform="rotate(19.3503 676.89 244.014)" fill="#008F72"></rect> <rect opacity="0.5" x="632.724" y="394.243" width="2.66448" height="49.6749" rx="1.33224" transform="rotate(28.2471 632.724 394.243)" fill="#008F72"></rect> <rect opacity="0.5" x="594.191" y="535.569" width="2.66448" height="59.8952" rx="1.33224" transform="rotate(-24.6704 594.191 535.569)" fill="#008F72"></rect> <rect opacity="0.5" x="512.156" y="554.358" width="2.66448" height="85.4378" rx="1.33224" transform="rotate(27.4616 512.156 554.358)" fill="#008F72"></rect> <rect opacity="0.5" x="542.863" y="645.12" width="2.66448" height="46.8817" rx="1.33224" transform="rotate(-40.9609 542.863 645.12)" fill="#008F72"></rect> <rect opacity="0.5" x="491.534" y="360.657" width="2.66448" height="41.339" rx="1.33224" transform="rotate(-33.4109 491.534 360.657)" fill="#008F72"></rect> <rect opacity="0.5" x="552.685" y="242.762" width="2.66448" height="49.6749" rx="1.33224" transform="rotate(28.3568 552.685 242.762)" fill="#008F72"></rect> <rect opacity="0.5" x="571.657" y="115.166" width="2.66448" height="57.5797" rx="1.33224" transform="rotate(-30.4366 571.657 115.166)" fill="#008F72"></rect> <rect opacity="0.5" x="606.805" width="2.66448" height="44.1397" rx="1.33224" transform="rotate(20.029 606.805 0)" fill="#008F72"></rect> <rect opacity="0.5" x="469" y="73.0149" width="2.66448" height="24.98" rx="1.33224" transform="rotate(-41.4546 469 73.0149)" fill="#008F72"></rect> <rect opacity="0.5" x="1137.93" y="91.2659" width="2.66448" height="40.0803" rx="1.33224" transform="rotate(24.5007 1137.93 91.2659)" fill="#008F72"></rect> <rect opacity="0.5" x="1230.33" y="46.7268" width="2.66448" height="27.9287" rx="1.33224" transform="rotate(18.9676 1230.33 46.7268)" fill="#008F72"></rect> <rect opacity="0.5" x="1336.61" y="722.944" width="2.66448" height="28.9634" rx="1.33224" transform="rotate(-44.0967 1336.61 722.944)" fill="#008F72"></rect> <rect opacity="0.5" x="1318.21" y="145.114" width="2.66448" height="49.6391" rx="1.33224" transform="rotate(2.46233 1318.21 145.114)" fill="#008F72"></rect> <rect opacity="0.5" x="1374.22" y="244.014" width="2.66448" height="49.6391" rx="1.33224" transform="rotate(16.7745 1374.22 244.014)" fill="#008F72"></rect> <rect opacity="0.5" x="1376.88" y="350.369" width="2.66448" height="58.8522" rx="1.33224" transform="rotate(16.7745 1376.88 350.369)" fill="#008F72"></rect> <rect opacity="0.5" x="1253.44" y="348.172" width="2.66448" height="35.0301" rx="1.33224" transform="rotate(25.3285 1253.44 348.172)" fill="#008F72"></rect> <rect opacity="0.5" x="1203.87" y="498.709" width="2.66448" height="62.6798" rx="1.33224" transform="rotate(25.3285 1203.87 498.709)" fill="#008F72"></rect> <rect opacity="0.5" x="1332.35" y="1250.49" width="2.66448" height="33.4678" rx="1.33224" transform="rotate(-26.5117 1332.35 1250.49)" fill="#008F72"></rect> <rect opacity="0.5" x="1307.78" y="576.327" width="2.66448" height="62.6798" rx="1.33224" transform="rotate(25.3285 1307.78 576.327)" fill="#008F72"></rect> <rect opacity="0.5" x="1160.83" y="647.293" width="2.66448" height="55.573" rx="1.33224" transform="rotate(25.3285 1160.83 647.293)" fill="#008F72"></rect> <rect opacity="0.5" x="1232.2" y="773.55" width="2.66448" height="42.7766" rx="1.33224" transform="rotate(-27.4962 1232.2 773.55)" fill="#008F72"></rect> <rect opacity="0.5" x="1300.75" y="895.007" width="2.66448" height="42.7766" rx="1.33224" transform="rotate(44.053 1300.75 895.007)" fill="#008F72"></rect> <rect opacity="0.5" x="1349.27" y="1044.01" width="2.66448" height="42.7766" rx="1.33224" transform="rotate(44.053 1349.27 1044.01)" fill="#008F72"></rect> <rect opacity="0.5" x="1218.15" y="1007.68" width="2.66448" height="56.2087" rx="1.33224" transform="rotate(29.0146 1218.15 1007.68)" fill="#008F72"></rect> <rect opacity="0.5" x="1198.67" y="1164.68" width="2.66448" height="56.2087" rx="1.33224" transform="rotate(36.2083 1198.67 1164.68)" fill="#008F72"></rect> <rect opacity="0.5" x="1048.77" y="1252.69" width="2.66448" height="33.4678" rx="1.33224" transform="rotate(23.0805 1048.77 1252.69)" fill="#008F72"></rect> <rect opacity="0.5" x="955.527" y="987.247" width="2.66448" height="56.2087" rx="1.33224" transform="rotate(-52.0864 955.527 987.247)" fill="#008F72"></rect> <rect opacity="0.5" x="1018.4" y="1129.56" width="2.66448" height="56.2087" rx="1.33224" transform="rotate(-52.0864 1018.4 1129.56)" fill="#008F72"></rect> <rect opacity="0.5" x="1030" y="797.648" width="2.66448" height="77.183" rx="1.33224" transform="rotate(42.2961 1030 797.648)" fill="#008F72"></rect> <rect opacity="0.5" x="1114.25" y="915.916" width="2.66448" height="62.8479" rx="1.33224" transform="rotate(42.2961 1114.25 915.916)" fill="#008F72"></rect> <rect opacity="0.5" x="1229.77" y="198.865" width="2.66448" height="38.0026" rx="1.33224" transform="rotate(19.3503 1229.77 198.865)" fill="#008F72"></rect> <rect opacity="0.5" x="1145.89" y="244.014" width="2.66448" height="49.6749" rx="1.33224" transform="rotate(19.3503 1145.89 244.014)" fill="#008F72"></rect> <rect opacity="0.5" x="1101.72" y="394.243" width="2.66448" height="49.6749" rx="1.33224" transform="rotate(28.2471 1101.72 394.243)" fill="#008F72"></rect> <rect opacity="0.5" x="1063.19" y="535.569" width="2.66448" height="59.8952" rx="1.33224" transform="rotate(-24.6704 1063.19 535.569)" fill="#008F72"></rect> <rect opacity="0.5" x="981.156" y="554.358" width="2.66448" height="85.4378" rx="1.33224" transform="rotate(27.4616 981.156 554.358)" fill="#008F72"></rect> <rect opacity="0.5" x="1011.86" y="645.12" width="2.66448" height="46.8817" rx="1.33224" transform="rotate(-40.9609 1011.86 645.12)" fill="#008F72"></rect> <rect opacity="0.5" x="960.534" y="360.657" width="2.66448" height="41.339" rx="1.33224" transform="rotate(-33.4109 960.534 360.657)" fill="#008F72"></rect> <rect opacity="0.5" x="1021.69" y="242.762" width="2.66448" height="49.6749" rx="1.33224" transform="rotate(28.3568 1021.69 242.762)" fill="#008F72"></rect> <rect opacity="0.5" x="1040.66" y="115.166" width="2.66448" height="57.5797" rx="1.33224" transform="rotate(-30.4366 1040.66 115.166)" fill="#008F72"></rect> <rect opacity="0.5" x="1075.8" width="2.66448" height="44.1397" rx="1.33224" transform="rotate(20.029 1075.8 0)" fill="#008F72"></rect> <rect opacity="0.5" x="938" y="73.0149" width="2.66448" height="24.98" rx="1.33224" transform="rotate(-41.4546 938 73.0149)" fill="#008F72"></rect> <rect opacity="0.5" x="1606.93" y="91.2659" width="2.66448" height="40.0803" rx="1.33224" transform="rotate(24.5007 1606.93 91.2659)" fill="#008F72"></rect> <rect opacity="0.5" x="1699.33" y="46.7268" width="2.66448" height="27.9287" rx="1.33224" transform="rotate(18.9676 1699.33 46.7268)" fill="#008F72"></rect> <rect opacity="0.5" x="1805.61" y="722.944" width="2.66448" height="28.9634" rx="1.33224" transform="rotate(-44.0967 1805.61 722.944)" fill="#008F72"></rect> <rect opacity="0.5" x="1787.21" y="145.114" width="2.66448" height="49.6391" rx="1.33224" transform="rotate(2.46233 1787.21 145.114)" fill="#008F72"></rect> <rect opacity="0.5" x="1843.22" y="244.014" width="2.66448" height="49.6391" rx="1.33224" transform="rotate(16.7745 1843.22 244.014)" fill="#008F72"></rect> <rect opacity="0.5" x="1845.88" y="350.369" width="2.66448" height="58.8522" rx="1.33224" transform="rotate(16.7745 1845.88 350.369)" fill="#008F72"></rect> <rect opacity="0.5" x="1722.44" y="348.172" width="2.66448" height="35.0301" rx="1.33224" transform="rotate(25.3285 1722.44 348.172)" fill="#008F72"></rect> <rect opacity="0.5" x="1672.87" y="498.709" width="2.66448" height="62.6798" rx="1.33224" transform="rotate(25.3285 1672.87 498.709)" fill="#008F72"></rect> <rect opacity="0.5" x="1801.35" y="1250.49" width="2.66448" height="33.4678" rx="1.33224" transform="rotate(-26.5117 1801.35 1250.49)" fill="#008F72"></rect> <rect opacity="0.5" x="1776.78" y="576.327" width="2.66448" height="62.6798" rx="1.33224" transform="rotate(25.3285 1776.78 576.327)" fill="#008F72"></rect> <rect opacity="0.5" x="1629.83" y="647.293" width="2.66448" height="55.573" rx="1.33224" transform="rotate(25.3285 1629.83 647.293)" fill="#008F72"></rect> <rect opacity="0.5" x="1701.2" y="773.55" width="2.66448" height="42.7766" rx="1.33224" transform="rotate(-27.4962 1701.2 773.55)" fill="#008F72"></rect> <rect opacity="0.5" x="1769.75" y="895.007" width="2.66448" height="42.7766" rx="1.33224" transform="rotate(44.053 1769.75 895.007)" fill="#008F72"></rect> <rect opacity="0.5" x="1818.27" y="1044.01" width="2.66448" height="42.7766" rx="1.33224" transform="rotate(44.053 1818.27 1044.01)" fill="#008F72"></rect> <rect opacity="0.5" x="1687.15" y="1007.68" width="2.66448" height="56.2087" rx="1.33224" transform="rotate(29.0146 1687.15 1007.68)" fill="#008F72"></rect> <rect opacity="0.5" x="1667.67" y="1164.68" width="2.66448" height="56.2087" rx="1.33224" transform="rotate(36.2083 1667.67 1164.68)" fill="#008F72"></rect> <rect opacity="0.5" x="1517.77" y="1252.69" width="2.66448" height="33.4678" rx="1.33224" transform="rotate(23.0805 1517.77 1252.69)" fill="#008F72"></rect> <rect opacity="0.5" x="1424.53" y="987.247" width="2.66448" height="56.2087" rx="1.33224" transform="rotate(-52.0864 1424.53 987.247)" fill="#008F72"></rect> <rect opacity="0.5" x="1487.4" y="1129.56" width="2.66448" height="56.2087" rx="1.33224" transform="rotate(-52.0864 1487.4 1129.56)" fill="#008F72"></rect> <rect opacity="0.5" x="1499" y="797.648" width="2.66448" height="77.183" rx="1.33224" transform="rotate(42.2961 1499 797.648)" fill="#008F72"></rect> <rect opacity="0.5" x="1583.25" y="915.916" width="2.66448" height="62.8479" rx="1.33224" transform="rotate(42.2961 1583.25 915.916)" fill="#008F72"></rect> <rect opacity="0.5" x="1698.77" y="198.865" width="2.66448" height="38.0026" rx="1.33224" transform="rotate(19.3503 1698.77 198.865)" fill="#008F72"></rect> <rect opacity="0.5" x="1614.89" y="244.014" width="2.66448" height="49.6749" rx="1.33224" transform="rotate(19.3503 1614.89 244.014)" fill="#008F72"></rect> <rect opacity="0.5" x="1570.72" y="394.243" width="2.66448" height="49.6749" rx="1.33224" transform="rotate(28.2471 1570.72 394.243)" fill="#008F72"></rect> <rect opacity="0.5" x="1532.19" y="535.569" width="2.66448" height="59.8952" rx="1.33224" transform="rotate(-24.6704 1532.19 535.569)" fill="#008F72"></rect> <rect opacity="0.5" x="1450.16" y="554.358" width="2.66448" height="85.4378" rx="1.33224" transform="rotate(27.4616 1450.16 554.358)" fill="#008F72"></rect> <rect opacity="0.5" x="1480.86" y="645.12" width="2.66448" height="46.8817" rx="1.33224" transform="rotate(-40.9609 1480.86 645.12)" fill="#008F72"></rect> <rect opacity="0.5" x="1429.53" y="360.657" width="2.66448" height="41.339" rx="1.33224" transform="rotate(-33.4109 1429.53 360.657)" fill="#008F72"></rect> <rect opacity="0.5" x="1490.69" y="242.762" width="2.66448" height="49.6749" rx="1.33224" transform="rotate(28.3568 1490.69 242.762)" fill="#008F72"></rect> <rect opacity="0.5" x="1509.66" y="115.166" width="2.66448" height="57.5797" rx="1.33224" transform="rotate(-30.4366 1509.66 115.166)" fill="#008F72"></rect> <rect opacity="0.5" x="1544.8" width="2.66448" height="44.1397" rx="1.33224" transform="rotate(20.029 1544.8 0)" fill="#008F72"></rect> <rect opacity="0.5" x="1407" y="73.0149" width="2.66448" height="24.98" rx="1.33224" transform="rotate(-41.4546 1407 73.0149)" fill="#008F72"></rect> </svg> 