<?xml version="1.0" encoding="UTF-8"?> <svg xmlns="http://www.w3.org/2000/svg" width="430" height="286" viewBox="0 0 430 286" fill="none"> <path fill-rule="evenodd" clip-rule="evenodd" d="M15.4945 72.55C15.4945 73.5951 14.6457 74.4438 13.6038 74.4438H1.88601C0.845666 74.4438 0 73.5951 0 72.55V60.8369C0 59.795 0.845666 58.9478 1.88601 58.9478H13.6038C14.6457 58.9478 15.4945 59.795 15.4945 60.8369V72.55Z" fill="white"></path> <path fill-rule="evenodd" clip-rule="evenodd" d="M54.2317 72.55C54.2317 73.5951 53.3861 74.4438 52.3411 74.4438H40.6248C39.5844 74.4438 38.7388 73.5951 38.7388 72.55V60.8369C38.7388 59.795 39.5844 58.9478 40.6248 58.9478H52.3411C53.3861 58.9478 54.2317 59.795 54.2317 60.8369V72.55Z" fill="white"></path> <path fill-rule="evenodd" clip-rule="evenodd" d="M15.4945 53.1808C15.4945 54.2258 14.6457 55.073 13.6038 55.073H1.88601C0.845666 55.073 0 54.2258 0 53.1808V41.4676C0 40.4273 0.845666 39.5801 1.88601 39.5801H13.6038C14.6457 39.5801 15.4945 40.4273 15.4945 41.4676V53.1808Z" fill="white"></path> <path fill-rule="evenodd" clip-rule="evenodd" d="M34.8638 53.1808C34.8638 54.2258 34.015 55.073 32.97 55.073H21.2568C20.2149 55.073 19.3677 54.2258 19.3677 53.1808V41.4676C19.3677 40.4273 20.2149 39.5801 21.2568 39.5801H32.97C34.015 39.5801 34.8638 40.4273 34.8638 41.4676V53.1808Z" fill="white"></path> <path fill-rule="evenodd" clip-rule="evenodd" d="M54.2317 53.1808C54.2317 54.2258 53.3861 55.073 52.3411 55.073H40.6248C39.5844 55.073 38.7388 54.2258 38.7388 53.1808V41.4676C38.7388 40.4273 39.5844 39.5801 40.6248 39.5801H52.3411C53.3861 39.5801 54.2317 40.4273 54.2317 41.4676V53.1808Z" fill="white"></path> <path fill-rule="evenodd" clip-rule="evenodd" d="M15.4945 33.8113C15.4945 34.8563 14.6457 35.7035 13.6038 35.7035H1.88601C0.845666 35.7035 0 34.8563 0 33.8113V22.0965C0 21.0578 0.845666 20.209 1.88601 20.209H13.6038C14.6457 20.209 15.4945 21.0578 15.4945 22.0965V33.8113Z" fill="white"></path> <path fill-rule="evenodd" clip-rule="evenodd" d="M54.2317 33.8113C54.2317 34.8563 53.3861 35.7035 52.3411 35.7035H40.6248C39.5844 35.7035 38.7388 34.8563 38.7388 33.8113V22.0965C38.7388 21.0578 39.5844 20.209 40.6248 20.209H52.3411C53.3861 20.209 54.2317 21.0578 54.2317 22.0965V33.8113Z" fill="white"></path> <path fill-rule="evenodd" clip-rule="evenodd" d="M34.8638 14.4432C34.8638 15.4882 34.015 16.3354 32.97 16.3354H21.2568C20.2149 16.3354 19.3677 15.4882 19.3677 14.4432V2.72848C19.3677 1.68658 20.2149 0.839355 21.2568 0.839355H32.97C34.015 0.839355 34.8638 1.68658 34.8638 2.72848V14.4432Z" fill="white"></path> <path fill-rule="evenodd" clip-rule="evenodd" d="M15.4945 14.4432C15.4945 15.4882 14.6457 16.3354 13.6038 16.3354H1.88601C0.845666 16.3354 0 15.4882 0 14.4432L13.6038 0.839355C14.6457 0.839355 15.4945 1.68658 15.4945 2.72848V14.4432Z" fill="white"></path> <path fill-rule="evenodd" clip-rule="evenodd" d="M54.2317 14.4432C54.2317 15.4882 53.3861 16.3354 52.3411 16.3354H40.6248C39.5844 16.3354 38.7388 15.4882 38.7388 14.4432V2.72848C38.7388 1.68658 39.5844 0.839355 40.6248 0.839355L54.2317 14.4432Z" fill="white"></path> <path fill-rule="evenodd" clip-rule="evenodd" d="M85.2235 72.0022C85.2235 73.0472 84.3747 73.896 83.3313 73.896H71.6166C70.5762 73.896 69.729 73.0472 69.729 72.0022V60.289C69.729 59.2471 70.5762 58.3999 71.6166 58.3999H83.3313C84.3747 58.3999 85.2235 59.2471 85.2235 60.289V72.0022Z" fill="white"></path> <path fill-rule="evenodd" clip-rule="evenodd" d="M85.2235 52.632C85.2235 53.6754 84.3747 54.5258 83.3313 54.5258H71.6166C70.5762 54.5258 69.729 53.6754 69.729 52.632V40.9188C69.729 39.8754 70.5762 39.0312 71.6166 39.0312H83.3313C84.3747 39.0312 85.2235 39.8754 85.2235 40.9188V52.632Z" fill="white"></path> <path fill-rule="evenodd" clip-rule="evenodd" d="M90.9863 54.5258C89.9444 54.5258 89.0972 53.6754 89.0972 52.632V40.9188C89.0972 39.8754 89.9444 39.0312 90.9863 39.0312H102.699C103.744 39.0312 104.593 39.8754 104.593 40.9188L90.9863 54.5258Z" fill="white"></path> <path fill-rule="evenodd" clip-rule="evenodd" d="M85.2235 33.2599C85.2235 34.3049 84.3747 35.1553 83.3313 35.1553H71.6166C70.5762 35.1553 69.729 34.3049 69.729 33.2599V21.5467C69.729 20.5064 70.5762 19.6592 71.6166 19.6592H83.3313C84.3747 19.6592 85.2235 20.5064 85.2235 21.5467V33.2599Z" fill="white"></path> <path fill-rule="evenodd" clip-rule="evenodd" d="M85.2235 13.8923C85.2235 14.9373 84.3747 15.7846 83.3313 15.7846H71.6166C70.5762 15.7846 69.729 14.9373 69.729 13.8923V2.1776C69.729 1.13882 70.5762 0.290039 71.6166 0.290039H83.3313C84.3747 0.290039 85.2235 1.13882 85.2235 2.1776V13.8923Z" fill="white"></path> <path fill-rule="evenodd" clip-rule="evenodd" d="M104.593 13.8923C104.593 14.9373 103.744 15.7846 102.699 15.7846H90.9863C89.9428 15.7846 89.0972 14.9373 89.0972 13.8923V2.1776C89.0972 1.13882 89.9428 0.290039 90.9863 0.290039H102.699C103.744 0.290039 104.593 1.13882 104.593 2.1776V13.8923Z" fill="white"></path> <path fill-rule="evenodd" clip-rule="evenodd" d="M110.354 15.7846C109.314 15.7846 108.465 14.9373 108.465 13.8908V2.17604C108.465 1.13882 109.314 0.290039 110.354 0.290039H122.069C123.115 0.290039 123.961 1.13882 123.961 2.17604L110.354 15.7846Z" fill="white"></path> <path fill-rule="evenodd" clip-rule="evenodd" d="M151.08 72.55C151.08 73.5951 150.232 74.4438 149.187 74.4438H137.471C136.431 74.4438 135.582 73.5951 135.582 72.55V60.8369C135.582 59.795 136.431 58.9478 137.471 58.9478H149.187C150.232 58.9478 151.08 59.795 151.08 60.8369V72.55Z" fill="white"></path> <path fill-rule="evenodd" clip-rule="evenodd" d="M170.449 72.55C170.449 73.5951 169.602 74.4438 168.557 74.4438L154.955 60.8369C154.955 59.795 155.803 58.9478 156.842 58.9478H168.557C169.602 58.9478 170.449 59.795 170.449 60.8369V72.55Z" fill="white"></path> <path fill-rule="evenodd" clip-rule="evenodd" d="M189.819 72.55C189.819 73.5951 188.97 74.4438 187.925 74.4438H176.21C175.17 74.4438 174.324 73.5951 174.324 72.55V60.8369C174.324 59.795 175.17 58.9478 176.21 58.9478L189.819 72.55Z" fill="white"></path> <path fill-rule="evenodd" clip-rule="evenodd" d="M151.08 53.1808C151.08 54.2258 150.232 55.073 149.187 55.073H137.471C136.431 55.073 135.582 54.2258 135.582 53.1808V41.4676C135.582 40.4273 136.431 39.5801 137.471 39.5801H149.187C150.232 39.5801 151.08 40.4273 151.08 41.4676V53.1808Z" fill="white"></path> <path fill-rule="evenodd" clip-rule="evenodd" d="M170.449 53.1808C170.449 54.2258 169.602 55.073 168.557 55.073H156.842C155.803 55.073 154.955 54.2258 154.955 53.1808V41.4676C154.955 40.4273 155.803 39.5801 156.842 39.5801H168.557C169.602 39.5801 170.449 40.4273 170.449 41.4676V53.1808Z" fill="white"></path> <path fill-rule="evenodd" clip-rule="evenodd" d="M176.21 55.0727C175.169 55.0727 174.322 54.2239 174.322 53.1789V41.4641C174.322 40.4238 175.169 39.5781 176.21 39.5781H187.923C188.97 39.5781 189.818 40.4238 189.818 41.4641L176.21 55.0727Z" fill="white"></path> <path fill-rule="evenodd" clip-rule="evenodd" d="M151.08 33.8113C151.08 34.8563 150.232 35.7035 149.187 35.7035H137.471C136.431 35.7035 135.582 34.8563 135.582 33.8113V22.0965C135.582 21.0578 136.431 20.209 137.471 20.209H149.187C150.232 20.209 151.08 21.0578 151.08 22.0965V33.8113Z" fill="white"></path> <path fill-rule="evenodd" clip-rule="evenodd" d="M189.819 33.8113C189.819 34.8563 188.97 35.7035 187.925 35.7035H176.21C175.17 35.7035 174.324 34.8563 174.324 33.8113V22.0965C174.324 21.0578 175.17 20.209 176.21 20.209H187.925C188.97 20.209 189.819 21.0578 189.819 22.0965V33.8113Z" fill="white"></path> <path fill-rule="evenodd" clip-rule="evenodd" d="M170.449 14.4432C170.449 15.4851 169.602 16.3323 168.557 16.3323H156.842C155.803 16.3323 154.955 15.4851 154.955 14.4432V2.72848C154.955 1.68502 155.803 0.839355 156.842 0.839355H168.557C169.602 0.839355 170.449 1.68502 170.449 2.72848V14.4432Z" fill="white"></path> <path fill-rule="evenodd" clip-rule="evenodd" d="M189.819 14.4432C189.819 15.4851 188.97 16.3323 187.925 16.3323H176.21C175.17 16.3323 174.324 15.4851 174.324 14.4432V2.72848C174.324 1.68502 175.17 0.839355 176.21 0.839355L189.819 14.4432Z" fill="white"></path> <path fill-rule="evenodd" clip-rule="evenodd" d="M151.08 14.4432C151.08 15.4851 150.232 16.3323 149.187 16.3323H137.471C136.431 16.3323 135.582 15.4851 135.582 14.4432L149.187 0.839355C150.232 0.839355 151.08 1.68502 151.08 2.72848V14.4432Z" fill="white"></path> <path fill-rule="evenodd" clip-rule="evenodd" d="M220.813 72.55C220.813 73.5951 219.965 74.4438 218.92 74.4438H207.203C206.162 74.4438 205.313 73.5951 205.313 72.55V60.8369C205.313 59.795 206.162 58.9478 207.203 58.9478H218.92C219.965 58.9478 220.813 59.795 220.813 60.8369V72.55Z" fill="white"></path> <path fill-rule="evenodd" clip-rule="evenodd" d="M220.813 53.1808C220.813 54.2258 219.965 55.073 218.92 55.073H207.203C206.162 55.073 205.313 54.2258 205.313 53.1808V41.4676C205.313 40.4273 206.162 39.5801 207.203 39.5801H218.92C219.965 39.5801 220.813 40.4273 220.813 41.4676V53.1808Z" fill="white"></path> <path fill-rule="evenodd" clip-rule="evenodd" d="M220.813 14.4432C220.813 15.4851 219.965 16.3323 218.92 16.3323H207.203C206.162 16.3323 205.313 15.4851 205.313 14.4432V2.72848C205.313 1.68502 206.162 0.839355 207.203 0.839355H218.92C219.965 0.839355 220.813 1.68502 220.813 2.72848V14.4432Z" fill="white"></path> <path fill-rule="evenodd" clip-rule="evenodd" d="M251.803 72.55C251.803 73.5951 250.954 74.4438 249.909 74.4438L236.308 60.8369C236.308 59.795 237.155 58.9478 238.196 58.9478H249.909C250.954 58.9478 251.803 59.795 251.803 60.8369V72.55Z" fill="white"></path> <path fill-rule="evenodd" clip-rule="evenodd" d="M271.174 72.55C271.174 73.5951 270.323 74.4438 269.278 74.4438H257.568C256.525 74.4438 255.678 73.5951 255.678 72.55V60.8369C255.678 59.795 256.525 58.9478 257.568 58.9478H269.278C270.323 58.9478 271.174 59.795 271.174 60.8369V72.55Z" fill="white"></path> <path fill-rule="evenodd" clip-rule="evenodd" d="M276.933 74.4434C275.891 74.4434 275.043 73.5947 275.043 72.5497V60.8349C275.043 59.793 275.891 58.9458 276.933 58.9458H288.649C289.694 58.9458 290.541 59.793 290.541 60.8349L276.933 74.4434Z" fill="white"></path> <path fill-rule="evenodd" clip-rule="evenodd" d="M251.803 53.1808C251.803 54.2258 250.954 55.073 249.909 55.073H238.196C237.155 55.073 236.308 54.2258 236.308 53.1808V41.4676C236.308 40.4273 237.155 39.5801 238.196 39.5801H249.909C250.954 39.5801 251.803 40.4273 251.803 41.4676V53.1808Z" fill="white"></path> <path fill-rule="evenodd" clip-rule="evenodd" d="M251.803 33.8113C251.803 34.8563 250.954 35.7035 249.909 35.7035H238.196C237.155 35.7035 236.308 34.8563 236.308 33.8113V22.0965C236.308 21.0578 237.155 20.209 238.196 20.209H249.909C250.954 20.209 251.803 21.0578 251.803 22.0965V33.8113Z" fill="white"></path> <path fill-rule="evenodd" clip-rule="evenodd" d="M251.803 14.4432C251.803 15.4882 250.954 16.3354 249.909 16.3354H238.196C237.155 16.3354 236.308 15.4882 236.308 14.4432L249.909 0.839355C250.954 0.839355 251.803 1.68658 251.803 2.72848V14.4432Z" fill="white"></path> <path fill-rule="evenodd" clip-rule="evenodd" d="M271.174 14.4432C271.174 15.4882 270.323 16.3354 269.278 16.3354H257.568C256.525 16.3354 255.678 15.4882 255.678 14.4432V2.72848C255.678 1.68658 256.525 0.839355 257.568 0.839355H269.278C270.323 0.839355 271.174 1.68658 271.174 2.72848V14.4432Z" fill="white"></path> <path fill-rule="evenodd" clip-rule="evenodd" d="M290.541 14.4432C290.541 15.4882 289.694 16.3354 288.649 16.3354H276.934C275.891 16.3354 275.045 15.4882 275.045 14.4432V2.72848C275.045 1.68658 275.891 0.839355 276.934 0.839355L290.541 14.4432Z" fill="white"></path> <path fill-rule="evenodd" clip-rule="evenodd" d="M321.532 72.55C321.532 73.5951 320.688 74.4438 319.643 74.4438H307.925C306.886 74.4438 306.039 73.5951 306.039 72.55V60.8369C306.039 59.795 306.886 58.9478 307.925 58.9478H319.643C320.688 58.9478 321.532 59.795 321.532 60.8369V72.55Z" fill="white"></path> <path fill-rule="evenodd" clip-rule="evenodd" d="M360.273 72.55C360.273 73.5951 359.426 74.4438 358.379 74.4438H346.669C345.622 74.4438 344.78 73.5951 344.78 72.55V60.8369C344.78 59.795 345.622 58.9478 346.669 58.9478H358.379C359.426 58.9478 360.273 59.795 360.273 60.8369V72.55Z" fill="white"></path> <path fill-rule="evenodd" clip-rule="evenodd" d="M321.532 53.1808C321.532 54.2258 320.688 55.073 319.643 55.073H307.925C306.886 55.073 306.039 54.2258 306.039 53.1808V41.4676C306.039 40.4273 306.886 39.5801 307.925 39.5801H319.643C320.688 39.5801 321.532 40.4273 321.532 41.4676V53.1808Z" fill="white"></path> <path fill-rule="evenodd" clip-rule="evenodd" d="M340.903 53.1808C340.903 54.2258 340.052 55.073 339.007 55.073H327.296C326.252 55.073 325.407 54.2258 325.407 53.1808V41.4676C325.407 40.4273 326.252 39.5801 327.296 39.5801H339.007C340.052 39.5801 340.903 40.4273 340.903 41.4676V53.1808Z" fill="white"></path> <path fill-rule="evenodd" clip-rule="evenodd" d="M360.273 53.1808C360.273 54.2258 359.426 55.073 358.379 55.073H346.669C345.622 55.073 344.78 54.2258 344.78 53.1808V41.4676C344.78 40.4273 345.622 39.5801 346.669 39.5801H358.379C359.426 39.5801 360.273 40.4273 360.273 41.4676V53.1808Z" fill="white"></path> <path fill-rule="evenodd" clip-rule="evenodd" d="M321.532 33.8113C321.532 34.8563 320.688 35.7035 319.643 35.7035H307.925C306.886 35.7035 306.039 34.8563 306.039 33.8113V22.0965C306.039 21.0578 306.886 20.209 307.925 20.209H319.643C320.688 20.209 321.532 21.0578 321.532 22.0965V33.8113Z" fill="white"></path> <path fill-rule="evenodd" clip-rule="evenodd" d="M360.273 33.8113C360.273 34.8563 359.426 35.7035 358.379 35.7035H346.669C345.622 35.7035 344.78 34.8563 344.78 33.8113V22.0965C344.78 21.0578 345.622 20.209 346.669 20.209H358.379C359.426 20.209 360.273 21.0578 360.273 22.0965V33.8113Z" fill="white"></path> <path fill-rule="evenodd" clip-rule="evenodd" d="M340.903 14.4432C340.903 15.4882 340.052 16.3354 339.007 16.3354H327.296C326.252 16.3354 325.407 15.4882 325.407 14.4432V2.72848C325.407 1.68658 326.252 0.839355 327.296 0.839355H339.007C340.052 0.839355 340.903 1.68658 340.903 2.72848V14.4432Z" fill="white"></path> <path fill-rule="evenodd" clip-rule="evenodd" d="M321.532 14.4432C321.532 15.4882 320.688 16.3354 319.643 16.3354H307.925C306.886 16.3354 306.039 15.4882 306.039 14.4432L319.643 0.839355C320.688 0.839355 321.532 1.68658 321.532 2.72848V14.4432Z" fill="white"></path> <path fill-rule="evenodd" clip-rule="evenodd" d="M360.273 14.4432C360.273 15.4882 359.426 16.3354 358.379 16.3354H346.669C345.622 16.3354 344.78 15.4882 344.78 14.4432V2.72848C344.78 1.68658 345.622 0.839355 346.669 0.839355L360.273 14.4432Z" fill="white"></path> <path fill-rule="evenodd" clip-rule="evenodd" d="M391.261 72.55C391.261 73.5951 390.417 74.4438 389.372 74.4438H377.653C376.614 74.4438 375.768 73.5951 375.768 72.55V60.8369C375.768 59.795 376.614 58.9478 377.653 58.9478H389.372C390.417 58.9478 391.261 59.795 391.261 60.8369V72.55Z" fill="white"></path> <path fill-rule="evenodd" clip-rule="evenodd" d="M430 72.55C430 73.5951 429.154 74.4438 428.108 74.4438L414.507 60.8369C414.507 59.795 415.351 58.9478 416.393 58.9478H428.108C429.154 58.9478 430 59.795 430 60.8369V72.55Z" fill="white"></path> <path fill-rule="evenodd" clip-rule="evenodd" d="M391.261 53.1808C391.261 54.2258 390.417 55.073 389.372 55.073H377.653C376.614 55.073 375.768 54.2258 375.768 53.1808V41.4676C375.768 40.4273 376.614 39.5801 377.653 39.5801H389.372C390.417 39.5801 391.261 40.4273 391.261 41.4676V53.1808Z" fill="white"></path> <path fill-rule="evenodd" clip-rule="evenodd" d="M410.634 53.1808C410.634 54.2258 409.787 55.073 408.74 55.073L395.136 41.4676C395.136 40.4273 395.987 39.5801 397.025 39.5801H408.74C409.787 39.5801 410.634 40.4273 410.634 41.4676V53.1808Z" fill="white"></path> <path fill-rule="evenodd" clip-rule="evenodd" d="M430 53.1808C430 54.2258 429.154 55.073 428.108 55.073H416.393C415.351 55.073 414.507 54.2258 414.507 53.1808V41.4676C414.507 40.4273 415.351 39.5801 416.393 39.5801H428.108C429.154 39.5801 430 40.4273 430 41.4676V53.1808Z" fill="white"></path> <path fill-rule="evenodd" clip-rule="evenodd" d="M391.261 33.8113C391.261 34.8532 390.417 35.7035 389.372 35.7035H377.653C376.614 35.7035 375.768 34.8532 375.768 33.8113V22.0965C375.768 21.0546 376.614 20.209 377.653 20.209H389.372C390.417 20.209 391.261 21.0546 391.261 22.0965V33.8113Z" fill="white"></path> <path fill-rule="evenodd" clip-rule="evenodd" d="M410.634 33.8113C410.634 34.8532 409.787 35.7035 408.74 35.7035H397.025C395.987 35.7035 395.136 34.8532 395.136 33.8113V22.0965C395.136 21.0546 395.987 20.209 397.025 20.209L410.634 33.8113Z" fill="white"></path> <path fill-rule="evenodd" clip-rule="evenodd" d="M430 33.8113C430 34.8532 429.154 35.7035 428.108 35.7035H416.393C415.351 35.7035 414.507 34.8532 414.507 33.8113V22.0965C414.507 21.0546 415.351 20.209 416.393 20.209H428.108C429.154 20.209 430 21.0546 430 22.0965V33.8113Z" fill="white"></path> <path fill-rule="evenodd" clip-rule="evenodd" d="M391.261 14.4432C391.261 15.4851 390.417 16.3323 389.372 16.3323H377.653C376.614 16.3323 375.768 15.4851 375.768 14.4432V2.7238C375.768 1.68502 376.614 0.839355 377.653 0.839355L391.261 14.4432Z" fill="white"></path> <path fill-rule="evenodd" clip-rule="evenodd" d="M430 14.4432C430 15.4851 429.154 16.3323 428.108 16.3323H416.393C415.351 16.3323 414.507 15.4851 414.507 14.4432V2.7238C414.507 1.68502 415.351 0.839355 416.393 0.839355H428.108C429.154 0.839355 430 1.68502 430 2.7238V14.4432Z" fill="white"></path> <path fill-rule="evenodd" clip-rule="evenodd" d="M15.4945 168.735C15.4945 169.78 14.6457 170.629 13.6007 170.629H1.88601C0.845666 170.629 0 169.78 0 168.735V157.018C0 155.977 0.845666 155.131 1.88601 155.131H13.6007C14.6457 155.131 15.4945 155.977 15.4945 157.018V168.735Z" fill="white"></path> <path fill-rule="evenodd" clip-rule="evenodd" d="M15.4945 149.364C15.4945 150.409 14.6457 151.259 13.6007 151.259H1.88601C0.845666 151.259 0 150.409 0 149.364V137.651C0 136.61 0.845666 135.763 1.88601 135.763H13.6007C14.6457 135.763 15.4945 136.61 15.4945 137.651V149.364Z" fill="white"></path> <path fill-rule="evenodd" clip-rule="evenodd" d="M34.8606 149.364C34.8606 150.409 34.0165 151.259 32.97 151.259H21.2568C20.2149 151.259 19.3677 150.409 19.3677 149.364V137.651C19.3677 136.61 20.2149 135.763 21.2568 135.763H32.97C34.0165 135.763 34.8606 136.61 34.8606 137.651V149.364Z" fill="white"></path> <path fill-rule="evenodd" clip-rule="evenodd" d="M40.624 151.26C39.5836 151.26 38.7349 150.408 38.7349 149.364V137.653C38.7349 136.611 39.5836 135.765 40.624 135.765H52.3387C53.3853 135.765 54.2325 136.611 54.2325 137.653L40.624 151.26Z" fill="white"></path> <path fill-rule="evenodd" clip-rule="evenodd" d="M15.4945 129.996C15.4945 131.041 14.6457 131.888 13.6007 131.888H1.88601C0.845666 131.888 0 131.041 0 129.996V118.28C0 117.241 0.845666 116.392 1.88601 116.392H13.6007C14.6457 116.392 15.4945 117.241 15.4945 118.28V129.996Z" fill="white"></path> <path fill-rule="evenodd" clip-rule="evenodd" d="M54.231 129.996C54.231 131.041 53.3837 131.888 52.3387 131.888H40.624C39.5836 131.888 38.7349 131.041 38.7349 129.996V118.28C38.7349 117.241 39.5836 116.392 40.624 116.392H52.3387C53.3837 116.392 54.231 117.241 54.231 118.28V129.996Z" fill="white"></path> <path fill-rule="evenodd" clip-rule="evenodd" d="M15.4945 110.627C15.4945 111.669 14.6457 112.521 13.6007 112.521H1.88601C0.845666 112.521 0 111.669 0 110.627L13.6007 97.02C14.6457 97.02 15.4945 97.8688 15.4945 98.9107V110.627Z" fill="white"></path> <path fill-rule="evenodd" clip-rule="evenodd" d="M34.8606 110.627C34.8606 111.669 34.0165 112.521 32.97 112.521H21.2568C20.2149 112.521 19.3677 111.669 19.3677 110.627V98.9107C19.3677 97.8688 20.2149 97.02 21.2568 97.02H32.97C34.0165 97.02 34.8606 97.8688 34.8606 98.9107V110.627Z" fill="white"></path> <path fill-rule="evenodd" clip-rule="evenodd" d="M54.231 110.627C54.231 111.669 53.3837 112.521 52.3387 112.521H40.624C39.5836 112.521 38.7349 111.669 38.7349 110.627V98.9107C38.7349 97.8688 39.5836 97.02 40.624 97.02L54.231 110.627Z" fill="white"></path> <path fill-rule="evenodd" clip-rule="evenodd" d="M90.67 168.735C90.67 169.78 89.8197 170.629 88.7747 170.629L75.1724 157.018C75.1724 155.977 76.0196 155.131 77.063 155.131H88.7747C89.8197 155.131 90.67 155.977 90.67 157.018V168.735Z" fill="white"></path> <path fill-rule="evenodd" clip-rule="evenodd" d="M110.036 168.735C110.036 169.78 109.191 170.629 108.146 170.629H96.4279C95.3876 170.629 94.5435 169.78 94.5435 168.735V157.018C94.5435 155.977 95.3876 155.131 96.4279 155.131H108.146C109.191 155.131 110.036 155.977 110.036 157.018V168.735Z" fill="white"></path> <path fill-rule="evenodd" clip-rule="evenodd" d="M115.8 170.627C114.76 170.627 113.909 169.78 113.909 168.735V157.02C113.909 155.977 114.76 155.131 115.8 155.131H127.513C128.558 155.131 129.407 155.977 129.407 157.02L115.8 170.627Z" fill="white"></path> <path fill-rule="evenodd" clip-rule="evenodd" d="M90.67 149.364C90.67 150.409 89.8197 151.259 88.7747 151.259H77.063C76.0196 151.259 75.1724 150.409 75.1724 149.364V137.651C75.1724 136.61 76.0196 135.763 77.063 135.763H88.7747C89.8197 135.763 90.67 136.61 90.67 137.651V149.364Z" fill="white"></path> <path fill-rule="evenodd" clip-rule="evenodd" d="M129.407 149.364C129.407 150.409 128.558 151.259 127.513 151.259H115.8C114.76 151.259 113.909 150.409 113.909 149.364V137.651C113.909 136.61 114.76 135.763 115.8 135.763H127.513C128.558 135.763 129.407 136.61 129.407 137.651V149.364Z" fill="white"></path> <path fill-rule="evenodd" clip-rule="evenodd" d="M90.67 129.996C90.67 131.041 89.8197 131.888 88.7747 131.888H77.063C76.0196 131.888 75.1724 131.041 75.1724 129.996V118.28C75.1724 117.241 76.0196 116.392 77.063 116.392H88.7747C89.8197 116.392 90.67 117.241 90.67 118.28V129.996Z" fill="white"></path> <path fill-rule="evenodd" clip-rule="evenodd" d="M129.407 129.996C129.407 131.041 128.558 131.888 127.513 131.888H115.8C114.76 131.888 113.909 131.041 113.909 129.996V118.28C113.909 117.241 114.76 116.392 115.8 116.392H127.513C128.558 116.392 129.407 117.241 129.407 118.28V129.996Z" fill="white"></path> <path fill-rule="evenodd" clip-rule="evenodd" d="M90.67 110.627C90.67 111.669 89.8197 112.521 88.7747 112.521H77.063C76.0196 112.521 75.1724 111.669 75.1724 110.627V98.9107C75.1724 97.8688 76.0196 97.02 77.063 97.02L90.67 110.627Z" fill="white"></path> <path fill-rule="evenodd" clip-rule="evenodd" d="M129.407 110.627C129.407 111.669 128.558 112.521 127.513 112.521H115.8C114.76 112.521 113.909 111.669 113.909 110.627L127.513 97.02C128.558 97.02 129.407 97.8688 129.407 98.9107V110.627Z" fill="white"></path> <path fill-rule="evenodd" clip-rule="evenodd" d="M170.955 168.735C170.955 169.78 170.11 170.629 169.065 170.629L155.462 157.018C155.462 155.977 156.307 155.131 157.348 155.131H169.065C170.11 155.131 170.955 155.977 170.955 157.018V168.735Z" fill="white"></path> <path fill-rule="evenodd" clip-rule="evenodd" d="M190.326 168.735C190.326 169.78 189.476 170.629 188.431 170.629H176.718C175.677 170.629 174.827 169.78 174.827 168.735V157.018C174.827 155.977 175.677 155.131 176.718 155.131H188.431C189.476 155.131 190.326 155.977 190.326 157.018V168.735Z" fill="white"></path> <path fill-rule="evenodd" clip-rule="evenodd" d="M209.692 168.735C209.692 169.78 208.848 170.629 207.802 170.629H196.088C195.045 170.629 194.199 169.78 194.199 168.735V157.018C194.199 155.977 195.045 155.131 196.088 155.131L209.692 168.735Z" fill="white"></path> <path fill-rule="evenodd" clip-rule="evenodd" d="M170.955 149.364C170.955 150.409 170.11 151.259 169.065 151.259H157.348C156.307 151.259 155.462 150.409 155.462 149.364L169.065 135.763C170.11 135.763 170.955 136.61 170.955 137.651V149.364Z" fill="white"></path> <path fill-rule="evenodd" clip-rule="evenodd" d="M176.718 151.26C175.677 151.26 174.827 150.408 174.827 149.364V137.653C174.827 136.611 175.677 135.765 176.718 135.765H188.431C189.476 135.765 190.326 136.611 190.326 137.653L176.718 151.26Z" fill="white"></path> <path fill-rule="evenodd" clip-rule="evenodd" d="M190.326 129.996C190.326 131.041 189.476 131.888 188.431 131.888H176.718C175.677 131.888 174.827 131.041 174.827 129.996L188.431 116.392C189.476 116.392 190.326 117.241 190.326 118.28V129.996Z" fill="white"></path> <path fill-rule="evenodd" clip-rule="evenodd" d="M196.088 131.889C195.045 131.889 194.199 131.041 194.199 129.996V118.278C194.199 117.241 195.045 116.394 196.088 116.394H207.802C208.847 116.394 209.692 117.241 209.692 118.278L196.088 131.889Z" fill="white"></path> <path fill-rule="evenodd" clip-rule="evenodd" d="M170.955 110.627C170.955 111.669 170.11 112.521 169.065 112.521L155.462 98.9107C155.462 97.8688 156.307 97.02 157.348 97.02H169.065C170.11 97.02 170.955 97.8688 170.955 98.9107V110.627Z" fill="white"></path> <path fill-rule="evenodd" clip-rule="evenodd" d="M190.326 110.627C190.326 111.669 189.476 112.521 188.431 112.521H176.718C175.677 112.521 174.827 111.669 174.827 110.627V98.9107C174.827 97.8688 175.677 97.02 176.718 97.02H188.431C189.476 97.02 190.326 97.8688 190.326 98.9107V110.627Z" fill="white"></path> <path fill-rule="evenodd" clip-rule="evenodd" d="M209.692 110.627C209.692 111.669 208.848 112.521 207.802 112.521H196.088C195.045 112.521 194.199 111.669 194.199 110.627V98.9107C194.199 97.8688 195.045 97.02 196.088 97.02L209.692 110.627Z" fill="white"></path> <path fill-rule="evenodd" clip-rule="evenodd" d="M241.245 168.735C241.245 169.78 240.398 170.629 239.353 170.629L225.751 157.018C225.751 155.977 226.6 155.131 227.639 155.131H239.353C240.398 155.131 241.245 155.977 241.245 157.018V168.735Z" fill="white"></path> <path fill-rule="evenodd" clip-rule="evenodd" d="M260.616 168.735C260.616 169.78 259.767 170.629 258.722 170.629H247.007C245.967 170.629 245.121 169.78 245.121 168.735V157.018C245.121 155.977 245.967 155.131 247.007 155.131H258.722C259.767 155.131 260.616 155.977 260.616 157.018V168.735Z" fill="white"></path> <path fill-rule="evenodd" clip-rule="evenodd" d="M279.985 168.735C279.985 169.78 279.135 170.629 278.09 170.629H266.377C265.335 170.629 264.488 169.78 264.488 168.735V157.018C264.488 155.977 265.335 155.131 266.377 155.131L279.985 168.735Z" fill="white"></path> <path fill-rule="evenodd" clip-rule="evenodd" d="M241.245 149.364C241.245 150.409 240.398 151.259 239.353 151.259H227.639C226.6 151.259 225.751 150.409 225.751 149.364L239.353 135.763C240.398 135.763 241.245 136.61 241.245 137.651V149.364Z" fill="white"></path> <path fill-rule="evenodd" clip-rule="evenodd" d="M247.006 151.26C245.966 151.26 245.119 150.408 245.119 149.364V137.653C245.119 136.611 245.966 135.765 247.006 135.765H258.721C259.766 135.765 260.615 136.611 260.615 137.653L247.006 151.26Z" fill="white"></path> <path fill-rule="evenodd" clip-rule="evenodd" d="M260.616 129.996C260.616 131.041 259.767 131.888 258.722 131.888H247.007C245.967 131.888 245.121 131.041 245.121 129.996L258.722 116.392C259.767 116.392 260.616 117.241 260.616 118.28V129.996Z" fill="white"></path> <path fill-rule="evenodd" clip-rule="evenodd" d="M266.377 131.889C265.335 131.889 264.488 131.041 264.488 129.996V118.278C264.488 117.241 265.335 116.394 266.377 116.394H278.09C279.135 116.394 279.984 117.241 279.984 118.278L266.377 131.889Z" fill="white"></path> <path fill-rule="evenodd" clip-rule="evenodd" d="M241.245 110.627C241.245 111.669 240.398 112.521 239.353 112.521L225.751 98.9107C225.751 97.8688 226.6 97.02 227.639 97.02H239.353C240.398 97.02 241.245 97.8688 241.245 98.9107V110.627Z" fill="white"></path> <path fill-rule="evenodd" clip-rule="evenodd" d="M260.616 110.627C260.616 111.669 259.767 112.521 258.722 112.521H247.007C245.967 112.521 245.121 111.669 245.121 110.627V98.9107C245.121 97.8688 245.967 97.02 247.007 97.02H258.722C259.767 97.02 260.616 97.8688 260.616 98.9107V110.627Z" fill="white"></path> <path fill-rule="evenodd" clip-rule="evenodd" d="M279.985 110.627C279.985 111.669 279.135 112.521 278.09 112.521H266.377C265.335 112.521 264.488 111.669 264.488 110.627V98.9107C264.488 97.8688 265.335 97.02 266.377 97.02L279.985 110.627Z" fill="white"></path> <path fill-rule="evenodd" clip-rule="evenodd" d="M321.532 168.735C321.532 169.78 320.688 170.629 319.643 170.629H307.925C306.889 170.629 306.039 169.78 306.039 168.735V157.018C306.039 155.977 306.889 155.131 307.925 155.131H319.643C320.688 155.131 321.532 155.977 321.532 157.018V168.735Z" fill="white"></path> <path fill-rule="evenodd" clip-rule="evenodd" d="M340.903 168.735C340.903 169.78 340.056 170.629 339.011 170.629H327.296C326.257 170.629 325.41 169.78 325.41 168.735V157.018C325.41 155.977 326.257 155.131 327.296 155.131H339.011C340.056 155.131 340.903 155.977 340.903 157.018V168.735Z" fill="white"></path> <path fill-rule="evenodd" clip-rule="evenodd" d="M360.273 168.735C360.273 169.78 359.426 170.629 358.379 170.629H346.669C345.625 170.629 344.78 169.78 344.78 168.735V157.018C344.78 155.977 345.625 155.131 346.669 155.131L360.273 168.735Z" fill="white"></path> <path fill-rule="evenodd" clip-rule="evenodd" d="M321.532 149.364C321.532 150.409 320.688 151.259 319.643 151.259H307.925C306.889 151.259 306.039 150.409 306.039 149.364V137.651C306.039 136.61 306.889 135.763 307.925 135.763H319.643C320.688 135.763 321.532 136.61 321.532 137.651V149.364Z" fill="white"></path> <path fill-rule="evenodd" clip-rule="evenodd" d="M321.532 129.996C321.532 131.041 320.688 131.888 319.643 131.888H307.925C306.889 131.888 306.039 131.041 306.039 129.996V118.28C306.039 117.241 306.889 116.392 307.925 116.392H319.643C320.688 116.392 321.532 117.241 321.532 118.28V129.996Z" fill="white"></path> <path fill-rule="evenodd" clip-rule="evenodd" d="M321.532 110.627C321.532 111.669 320.688 112.521 319.643 112.521H307.925C306.889 112.521 306.039 111.669 306.039 110.627L319.643 97.02C320.688 97.02 321.532 97.8688 321.532 98.9107V110.627Z" fill="white"></path> <path fill-rule="evenodd" clip-rule="evenodd" d="M410.634 139.679C410.634 140.725 409.787 141.574 408.74 141.574H397.025C395.987 141.574 395.136 140.725 395.136 139.679V127.964C395.136 126.923 395.987 126.075 397.025 126.075H408.74C409.787 126.075 410.634 126.923 410.634 127.964V139.679Z" fill="white"></path> <path fill-rule="evenodd" clip-rule="evenodd" d="M391.261 168.735C391.261 169.78 390.417 170.629 389.372 170.629L375.768 157.018C375.768 155.977 376.614 155.131 377.653 155.131H389.372C390.417 155.131 391.261 155.977 391.261 157.018V168.735Z" fill="white"></path> <path fill-rule="evenodd" clip-rule="evenodd" d="M410.634 168.735C410.634 169.78 409.787 170.629 408.74 170.629H397.025C395.987 170.629 395.136 169.78 395.136 168.735V157.018C395.136 155.977 395.987 155.131 397.025 155.131H408.74C409.787 155.131 410.634 155.977 410.634 157.018V168.735Z" fill="white"></path> <path fill-rule="evenodd" clip-rule="evenodd" d="M416.393 170.627C415.351 170.627 414.507 169.78 414.507 168.735V157.02C414.507 155.977 415.351 155.131 416.393 155.131H428.109C429.154 155.131 430 155.977 430 157.02L416.393 170.627Z" fill="white"></path> <path fill-rule="evenodd" clip-rule="evenodd" d="M391.261 149.364C391.261 150.409 390.417 151.259 389.372 151.259H377.653C376.614 151.259 375.768 150.409 375.768 149.364V137.651C375.768 136.61 376.614 135.763 377.653 135.763H389.372C390.417 135.763 391.261 136.61 391.261 137.651V149.364Z" fill="white"></path> <path fill-rule="evenodd" clip-rule="evenodd" d="M391.261 129.996C391.261 131.041 390.417 131.888 389.372 131.888H377.653C376.614 131.888 375.768 131.041 375.768 129.996V118.28C375.768 117.241 376.614 116.392 377.653 116.392H389.372C390.417 116.392 391.261 117.241 391.261 118.28V129.996Z" fill="white"></path> <path fill-rule="evenodd" clip-rule="evenodd" d="M391.261 110.627C391.261 111.669 390.417 112.521 389.372 112.521H377.653C376.614 112.521 375.768 111.669 375.768 110.627L389.372 97.02C390.417 97.02 391.261 97.8688 391.261 98.9107V110.627Z" fill="white"></path> <path fill-rule="evenodd" clip-rule="evenodd" d="M410.634 110.627C410.634 111.669 409.787 112.521 408.74 112.521H397.025C395.987 112.521 395.136 111.669 395.136 110.627V98.9107C395.136 97.8688 395.987 97.02 397.025 97.02H408.74C409.787 97.02 410.634 97.8688 410.634 98.9107V110.627Z" fill="white"></path> <path fill-rule="evenodd" clip-rule="evenodd" d="M430 110.627C430 111.669 429.154 112.521 428.108 112.521H416.393C415.351 112.521 414.507 111.669 414.507 110.627V98.9107C414.507 97.8688 415.351 97.02 416.393 97.02L430 110.627Z" fill="white"></path> <path d="M1.47073 268.585H5.40848L8.16016 254.115H19.4516L20.1158 250.746H8.77692L10.8644 239.977H23.1521L23.7688 236.609H7.54341L1.47073 268.585ZM26.3004 268.585L30.7125 245.623H26.7748L22.3626 268.585H26.3004ZM29.7637 241.685C31.2819 241.685 32.373 240.594 32.4205 239.028C32.4205 237.605 31.5191 236.561 30.0958 236.561C28.6725 236.561 27.5339 237.7 27.4864 239.218C27.4864 240.641 28.3878 241.685 29.7162 241.685H29.7637ZM37.1418 268.585L39.2293 257.436C40.273 251.743 44.2582 248.374 47.0573 248.374C49.7616 248.374 50.663 250.082 50.663 252.407C50.663 253.356 50.5207 254.447 50.3309 255.348L47.8164 268.585H51.7542L54.3161 255.206C54.5533 253.973 54.7431 252.502 54.7431 251.506C54.7431 246.666 51.6593 245.101 48.9076 245.101C45.5392 245.101 42.4554 246.904 40.4153 250.13H40.3205L40.8898 245.623H37.379C37.0943 247.52 36.8097 249.75 36.2878 252.312L33.204 268.585H37.1418ZM79.0423 234.901L77.0023 245.907C76.006 245.433 74.3929 245.101 72.9222 245.101C64.8095 245.101 58.7368 252.597 58.7368 260.757C58.7368 265.454 61.1564 269.107 65.616 269.107C68.8895 269.107 71.7836 267.304 73.871 264.03H73.9659L73.3492 268.585H76.9548C77.0972 266.355 77.4767 263.698 77.9511 261.326L82.9801 234.901H79.0423ZM74.8199 257.246C73.8236 262.417 70.1705 265.881 67.1342 265.881C63.7657 265.881 62.8169 262.987 62.8169 260.235C62.8169 254.115 67.0867 248.279 72.5901 248.279C74.2506 248.279 75.579 248.706 76.3855 249.228L74.8199 257.246ZM109.787 258.48L111.068 268.585H115.1L110.688 236.609H106.039L89.4812 268.585H93.6562L98.7326 258.48H109.787ZM100.156 255.348L104.948 246.05C105.896 244.104 106.703 242.112 107.557 240.214H107.652C107.794 242.112 108.031 244.437 108.221 246.097L109.455 255.348H100.156ZM123.329 268.585L127.125 248.754H132.201L132.818 245.623H127.694L127.884 244.531C128.548 240.736 130.066 237.7 133.198 237.7C134.099 237.7 134.905 237.842 135.522 238.127L136.376 234.995C135.854 234.663 134.811 234.379 133.245 234.379C131.252 234.379 129.212 235.09 127.789 236.419C125.702 238.269 124.563 241.21 124.041 244.437L123.804 245.623H120.72L120.151 248.754H123.187L119.439 268.585H123.329ZM136.244 268.585L138.141 258.48C139.138 253.119 142.174 248.991 145.59 248.991C146.017 248.991 146.396 249.039 146.633 249.086L147.393 245.196C147.108 245.148 146.633 245.101 146.301 245.101C143.218 245.101 140.751 247.473 139.28 250.604H139.138C139.375 248.849 139.565 247.236 139.754 245.623H136.291C136.054 247.758 135.674 250.794 135.105 253.783L132.306 268.585H136.244ZM151.347 268.585L155.76 245.623H151.822L147.41 268.585H151.347ZM154.811 241.685C156.329 241.685 157.42 240.594 157.467 239.028C157.467 237.605 156.566 236.561 155.143 236.561C153.72 236.561 152.581 237.7 152.533 239.218C152.533 240.641 153.435 241.685 154.763 241.685H154.811ZM173.67 264.552C172.484 265.122 170.681 265.833 168.356 265.833C164.608 265.833 162.663 263.414 162.663 259.713C162.663 254.305 166.411 248.422 172.389 248.422C174.097 248.422 175.378 248.849 176.279 249.276L177.418 246.145C176.706 245.765 174.761 245.148 172.626 245.148C164.371 245.148 158.583 252.36 158.583 260.188C158.583 265.074 161.477 269.107 167.407 269.107C170.491 269.107 172.863 268.253 174.049 267.684L173.67 264.552ZM196.5 268.585C196.405 266.023 196.737 261.943 197.496 257.958L199.821 246.002C198.255 245.48 195.835 245.101 193.653 245.101C183.643 245.101 177.76 253.546 177.76 261.516C177.76 265.881 180.322 269.107 184.354 269.107C187.628 269.107 190.759 267.399 193.273 262.655H193.368C193.084 265.027 192.846 267.209 192.846 268.585H196.5ZM194.08 255.491C192.941 261.611 189.051 265.881 185.778 265.881C182.741 265.881 181.84 263.366 181.84 260.804C181.887 254.447 186.726 248.232 192.657 248.232C193.985 248.232 194.839 248.422 195.408 248.564L194.08 255.491ZM227.01 264.315C225.587 265.074 223.547 265.928 220.843 265.928C218.47 265.928 216.62 264.884 215.719 262.844C215.197 261.611 215.055 259.476 215.244 258.48C223.737 258.622 230.521 257.009 230.521 250.984C230.521 247.71 228.149 245.101 223.784 245.101C216.383 245.101 211.259 252.929 211.259 259.855C211.259 264.932 213.916 269.107 219.989 269.107C223.072 269.107 225.871 268.253 227.579 267.257L227.01 264.315ZM226.725 251.126C226.725 254.684 221.886 255.491 215.719 255.443C216.668 251.838 219.467 248.185 223.215 248.185C225.302 248.185 226.725 249.228 226.725 251.079V251.126ZM233.611 245.623L237.596 268.585H241.486L254.248 245.623H249.931L242.909 259.002C241.581 261.611 240.964 263.129 240.49 264.363H240.347C240.253 263.082 239.968 261.326 239.636 258.717L237.643 245.623H233.611ZM269.727 264.315C268.304 265.074 266.264 265.928 263.56 265.928C261.187 265.928 259.337 264.884 258.436 262.844C257.914 261.611 257.772 259.476 257.961 258.48C266.454 258.622 273.238 257.009 273.238 250.984C273.238 247.71 270.866 245.101 266.501 245.101C259.1 245.101 253.976 252.929 253.976 259.855C253.976 264.932 256.633 269.107 262.706 269.107C265.789 269.107 268.589 268.253 270.296 267.257L269.727 264.315ZM269.443 251.126C269.443 254.684 264.603 255.491 258.436 255.443C259.385 251.838 262.184 248.185 265.932 248.185C268.019 248.185 269.443 249.228 269.443 251.079V251.126ZM279.174 268.585L281.072 258.48C282.068 253.119 285.105 248.991 288.52 248.991C288.947 248.991 289.327 249.039 289.564 249.086L290.323 245.196C290.039 245.148 289.564 245.101 289.232 245.101C286.148 245.101 283.681 247.473 282.211 250.604H282.068C282.305 248.849 282.495 247.236 282.685 245.623H279.222C278.984 247.758 278.605 250.794 278.036 253.783L275.236 268.585H279.174ZM292.216 245.623L296.818 267.209C296.865 267.589 296.865 267.873 296.675 268.253C295.442 270.483 293.781 272.333 292.263 273.519C290.698 274.753 289.037 275.369 288.041 275.749L288.99 279.117C290.318 278.833 293.117 277.741 295.679 275.132C298.81 272.096 301.135 268.063 303.602 263.082L312.189 245.623H308.014L302.179 258.432C300.993 260.947 300.329 262.56 299.712 264.03H299.617C299.38 262.323 299.095 260.615 298.573 257.958L296.296 245.623H292.216ZM314.423 245.623L316.558 268.585H320.211L326.805 256.013C327.849 253.973 328.513 252.217 329.462 250.035H329.557C329.557 252.027 329.652 253.973 329.889 256.108L331.407 268.585H335.06L346.399 245.623H342.414L336.199 258.907C335.298 261.089 334.633 262.844 334.017 264.695H333.922C333.969 263.176 333.779 261.231 333.542 258.717L332.119 245.623H328.703L321.871 258.954C320.733 261.231 319.879 263.224 319.357 264.695H319.214C319.262 262.844 319.309 261.374 319.12 258.527L318.313 245.623H314.423ZM350.338 268.585L352.473 257.104C353.422 251.933 357.265 248.374 360.301 248.374C362.863 248.374 363.86 250.035 363.86 252.17C363.86 253.451 363.717 254.494 363.575 255.348L361.013 268.585H364.951L367.513 255.159C367.75 253.973 367.892 252.502 367.892 251.268C367.892 246.714 364.809 245.101 362.199 245.101C358.736 245.101 355.937 246.904 353.992 249.703H353.897L356.743 234.901H352.805L346.401 268.585H350.338ZM387.732 264.315C386.309 265.074 384.269 265.928 381.564 265.928C379.192 265.928 377.342 264.884 376.44 262.844C375.919 261.611 375.776 259.476 375.966 258.48C384.458 258.622 391.243 257.009 391.243 250.984C391.243 247.71 388.871 245.101 384.506 245.101C377.105 245.101 371.981 252.929 371.981 259.855C371.981 264.932 374.638 269.107 380.71 269.107C383.794 269.107 386.593 268.253 388.301 267.257L387.732 264.315ZM387.447 251.126C387.447 254.684 382.608 255.491 376.44 255.443C377.389 251.838 380.188 248.185 383.936 248.185C386.024 248.185 387.447 249.228 387.447 251.079V251.126ZM397.179 268.585L399.077 258.48C400.073 253.119 403.109 248.991 406.525 248.991C406.952 248.991 407.332 249.039 407.569 249.086L408.328 245.196C408.043 245.148 407.569 245.101 407.237 245.101C404.153 245.101 401.686 247.473 400.215 250.604H400.073C400.31 248.849 400.5 247.236 400.69 245.623H397.226C396.989 247.758 396.61 250.794 396.04 253.783L393.241 268.585H397.179ZM424.055 264.315C422.632 265.074 420.592 265.928 417.888 265.928C415.516 265.928 413.665 264.884 412.764 262.844C412.242 261.611 412.1 259.476 412.289 258.48C420.782 258.622 427.566 257.009 427.566 250.984C427.566 247.71 425.194 245.101 420.829 245.101C413.428 245.101 408.304 252.929 408.304 259.855C408.304 264.932 410.961 269.107 417.034 269.107C420.118 269.107 422.917 268.253 424.625 267.257L424.055 264.315ZM423.771 251.126C423.771 254.684 418.931 255.491 412.764 255.443C413.713 251.838 416.512 248.185 420.26 248.185C422.347 248.185 423.771 249.228 423.771 251.079V251.126Z" fill="white"></path> </svg> 