<?xml version="1.0" encoding="UTF-8"?> <svg xmlns="http://www.w3.org/2000/svg" width="125" height="45" viewBox="0 0 125 45" fill="none"> <path d="M25.2656 44.4447C25.2656 44.6146 25.1283 44.753 24.9584 44.753H24.9562H22.9942C22.8243 44.7541 22.6859 44.6168 22.6848 44.447V44.4447V42.4838C22.6848 42.3128 22.8221 42.1745 22.9919 42.1733H22.9942H24.9562C25.1261 42.1722 25.2644 42.3106 25.2656 42.4805V42.4838V44.4447Z" fill="#8C30F5"></path> <path d="M25.2656 44.4447C25.2656 44.6146 25.1283 44.753 24.9584 44.753H24.9562H22.9942C22.8243 44.7541 22.6859 44.6168 22.6848 44.447V44.4447V42.4838C22.6848 42.3128 22.8221 42.1745 22.9919 42.1733H22.9942H24.9562C25.1261 42.1722 25.2644 42.3106 25.2656 42.4805V42.4838V44.4447Z" fill="#8C30F5"></path> <path d="M26.2288 44.7541C26.0589 44.7541 25.9194 44.6168 25.9194 44.447V44.4447V42.4827C25.9183 42.3128 26.0556 42.1745 26.2254 42.1733H26.2288H28.1886C28.3596 42.1733 28.4991 42.3106 28.4991 42.4805V42.4827L26.2288 44.7541Z" fill="#8C30F5"></path> <path d="M25.2656 41.1937C25.2656 41.3625 25.1283 41.502 24.9584 41.502H24.9562H22.9942C22.8243 41.5031 22.6859 41.3659 22.6848 41.196V41.1937V39.2329C22.6848 39.0619 22.8221 38.9235 22.9919 38.9224H22.9942H24.9562C25.1261 38.9212 25.2644 39.0596 25.2656 39.2295V39.2329V41.1937Z" fill="#8C30F5"></path> <path d="M28.5163 41.1937C28.5163 41.3625 28.379 41.502 28.2092 41.502H28.2069H26.2449C26.075 41.5031 25.9367 41.3659 25.9355 41.196V41.1937V39.2329C25.9355 39.0619 26.0728 38.9235 26.2427 38.9224H26.2449H28.2069C28.3768 38.9212 28.5152 39.0607 28.5163 39.2306V39.2329V41.1937Z" fill="#8C30F5"></path> <path d="M22.0319 41.194C22.0319 41.3639 21.8947 41.5023 21.7248 41.5023H21.7226L19.4512 39.2151C19.4501 39.0453 19.5873 38.9069 19.7583 38.9058H19.7606H21.7046C21.8744 38.9058 22.0128 39.043 22.0139 39.2129V39.2151V41.194H22.0319Z" fill="#8C30F5"></path> <path d="M25.2656 41.1937C25.2656 41.3625 25.1283 41.502 24.9584 41.502H24.9562H22.9942C22.8243 41.5031 22.6859 41.3659 22.6848 41.196V41.1937V39.2329C22.6848 39.0619 22.8221 38.9235 22.9919 38.9224H22.9942H24.9562C25.1261 38.9212 25.2644 39.0596 25.2656 39.2295V39.2329V41.1937Z" fill="#8C30F5"></path> <path d="M28.5163 41.1937C28.5163 41.3625 28.379 41.502 28.2092 41.502H28.2069H26.2449C26.075 41.5031 25.9367 41.3659 25.9355 41.196V41.1937V39.2329C25.9355 39.0619 26.0728 38.9235 26.2427 38.9224H26.2449H28.2069C28.3768 38.9212 28.5152 39.0607 28.5163 39.2306V39.2329V41.1937Z" fill="#8C30F5"></path> <path d="M29.4786 41.5201C29.3087 41.5212 29.1703 41.3839 29.1692 41.2141V41.2107V39.2487C29.1692 39.0788 29.3064 38.9404 29.4763 38.9404H29.4786H31.4394C31.6104 38.9393 31.7488 39.0766 31.7499 39.2464V39.2487L29.4786 41.5201Z" fill="#8C30F5"></path> <path d="M22.0319 37.9592C22.0319 38.1291 21.8947 38.2675 21.7248 38.2686H21.7226H19.7606C19.5907 38.2697 19.4523 38.1325 19.4512 37.9626V37.9592V35.9995C19.4501 35.8285 19.5873 35.689 19.7583 35.689H19.7606H21.7046C21.8744 35.6878 22.0128 35.8262 22.0139 35.9961V35.9995V37.9592H22.0319Z" fill="#8C30F5"></path> <path d="M25.2656 37.9592C25.2656 38.1291 25.1283 38.2675 24.9584 38.2686H24.9562H22.9942C22.8243 38.2697 22.6859 38.1325 22.6848 37.9626V37.9592V35.9995C22.6848 35.8285 22.8221 35.689 22.9919 35.689H22.9942H24.9562C25.1261 35.6878 25.2644 35.8262 25.2656 35.9961V35.9995V37.9592Z" fill="#8C30F5"></path> <path d="M28.5163 37.9592C28.5163 38.1291 28.379 38.2675 28.2092 38.2686H28.2069H26.2449C26.075 38.2697 25.9367 38.1325 25.9355 37.9626V37.9592V35.9995C25.9355 35.8285 26.0728 35.689 26.2427 35.689H26.2449H28.2069C28.3768 35.6878 28.5152 35.8262 28.5163 35.9961V35.9995V37.9592Z" fill="#8C30F5"></path> <path d="M31.767 37.9592C31.767 38.1291 31.6298 38.2675 31.4599 38.2686H31.4577H29.4957C29.3258 38.2697 29.1874 38.1325 29.1863 37.9626V37.9592V35.9995C29.1852 35.8285 29.3235 35.689 29.4934 35.689H29.4957H31.4577C31.6275 35.6878 31.7659 35.8262 31.767 35.9961V35.9995V37.9592Z" fill="#8C30F5"></path> <path d="M22.0319 37.9592C22.0319 38.1291 21.8947 38.2675 21.7248 38.2686H21.7226H19.7606C19.5907 38.2697 19.4523 38.1325 19.4512 37.9626V37.9592V35.9995C19.4501 35.8285 19.5873 35.689 19.7583 35.689H19.7606H21.7046C21.8744 35.6878 22.0128 35.8262 22.0139 35.9961V35.9995V37.9592H22.0319Z" fill="#8C30F5"></path> <path d="M25.2656 37.9592C25.2656 38.1291 25.1283 38.2675 24.9584 38.2686H24.9562H22.9942C22.8243 38.2697 22.6859 38.1325 22.6848 37.9626V37.9592V35.9995C22.6848 35.8285 22.8221 35.689 22.9919 35.689H22.9942H24.9562C25.1261 35.6878 25.2644 35.8262 25.2656 35.9961V35.9995V37.9592Z" fill="#8C30F5"></path> <path d="M28.5163 37.9592C28.5163 38.1291 28.379 38.2675 28.2092 38.2686H28.2069H26.2449C26.075 38.2697 25.9367 38.1325 25.9355 37.9626V37.9592V35.9995C25.9355 35.8285 26.0728 35.689 26.2427 35.689H26.2449H28.2069C28.3768 35.6878 28.5152 35.8262 28.5163 35.9961V35.9995V37.9592Z" fill="#8C30F5"></path> <path d="M31.767 37.9592C31.767 38.1291 31.6298 38.2675 31.4599 38.2686H31.4577H29.4957C29.3258 38.2697 29.1874 38.1325 29.1863 37.9626V37.9592V35.9995C29.1852 35.8285 29.3235 35.689 29.4934 35.689H29.4957H31.4577C31.6275 35.6878 31.7659 35.8262 31.767 35.9961V35.9995V37.9592Z" fill="#8C30F5"></path> <path d="M39.1971 38.0806C39.0272 38.0817 38.8888 37.9434 38.8877 37.7746V37.7712V35.8104C38.8866 35.6405 39.025 35.501 39.1948 35.501H39.1971H41.158C41.329 35.4999 41.4673 35.6371 41.4673 35.807V35.8104L39.1971 38.0806Z" fill="#8C30F5"></path> <path d="M22.0319 34.7082C22.0319 34.8781 21.8947 35.0176 21.7248 35.0176H21.7226H19.7606C19.5907 35.0187 19.4523 34.8815 19.4512 34.7116V34.7082V32.7485C19.4501 32.5775 19.5873 32.438 19.7583 32.438H19.7606H21.7046C21.8744 32.4369 22.0128 32.5752 22.0139 32.7451V32.7485V34.7082H22.0319Z" fill="#8C30F5"></path> <path d="M25.2656 34.7082C25.2656 34.8781 25.1283 35.0176 24.9584 35.0176H24.9562H22.9942C22.8243 35.0187 22.6859 34.8815 22.6848 34.7116V34.7082V32.7485C22.6848 32.5775 22.8221 32.438 22.9919 32.438H22.9942H24.9562C25.1261 32.4369 25.2644 32.5752 25.2656 32.7451V32.7485V34.7082Z" fill="#8C30F5"></path> <path d="M28.5163 34.7082C28.5163 34.8781 28.379 35.0176 28.2092 35.0176H28.2069H26.2449C26.075 35.0187 25.9367 34.8815 25.9355 34.7116V34.7082V32.7485C25.9355 32.5775 26.0728 32.438 26.2427 32.438H26.2449H28.2069C28.3768 32.4369 28.5152 32.5752 28.5163 32.7451V32.7485V34.7082Z" fill="#8C30F5"></path> <path d="M31.767 34.7082C31.767 34.8781 31.6298 35.0176 31.4599 35.0176H31.4577H29.4957C29.3258 35.0187 29.1874 34.8815 29.1863 34.7116V34.7082V32.7485C29.1852 32.5775 29.3224 32.438 29.4934 32.438H29.4957H31.4577C31.6275 32.4369 31.7659 32.5752 31.767 32.7451V32.7485V34.7082Z" fill="#8C30F5"></path> <path d="M41.4847 34.7082C41.4858 34.8781 41.3485 35.0176 41.1787 35.0176H41.1753H39.2144C39.0445 35.0187 38.9062 34.8815 38.905 34.7116V34.7082V32.7485C38.9039 32.5775 39.0412 32.438 39.211 32.438H39.2144H41.1753C41.3452 32.4369 41.4847 32.5752 41.4847 32.7451V32.7485V34.7082Z" fill="#8C30F5"></path> <path d="M22.0319 34.7082C22.0319 34.8781 21.8947 35.0176 21.7248 35.0176H21.7226H19.7606C19.5907 35.0187 19.4523 34.8815 19.4512 34.7116V34.7082V32.7485C19.4501 32.5775 19.5873 32.438 19.7583 32.438H19.7606H21.7046C21.8744 32.4369 22.0128 32.5752 22.0139 32.7451V32.7485V34.7082H22.0319Z" fill="#8C30F5"></path> <path d="M25.2656 34.7082C25.2656 34.8781 25.1283 35.0176 24.9584 35.0176H24.9562H22.9942C22.8243 35.0187 22.6859 34.8815 22.6848 34.7116V34.7082V32.7485C22.6848 32.5775 22.8221 32.438 22.9919 32.438H22.9942H24.9562C25.1261 32.4369 25.2644 32.5752 25.2656 32.7451V32.7485V34.7082Z" fill="#8C30F5"></path> <path d="M28.5163 34.7082C28.5163 34.8781 28.379 35.0176 28.2092 35.0176H28.2069H26.2449C26.075 35.0187 25.9367 34.8815 25.9355 34.7116V34.7082V32.7485C25.9355 32.5775 26.0728 32.438 26.2427 32.438H26.2449H28.2069C28.3768 32.4369 28.5152 32.5752 28.5163 32.7451V32.7485V34.7082Z" fill="#8C30F5"></path> <path d="M31.767 34.7082C31.767 34.8781 31.6298 35.0176 31.4599 35.0176H31.4577H29.4957C29.3258 35.0187 29.1874 34.8815 29.1863 34.7116V34.7082V32.7485C29.1852 32.5775 29.3224 32.438 29.4934 32.438H29.4957H31.4577C31.6275 32.4369 31.7659 32.5752 31.767 32.7451V32.7485V34.7082Z" fill="#8C30F5"></path> <path d="M32.7295 35.0357C32.5597 35.0368 32.4213 34.8996 32.4202 34.7297V34.7263V32.7654C32.4202 32.5956 32.5574 32.4572 32.7273 32.4561H32.7295H34.6904C34.8614 32.4549 34.9998 32.5922 35.0009 32.7621V32.7654L32.7295 35.0357Z" fill="#8C30F5"></path> <path d="M41.4668 34.5198C41.468 34.6896 41.3307 34.828 41.1608 34.8291H41.1586H39.1966C39.0267 34.8303 38.8883 34.6919 38.8872 34.522V34.5198V32.5589C38.8872 32.3879 39.0245 32.2495 39.1943 32.2495H39.1966H41.1586C41.3285 32.2484 41.4668 32.3868 41.4668 32.5566V32.5589V34.5198Z" fill="#8C30F5"></path> <path d="M22.0319 31.4748C22.0319 31.6447 21.8947 31.7831 21.7248 31.7842H21.7226H19.7606C19.5907 31.7853 19.4523 31.6481 19.4512 31.4782V31.4748V29.514C19.4501 29.3441 19.5873 29.2046 19.7583 29.2046H19.7606H21.7046C21.8744 29.2035 22.0128 29.3418 22.0139 29.5117V29.514V31.4748H22.0319Z" fill="#8C30F5"></path> <path d="M25.2656 31.4748C25.2656 31.6447 25.1283 31.7831 24.9584 31.7842H24.9562H22.9942C22.8243 31.7853 22.6859 31.647 22.6848 31.4771V31.4748V29.514C22.6848 29.3441 22.8221 29.2046 22.9919 29.2046H22.9942H24.9562C25.1261 29.2035 25.2644 29.3418 25.2656 29.5117V29.514V31.4748Z" fill="#8C30F5"></path> <path d="M28.5163 31.4748C28.5163 31.6447 28.379 31.7831 28.2092 31.7842H28.2069H26.2449C26.075 31.7853 25.9367 31.6481 25.9355 31.4782V31.4748V29.514C25.9355 29.3441 26.0728 29.2046 26.2427 29.2046H26.2449H28.2069C28.3768 29.2035 28.5152 29.3418 28.5163 29.5117V29.514V31.4748Z" fill="#8C30F5"></path> <path d="M31.767 31.4748C31.767 31.6447 31.6298 31.7831 31.4599 31.7842H31.4577H29.4957C29.3258 31.7853 29.1874 31.6481 29.1863 31.4782V31.4748V29.514C29.1852 29.3441 29.3235 29.2046 29.4934 29.2046H29.4957H31.4577C31.6275 29.2035 31.7659 29.3418 31.767 29.5117V29.514V31.4748Z" fill="#8C30F5"></path> <path d="M35.0002 31.4748C35.0002 31.6447 34.8629 31.7831 34.6931 31.7842H34.6908H32.7288C32.5589 31.7853 32.4206 31.647 32.4194 31.4771V31.4748V29.514C32.4194 29.3441 32.5567 29.2046 32.7266 29.2046H32.7288H34.6908C34.8607 29.2035 34.9991 29.3418 35.0002 29.5117V29.514V31.4748Z" fill="#8C30F5"></path> <path d="M41.4668 31.2691C41.468 31.4389 41.3307 31.5773 41.1608 31.5784H41.1586H39.1966C39.0267 31.5796 38.8883 31.4423 38.8872 31.2724V31.2691L41.1586 28.9819C41.3285 28.9808 41.4668 29.1181 41.468 29.2879V29.2913V31.2702L41.4668 31.2691Z" fill="#8C30F5"></path> <path d="M22.0319 31.4748C22.0319 31.6447 21.8947 31.7831 21.7248 31.7842H21.7226H19.7606C19.5907 31.7853 19.4523 31.6481 19.4512 31.4782V31.4748V29.514C19.4501 29.3441 19.5873 29.2046 19.7583 29.2046H19.7606H21.7046C21.8744 29.2035 22.0128 29.3418 22.0139 29.5117V29.514V31.4748H22.0319Z" fill="#8C30F5"></path> <path d="M25.2656 31.4748C25.2656 31.6447 25.1283 31.7831 24.9584 31.7842H24.9562H22.9942C22.8243 31.7853 22.6859 31.647 22.6848 31.4771V31.4748V29.514C22.6848 29.3441 22.8221 29.2046 22.9919 29.2046H22.9942H24.9562C25.1261 29.2035 25.2644 29.3418 25.2656 29.5117V29.514V31.4748Z" fill="#8C30F5"></path> <path d="M28.5163 31.4748C28.5163 31.6447 28.379 31.7831 28.2092 31.7842H28.2069H26.2449C26.075 31.7853 25.9367 31.6481 25.9355 31.4782V31.4748V29.514C25.9355 29.3441 26.0728 29.2046 26.2427 29.2046H26.2449H28.2069C28.3768 29.2035 28.5152 29.3418 28.5163 29.5117V29.514V31.4748Z" fill="#8C30F5"></path> <path d="M31.767 31.4748C31.767 31.6447 31.6298 31.7831 31.4599 31.7842H31.4577H29.4957C29.3258 31.7853 29.1874 31.6481 29.1863 31.4782V31.4748V29.514C29.1852 29.3441 29.3235 29.2046 29.4934 29.2046H29.4957H31.4577C31.6275 29.2035 31.7659 29.3418 31.767 29.5117V29.514V31.4748Z" fill="#8C30F5"></path> <path d="M35.0002 31.4748C35.0002 31.6447 34.8629 31.7831 34.6931 31.7842H34.6908H32.7288C32.5589 31.7853 32.4206 31.647 32.4194 31.4771V31.4748V29.514C32.4194 29.3441 32.5567 29.2046 32.7266 29.2046H32.7288H34.6908C34.8607 29.2035 34.9991 29.3418 35.0002 29.5117V29.514V31.4748Z" fill="#8C30F5"></path> <path d="M22.0319 28.2248C22.0319 28.3947 21.8947 28.5331 21.7248 28.5342H21.7226H19.7606C19.5907 28.5353 19.4523 28.3981 19.4512 28.2282V28.2248V26.264C19.4501 26.093 19.5873 25.9546 19.7583 25.9546H19.7606H21.7046C21.8744 25.9535 22.0128 26.0918 22.0139 26.2617V26.2651V28.2248H22.0319Z" fill="#8C30F5"></path> <path d="M25.2656 28.2248C25.2656 28.3947 25.1283 28.5331 24.9584 28.5342H24.9562H22.9942C22.8243 28.5342 22.6859 28.397 22.6848 28.2271V28.2248V26.264C22.6848 26.093 22.8221 25.9546 22.9919 25.9546H22.9942H24.9562C25.1261 25.9535 25.2644 26.0918 25.2656 26.2617V26.2651V28.2248Z" fill="#8C30F5"></path> <path d="M28.5163 28.2248C28.5163 28.3947 28.379 28.5331 28.2092 28.5342H28.2069H26.2449C26.075 28.5353 25.9367 28.3981 25.9355 28.2282V28.2248V26.264C25.9355 26.093 26.0728 25.9546 26.2427 25.9546H26.2449H28.2069C28.3768 25.9535 28.5152 26.0918 28.5163 26.2617V26.2651V28.2248Z" fill="#8C30F5"></path> <path d="M31.767 28.2248C31.767 28.3947 31.6298 28.5331 31.4599 28.5342H31.4577H29.4957C29.3258 28.5353 29.1874 28.3981 29.1863 28.2282V28.2248V26.264C29.1852 26.093 29.3235 25.9546 29.4934 25.9546H29.4957H31.4577C31.6275 25.9535 31.7659 26.0918 31.767 26.2617V26.2651V28.2248Z" fill="#8C30F5"></path> <path d="M35.0002 28.2248C35.0002 28.3947 34.8629 28.5331 34.6931 28.5342H34.6908H32.7288C32.5589 28.5342 32.4206 28.397 32.4194 28.2271V28.2248V26.264C32.4194 26.093 32.5567 25.9546 32.7266 25.9546H32.7288H34.6908C34.8607 25.9535 34.9991 26.0918 35.0002 26.2617V26.2651V28.2248Z" fill="#8C30F5"></path> <path d="M22.0319 28.2248C22.0319 28.3947 21.8947 28.5331 21.7248 28.5342H21.7226H19.7606C19.5907 28.5353 19.4523 28.3981 19.4512 28.2282V28.2248V26.264C19.4501 26.093 19.5873 25.9546 19.7583 25.9546H19.7606H21.7046C21.8744 25.9535 22.0128 26.0918 22.0139 26.2617V26.2651V28.2248H22.0319Z" fill="#8C30F5"></path> <path d="M25.2656 28.2248C25.2656 28.3947 25.1283 28.5331 24.9584 28.5342H24.9562H22.9942C22.8243 28.5342 22.6859 28.397 22.6848 28.2271V28.2248V26.264C22.6848 26.093 22.8221 25.9546 22.9919 25.9546H22.9942H24.9562C25.1261 25.9535 25.2644 26.0918 25.2656 26.2617V26.2651V28.2248Z" fill="#8C30F5"></path> <path d="M28.5163 28.2248C28.5163 28.3947 28.379 28.5331 28.2092 28.5342H28.2069H26.2449C26.075 28.5353 25.9367 28.3981 25.9355 28.2282V28.2248V26.264C25.9355 26.093 26.0728 25.9546 26.2427 25.9546H26.2449H28.2069C28.3768 25.9535 28.5152 26.0918 28.5163 26.2617V26.2651V28.2248Z" fill="#8C30F5"></path> <path d="M31.767 28.2248C31.767 28.3947 31.6298 28.5331 31.4599 28.5342H31.4577H29.4957C29.3258 28.5353 29.1874 28.3981 29.1863 28.2282V28.2248V26.264C29.1852 26.093 29.3235 25.9546 29.4934 25.9546H29.4957H31.4577C31.6275 25.9535 31.7659 26.0918 31.767 26.2617V26.2651V28.2248Z" fill="#8C30F5"></path> <path d="M35.0002 28.2248C35.0002 28.3947 34.8629 28.5331 34.6931 28.5342H34.6908H32.7288C32.5589 28.5342 32.4206 28.397 32.4194 28.2271V28.2248V26.264C32.4194 26.093 32.5567 25.9546 32.7266 25.9546H32.7288H34.6908C34.8607 25.9535 34.9991 26.0918 35.0002 26.2617V26.2651V28.2248Z" fill="#8C30F5"></path> <path d="M22.0319 24.9734C22.0319 25.1433 21.8947 25.2816 21.7248 25.2828H21.7226H19.7606C19.5907 25.2839 19.4523 25.1466 19.4512 24.9768V24.9734V23.0136C19.4501 22.8426 19.5873 22.7031 19.7583 22.7031H19.7606H21.7046C21.8744 22.702 22.0128 22.8404 22.0139 23.0103V23.0136V24.9734H22.0319Z" fill="#8C30F5"></path> <path d="M25.2656 24.9734C25.2656 25.1433 25.1283 25.2816 24.9584 25.2828H24.9562H22.9942C22.8243 25.2839 22.6859 25.1455 22.6848 24.9768V24.9734V23.0136C22.6848 22.8426 22.8221 22.7031 22.9919 22.7031H22.9942H24.9562C25.1261 22.702 25.2644 22.8404 25.2656 23.0103V23.0136V24.9734Z" fill="#8C30F5"></path> <path d="M28.5163 24.9734C28.5163 25.1433 28.379 25.2816 28.2092 25.2828H28.2069H26.2449C26.075 25.2839 25.9367 25.1466 25.9355 24.9768V24.9734V23.0136C25.9355 22.8426 26.0728 22.7031 26.2427 22.7031H26.2449H28.2069C28.3768 22.702 28.5152 22.8404 28.5163 23.0103V23.0136V24.9734Z" fill="#8C30F5"></path> <path d="M31.767 24.9734C31.767 25.1433 31.6298 25.2816 31.4599 25.2828H31.4577H29.4957C29.3258 25.2839 29.1874 25.1466 29.1863 24.9768V24.9734V23.0136C29.1852 22.8426 29.3235 22.7031 29.4934 22.7031H29.4957H31.4577C31.6275 22.702 31.7659 22.8404 31.767 23.0103V23.0136V24.9734Z" fill="#8C30F5"></path> <path d="M35.0002 24.9734C35.0002 25.1433 34.8629 25.2816 34.6931 25.2828H34.6908H32.7288C32.5589 25.2839 32.4206 25.1455 32.4194 24.9768V24.9734V23.0136C32.4194 22.8426 32.5567 22.7031 32.7266 22.7031H32.7288H34.6908C34.8607 22.702 34.9991 22.8404 35.0002 23.0103V23.0136V24.9734Z" fill="#8C30F5"></path> <path d="M22.0319 24.9734C22.0319 25.1433 21.8947 25.2816 21.7248 25.2828H21.7226H19.7606C19.5907 25.2839 19.4523 25.1466 19.4512 24.9768V24.9734V23.0136C19.4501 22.8426 19.5873 22.7031 19.7583 22.7031H19.7606H21.7046C21.8744 22.702 22.0128 22.8404 22.0139 23.0103V23.0136V24.9734H22.0319Z" fill="#8C30F5"></path> <path d="M25.2656 24.9734C25.2656 25.1433 25.1283 25.2816 24.9584 25.2828H24.9562H22.9942C22.8243 25.2839 22.6859 25.1455 22.6848 24.9768V24.9734V23.0136C22.6848 22.8426 22.8221 22.7031 22.9919 22.7031H22.9942H24.9562C25.1261 22.702 25.2644 22.8404 25.2656 23.0103V23.0136V24.9734Z" fill="#8C30F5"></path> <path d="M28.5163 24.9734C28.5163 25.1433 28.379 25.2816 28.2092 25.2828H28.2069H26.2449C26.075 25.2839 25.9367 25.1466 25.9355 24.9768V24.9734V23.0136C25.9355 22.8426 26.0728 22.7031 26.2427 22.7031H26.2449H28.2069C28.3768 22.702 28.5152 22.8404 28.5163 23.0103V23.0136V24.9734Z" fill="#8C30F5"></path> <path d="M31.767 24.9734C31.767 25.1433 31.6298 25.2816 31.4599 25.2828H31.4577H29.4957C29.3258 25.2839 29.1874 25.1466 29.1863 24.9768V24.9734V23.0136C29.1852 22.8426 29.3235 22.7031 29.4934 22.7031H29.4957H31.4577C31.6275 22.702 31.7659 22.8404 31.767 23.0103V23.0136V24.9734Z" fill="#8C30F5"></path> <path d="M35.0002 24.9734C35.0002 25.1433 34.8629 25.2816 34.6931 25.2828H34.6908H32.7288C32.5589 25.2839 32.4206 25.1455 32.4194 24.9768V24.9734V23.0136C32.4194 22.8426 32.5567 22.7031 32.7266 22.7031H32.7288H34.6908C34.8607 22.702 34.9991 22.8404 35.0002 23.0103V23.0136V24.9734Z" fill="#8C30F5"></path> <path d="M35.9627 25.3008C35.7928 25.3019 35.6544 25.1647 35.6533 24.9948V24.9914V23.0294C35.6533 22.8596 35.7906 22.7212 35.9604 22.7212H35.9627H37.9236C38.0946 22.7201 38.2329 22.8573 38.2341 23.0272V23.0294L35.9627 25.3008Z" fill="#8C30F5"></path> <path d="M18.7812 21.7405C18.7812 21.9103 18.6439 22.0487 18.4741 22.0498H18.4718H16.5098C16.3399 22.051 16.2016 21.9137 16.2004 21.7438V21.7405V19.7796C16.2004 19.6097 16.3377 19.4702 16.5076 19.4702H16.5098H18.4718C18.6417 19.4691 18.7801 19.6075 18.7812 19.7773V19.7796V21.7405Z" fill="#8C30F5"></path> <path d="M22.0319 21.7405C22.0319 21.9103 21.8947 22.0487 21.7248 22.0498H21.7226H19.7606C19.5907 22.051 19.4523 21.9137 19.4512 21.7438V21.7405V19.7796C19.4501 19.6097 19.5873 19.4702 19.7583 19.4702H19.7606H21.7046C21.8744 19.4691 22.0128 19.6063 22.0139 19.7762V19.7796V21.7405H22.0319Z" fill="#8C30F5"></path> <path d="M25.2656 21.7405C25.2656 21.9103 25.1283 22.0487 24.9584 22.0498H24.9562H22.9942C22.8243 22.0498 22.6859 21.9126 22.6848 21.7427V21.7405V19.7796C22.6848 19.6097 22.8221 19.4702 22.9919 19.4702H22.9942H24.9562C25.1261 19.4691 25.2644 19.6063 25.2656 19.7762V19.7796V21.7405Z" fill="#8C30F5"></path> <path d="M28.5163 21.7405C28.5163 21.9103 28.379 22.0487 28.2092 22.0498H28.2069H26.2449C26.075 22.051 25.9367 21.9137 25.9355 21.7438V21.7405V19.7796C25.9355 19.6097 26.0728 19.4702 26.2427 19.4702H26.2449H28.2069C28.3768 19.4691 28.5152 19.6075 28.5163 19.7773V19.7796V21.7405Z" fill="#8C30F5"></path> <path d="M31.767 21.7405C31.767 21.9103 31.6298 22.0487 31.4599 22.0498H31.4577H29.4957C29.3258 22.051 29.1874 21.9137 29.1863 21.7438V21.7405V19.7796C29.1852 19.6097 29.3224 19.4702 29.4934 19.4702H29.4957H31.4577C31.6275 19.4691 31.7659 19.6063 31.767 19.7762V19.7796V21.7405Z" fill="#8C30F5"></path> <path d="M35.0002 21.7405C35.0002 21.9103 34.8629 22.0487 34.6931 22.0498H34.6908H32.7288C32.5589 22.0498 32.4206 21.9126 32.4194 21.7427V21.7405V19.7796C32.4194 19.6097 32.5567 19.4702 32.7266 19.4702H32.7288H34.6908C34.8607 19.4691 34.9991 19.6063 35.0002 19.7762V19.7796V21.7405Z" fill="#8C30F5"></path> <path d="M38.2514 21.7405C38.2514 21.9103 38.1142 22.0487 37.9443 22.0498H37.942H35.98C35.8102 22.051 35.6718 21.9137 35.6707 21.7438V21.7405V19.7796C35.6707 19.6097 35.8079 19.4702 35.9778 19.4702H35.98H37.942C38.1119 19.4691 38.2503 19.6075 38.2514 19.7773V19.7796V21.7405Z" fill="#8C30F5"></path> <path d="M9.04626 21.7405C9.04401 21.9126 8.90338 22.0521 8.73126 22.0499H8.71888L6.44751 19.7796C6.44751 19.6097 6.58476 19.4702 6.75576 19.4702H6.75801H8.71888C8.89326 19.468 9.03838 19.6052 9.04513 19.7796L9.04626 21.7405Z" fill="#8C30F5"></path> <path d="M10.0088 22.0498C9.83896 22.051 9.70059 21.9137 9.69946 21.7438V21.7405V19.7796C9.69946 19.6097 9.83671 19.4713 10.0066 19.4702H10.0088H11.9697C12.1407 19.4691 12.2791 19.6063 12.2791 19.7762V19.7796L10.0088 22.0498Z" fill="#8C30F5"></path> <path d="M18.7812 21.7405C18.7812 21.9103 18.6439 22.0487 18.4741 22.0498H18.4718H16.5098C16.3399 22.051 16.2016 21.9137 16.2004 21.7438V21.7405V19.7796C16.2004 19.6097 16.3377 19.4702 16.5076 19.4702H16.5098H18.4718C18.6417 19.4691 18.7801 19.6075 18.7812 19.7773V19.7796V21.7405Z" fill="#8C30F5"></path> <path d="M22.0319 21.7405C22.0319 21.9103 21.8947 22.0487 21.7248 22.0498H21.7226H19.7606C19.5907 22.051 19.4523 21.9137 19.4512 21.7438V21.7405V19.7796C19.4501 19.6097 19.5873 19.4702 19.7583 19.4702H19.7606H21.7046C21.8744 19.4691 22.0128 19.6063 22.0139 19.7762V19.7796V21.7405H22.0319Z" fill="#8C30F5"></path> <path d="M25.2656 21.7405C25.2656 21.9103 25.1283 22.0487 24.9584 22.0498H24.9562H22.9942C22.8243 22.0498 22.6859 21.9126 22.6848 21.7427V21.7405V19.7796C22.6848 19.6097 22.8221 19.4702 22.9919 19.4702H22.9942H24.9562C25.1261 19.4691 25.2644 19.6063 25.2656 19.7762V19.7796V21.7405Z" fill="#8C30F5"></path> <path d="M28.5163 21.7405C28.5163 21.9103 28.379 22.0487 28.2092 22.0498H28.2069H26.2449C26.075 22.051 25.9367 21.9137 25.9355 21.7438V21.7405V19.7796C25.9355 19.6097 26.0728 19.4702 26.2427 19.4702H26.2449H28.2069C28.3768 19.4691 28.5152 19.6075 28.5163 19.7773V19.7796V21.7405Z" fill="#8C30F5"></path> <path d="M31.767 21.7405C31.767 21.9103 31.6298 22.0487 31.4599 22.0498H31.4577H29.4957C29.3258 22.051 29.1874 21.9137 29.1863 21.7438V21.7405V19.7796C29.1852 19.6097 29.3224 19.4702 29.4934 19.4702H29.4957H31.4577C31.6275 19.4691 31.7659 19.6063 31.767 19.7762V19.7796V21.7405Z" fill="#8C30F5"></path> <path d="M35.0002 21.7405C35.0002 21.9103 34.8629 22.0487 34.6931 22.0498H34.6908H32.7288C32.5589 22.0498 32.4206 21.9126 32.4194 21.7427V21.7405V19.7796C32.4194 19.6097 32.5567 19.4702 32.7266 19.4702H32.7288H34.6908C34.8607 19.4691 34.9991 19.6063 35.0002 19.7762V19.7796V21.7405Z" fill="#8C30F5"></path> <path d="M38.2514 21.7405C38.2514 21.9103 38.1142 22.0487 37.9443 22.0498H37.942H35.98C35.8102 22.051 35.6718 21.9137 35.6707 21.7438V21.7405V19.7796C35.6707 19.6097 35.8079 19.4702 35.9778 19.4702H35.98H37.942C38.1119 19.4691 38.2503 19.6075 38.2514 19.7773V19.7796V21.7405Z" fill="#8C30F5"></path> <path d="M9.04619 18.49C9.04394 18.6621 8.90331 18.8016 8.73118 18.7994C8.72669 18.7994 8.72331 18.7994 8.71881 18.7994H6.77481C6.60493 18.8005 6.46656 18.6621 6.46656 18.4923V18.49V16.5291C6.46543 16.3581 6.60268 16.2198 6.77256 16.2198H6.77481H8.73681C8.91118 16.2175 9.05631 16.3548 9.06306 16.5291V18.49H9.04619Z" fill="#8C30F5"></path> <path d="M12.2961 18.49C12.2972 18.6599 12.16 18.7982 11.9901 18.7994H11.9879H10.009C9.83799 18.8005 9.69961 18.6621 9.69849 18.4922V18.49V16.5291C9.69849 16.3581 9.83574 16.2197 10.0067 16.2197H10.009H11.9699C12.1397 16.2186 12.2781 16.357 12.2781 16.5269V16.5291V18.49H12.2961Z" fill="#8C30F5"></path> <path d="M15.5306 18.49C15.5317 18.6599 15.3944 18.7982 15.2246 18.7994H15.2212H13.2592C13.0893 18.8005 12.9509 18.6621 12.9509 18.4922V18.49V16.5291C12.9498 16.3581 13.0871 16.2197 13.2569 16.2197H13.2592H15.2212C15.3911 16.2186 15.5294 16.357 15.5306 16.5269V16.5291V18.49Z" fill="#8C30F5"></path> <path d="M18.7812 18.49C18.7812 18.6599 18.6439 18.7982 18.4741 18.7994H18.4718H16.5098C16.3399 18.8005 16.2016 18.6632 16.2004 18.4922V18.49V16.5291C16.2004 16.3581 16.3377 16.2197 16.5076 16.2197H16.5098H18.4718C18.6417 16.2186 18.7801 16.357 18.7812 16.5269V16.5291V18.49Z" fill="#8C30F5"></path> <path d="M22.0319 18.49C22.0319 18.6599 21.8947 18.7982 21.7248 18.7994H21.7226H19.7606C19.5907 18.8005 19.4523 18.6632 19.4512 18.4922V18.49V16.5291C19.4501 16.3581 19.5873 16.2197 19.7583 16.2197H19.7606H21.7046C21.8744 16.2186 22.0128 16.3559 22.0139 16.5257V16.5291V18.49H22.0319Z" fill="#8C30F5"></path> <path d="M25.2656 18.49C25.2656 18.6599 25.1283 18.7982 24.9584 18.7994H24.9562H22.9942C22.8243 18.8005 22.6859 18.6621 22.6848 18.4922V18.49V16.5291C22.6848 16.3581 22.8221 16.2197 22.9919 16.2197H22.9942H24.9562C25.1261 16.2186 25.2644 16.3559 25.2656 16.5257V16.5291V18.49Z" fill="#8C30F5"></path> <path d="M28.5163 18.49C28.5174 18.6599 28.3802 18.7982 28.2103 18.7994H28.2069H26.2449C26.075 18.8005 25.9367 18.6632 25.9355 18.4922V18.49V16.5291C25.9355 16.3581 26.0728 16.2197 26.2427 16.2197H26.2449H28.2069C28.3768 16.2186 28.5152 16.357 28.5163 16.5269V16.5291V18.49Z" fill="#8C30F5"></path> <path d="M31.767 18.49C31.767 18.6599 31.6298 18.7982 31.4599 18.7994H31.4577H29.4957C29.3258 18.8005 29.1874 18.6632 29.1863 18.4922V18.49V16.5291C29.1852 16.3581 29.3235 16.2197 29.4934 16.2197H29.4957H31.4577C31.6275 16.2186 31.7659 16.3559 31.767 16.5257V16.5291V18.49Z" fill="#8C30F5"></path> <path d="M35.0002 18.49C35.0013 18.6599 34.8641 18.7982 34.6942 18.7994H34.6908H32.7288C32.5589 18.8005 32.4206 18.6621 32.4194 18.4922V18.49V16.5291C32.4194 16.3581 32.5567 16.2197 32.7266 16.2197H32.7288H34.6908C34.8607 16.2186 34.9991 16.3559 35.0002 16.5257V16.5291V18.49Z" fill="#8C30F5"></path> <path d="M38.2514 18.49C38.2514 18.6599 38.1142 18.7982 37.9454 18.7994H37.942H35.98C35.8102 18.8005 35.6718 18.6632 35.6707 18.4922V18.49V16.5291C35.6707 16.3581 35.8079 16.2197 35.9778 16.2197H35.98H37.942C38.1119 16.2186 38.2503 16.357 38.2514 16.5269V16.5291V18.49Z" fill="#8C30F5"></path> <path d="M5.81205 18.4899C5.81318 18.6598 5.67593 18.7982 5.50605 18.7993H5.5038L3.23243 16.5122C3.2313 16.3412 3.36855 16.2028 3.53843 16.2017H3.5418H5.50268C5.67255 16.2017 5.81205 16.3389 5.81205 16.5088V16.5122V18.4899Z" fill="#8C30F5"></path> <path d="M9.04619 18.49C9.04394 18.6621 8.90331 18.8016 8.73118 18.7994C8.72669 18.7994 8.72331 18.7994 8.71881 18.7994H6.77481C6.60493 18.8005 6.46656 18.6621 6.46656 18.4923V18.49V16.5291C6.46543 16.3581 6.60268 16.2198 6.77256 16.2198H6.77481H8.73681C8.91118 16.2175 9.05631 16.3548 9.06306 16.5291V18.49H9.04619Z" fill="#8C30F5"></path> <path d="M12.2961 18.49C12.2972 18.6599 12.16 18.7982 11.9901 18.7994H11.9879H10.009C9.83799 18.8005 9.69961 18.6621 9.69849 18.4922V18.49V16.5291C9.69849 16.3581 9.83574 16.2197 10.0067 16.2197H10.009H11.9699C12.1397 16.2186 12.2781 16.357 12.2781 16.5269V16.5291V18.49H12.2961Z" fill="#8C30F5"></path> <path d="M15.5306 18.49C15.5317 18.6599 15.3944 18.7982 15.2246 18.7994H15.2212H13.2592C13.0893 18.8005 12.9509 18.6621 12.9509 18.4922V18.49V16.5291C12.9498 16.3581 13.0871 16.2197 13.2569 16.2197H13.2592H15.2212C15.3911 16.2186 15.5294 16.357 15.5306 16.5269V16.5291V18.49Z" fill="#8C30F5"></path> <path d="M18.7812 18.49C18.7812 18.6599 18.6439 18.7982 18.4741 18.7994H18.4718H16.5098C16.3399 18.8005 16.2016 18.6632 16.2004 18.4922V18.49V16.5291C16.2004 16.3581 16.3377 16.2197 16.5076 16.2197H16.5098H18.4718C18.6417 16.2186 18.7801 16.357 18.7812 16.5269V16.5291V18.49Z" fill="#8C30F5"></path> <path d="M22.0319 18.49C22.0319 18.6599 21.8947 18.7982 21.7248 18.7994H21.7226H19.7606C19.5907 18.8005 19.4523 18.6632 19.4512 18.4922V18.49V16.5291C19.4501 16.3581 19.5873 16.2197 19.7583 16.2197H19.7606H21.7046C21.8744 16.2186 22.0128 16.3559 22.0139 16.5257V16.5291V18.49H22.0319Z" fill="#8C30F5"></path> <path d="M25.2656 18.49C25.2656 18.6599 25.1283 18.7982 24.9584 18.7994H24.9562H22.9942C22.8243 18.8005 22.6859 18.6621 22.6848 18.4922V18.49V16.5291C22.6848 16.3581 22.8221 16.2197 22.9919 16.2197H22.9942H24.9562C25.1261 16.2186 25.2644 16.3559 25.2656 16.5257V16.5291V18.49Z" fill="#8C30F5"></path> <path d="M28.5163 18.49C28.5174 18.6599 28.3802 18.7982 28.2103 18.7994H28.2069H26.2449C26.075 18.8005 25.9367 18.6632 25.9355 18.4922V18.49V16.5291C25.9355 16.3581 26.0728 16.2197 26.2427 16.2197H26.2449H28.2069C28.3768 16.2186 28.5152 16.357 28.5163 16.5269V16.5291V18.49Z" fill="#8C30F5"></path> <path d="M31.767 18.49C31.767 18.6599 31.6298 18.7982 31.4599 18.7994H31.4577H29.4957C29.3258 18.8005 29.1874 18.6632 29.1863 18.4922V18.49V16.5291C29.1852 16.3581 29.3235 16.2197 29.4934 16.2197H29.4957H31.4577C31.6275 16.2186 31.7659 16.3559 31.767 16.5257V16.5291V18.49Z" fill="#8C30F5"></path> <path d="M35.0002 18.49C35.0013 18.6599 34.8641 18.7982 34.6942 18.7994H34.6908H32.7288C32.5589 18.8005 32.4206 18.6621 32.4194 18.4922V18.49V16.5291C32.4194 16.3581 32.5567 16.2197 32.7266 16.2197H32.7288H34.6908C34.8607 16.2186 34.9991 16.3559 35.0002 16.5257V16.5291V18.49Z" fill="#8C30F5"></path> <path d="M38.2514 18.49C38.2514 18.6599 38.1142 18.7982 37.9454 18.7994H37.942H35.98C35.8102 18.8005 35.6718 18.6632 35.6707 18.4922V18.49V16.5291C35.6707 16.3581 35.8079 16.2197 35.9778 16.2197H35.98H37.942C38.1119 16.2186 38.2503 16.357 38.2514 16.5269V16.5291V18.49Z" fill="#8C30F5"></path> <path d="M39.2147 18.7994C39.0448 18.8005 38.9064 18.6632 38.9053 18.4934V18.49V16.5291C38.9042 16.3592 39.0414 16.2209 39.2113 16.2197H39.2147H41.1744C41.3454 16.2186 41.4849 16.357 41.4849 16.5269V16.5291L39.2147 18.7994Z" fill="#8C30F5"></path> <path d="M5.81198 15.2391C5.81311 15.409 5.67586 15.5474 5.50598 15.5485H5.50373H3.52486C3.35386 15.5485 3.21548 15.4113 3.21436 15.2414V15.2391V13.2783C3.21436 13.1073 3.35161 12.9689 3.52261 12.9678H3.52486H5.48573C5.65561 12.9678 5.79398 13.105 5.79398 13.2749V13.2783V15.2391H5.81198Z" fill="#8C30F5"></path> <path d="M9.04619 15.2392C9.04394 15.4113 8.90331 15.5508 8.73006 15.5485C8.72668 15.5485 8.72331 15.5485 8.71881 15.5485H6.77481C6.60493 15.5485 6.46656 15.4113 6.46656 15.2414V15.2392V13.2783C6.46543 13.1073 6.60268 12.9689 6.77256 12.9678H6.77481H8.73681C8.91118 12.9667 9.05631 13.1039 9.06306 13.2783V15.2392H9.04619Z" fill="#8C30F5"></path> <path d="M12.2961 15.2391C12.2972 15.409 12.16 15.5474 11.9901 15.5485H11.9879H10.009C9.83799 15.5485 9.69961 15.4113 9.69849 15.2414V15.2391V13.2783C9.69849 13.1073 9.83574 12.9689 10.0067 12.9678H10.009H11.9699C12.1397 12.9678 12.2781 13.105 12.2781 13.2749V13.2783V15.2391H12.2961Z" fill="#8C30F5"></path> <path d="M15.5306 15.2391C15.5306 15.409 15.3933 15.5474 15.2234 15.5485H15.2212H13.2592C13.0893 15.5485 12.9509 15.4113 12.9509 15.2414V15.2391V13.2783C12.9498 13.1073 13.0871 12.9689 13.2569 12.9678H13.2592H15.2212C15.3911 12.9678 15.5294 13.105 15.5306 13.2749V13.2783V15.2391Z" fill="#8C30F5"></path> <path d="M18.7812 15.2391C18.7812 15.409 18.6439 15.5474 18.4741 15.5485H18.4718H16.5098C16.3399 15.5496 16.2016 15.4124 16.2004 15.2414V15.2391V13.2783C16.2004 13.1073 16.3377 12.9689 16.5076 12.9678H16.5098H18.4718C18.6417 12.9678 18.7801 13.105 18.7812 13.2749V13.2783V15.2391Z" fill="#8C30F5"></path> <path d="M22.0319 15.2391C22.0319 15.409 21.8947 15.5474 21.7248 15.5485H21.7226H19.7606C19.5907 15.5496 19.4523 15.4124 19.4512 15.2414V15.2391V13.2783C19.4501 13.1073 19.5873 12.9689 19.7583 12.9678H19.7606H21.7046C21.8744 12.9678 22.0128 13.105 22.0139 13.2749V13.2783V15.2391H22.0319Z" fill="#8C30F5"></path> <path d="M25.2656 15.2391C25.2656 15.409 25.1283 15.5474 24.9584 15.5485H24.9562H22.9942C22.8243 15.5485 22.6859 15.4113 22.6848 15.2414V15.2391V13.2783C22.6848 13.1073 22.8221 12.9689 22.9919 12.9678H22.9942H24.9562C25.1261 12.9678 25.2644 13.105 25.2656 13.2749V13.2783V15.2391Z" fill="#8C30F5"></path> <path d="M28.5163 15.2391C28.5163 15.409 28.379 15.5474 28.2092 15.5485H28.2069H26.2449C26.075 15.5496 25.9367 15.4124 25.9355 15.2414V15.2391V13.2783C25.9355 13.1073 26.0728 12.9689 26.2427 12.9678H26.2449H28.2069C28.3768 12.9678 28.5152 13.105 28.5163 13.2749V13.2783V15.2391Z" fill="#8C30F5"></path> <path d="M31.767 15.2391C31.767 15.409 31.6298 15.5474 31.4599 15.5485H31.4577H29.4957C29.3258 15.5496 29.1874 15.4124 29.1863 15.2414V15.2391V13.2783C29.1852 13.1073 29.3224 12.9689 29.4934 12.9678H29.4957H31.4577C31.6275 12.9678 31.7659 13.105 31.767 13.2749V13.2783V15.2391Z" fill="#8C30F5"></path> <path d="M35.0002 15.2391C35.0013 15.409 34.8629 15.5474 34.6931 15.5485H34.6908H32.7288C32.5589 15.5485 32.4206 15.4113 32.4194 15.2414V15.2391V13.2783C32.4194 13.1073 32.5567 12.9689 32.7266 12.9678H32.7288H34.6908C34.8607 12.9678 34.9991 13.105 35.0002 13.2749V13.2783V15.2391Z" fill="#8C30F5"></path> <path d="M5.81198 15.2391C5.81311 15.409 5.67586 15.5474 5.50598 15.5485H5.50373H3.52486C3.35386 15.5485 3.21548 15.4113 3.21436 15.2414V15.2391V13.2783C3.21436 13.1073 3.35161 12.9689 3.52261 12.9678H3.52486H5.48573C5.65561 12.9678 5.79398 13.105 5.79398 13.2749V13.2783V15.2391H5.81198Z" fill="#8C30F5"></path> <path d="M9.04619 15.2392C9.04394 15.4113 8.90331 15.5508 8.73006 15.5485C8.72668 15.5485 8.72331 15.5485 8.71881 15.5485H6.77481C6.60493 15.5485 6.46656 15.4113 6.46656 15.2414V15.2392V13.2783C6.46543 13.1073 6.60268 12.9689 6.77256 12.9678H6.77481H8.73681C8.91118 12.9667 9.05631 13.1039 9.06306 13.2783V15.2392H9.04619Z" fill="#8C30F5"></path> <path d="M12.2961 15.2391C12.2972 15.409 12.16 15.5474 11.9901 15.5485H11.9879H10.009C9.83799 15.5485 9.69961 15.4113 9.69849 15.2414V15.2391V13.2783C9.69849 13.1073 9.83574 12.9689 10.0067 12.9678H10.009H11.9699C12.1397 12.9678 12.2781 13.105 12.2781 13.2749V13.2783V15.2391H12.2961Z" fill="#8C30F5"></path> <path d="M15.5306 15.2391C15.5306 15.409 15.3933 15.5474 15.2234 15.5485H15.2212H13.2592C13.0893 15.5485 12.9509 15.4113 12.9509 15.2414V15.2391V13.2783C12.9498 13.1073 13.0871 12.9689 13.2569 12.9678H13.2592H15.2212C15.3911 12.9678 15.5294 13.105 15.5306 13.2749V13.2783V15.2391Z" fill="#8C30F5"></path> <path d="M18.7812 15.2391C18.7812 15.409 18.6439 15.5474 18.4741 15.5485H18.4718H16.5098C16.3399 15.5496 16.2016 15.4124 16.2004 15.2414V15.2391V13.2783C16.2004 13.1073 16.3377 12.9689 16.5076 12.9678H16.5098H18.4718C18.6417 12.9678 18.7801 13.105 18.7812 13.2749V13.2783V15.2391Z" fill="#8C30F5"></path> <path d="M22.0319 15.2391C22.0319 15.409 21.8947 15.5474 21.7248 15.5485H21.7226H19.7606C19.5907 15.5496 19.4523 15.4124 19.4512 15.2414V15.2391V13.2783C19.4501 13.1073 19.5873 12.9689 19.7583 12.9678H19.7606H21.7046C21.8744 12.9678 22.0128 13.105 22.0139 13.2749V13.2783V15.2391H22.0319Z" fill="#8C30F5"></path> <path d="M25.2656 15.2391C25.2656 15.409 25.1283 15.5474 24.9584 15.5485H24.9562H22.9942C22.8243 15.5485 22.6859 15.4113 22.6848 15.2414V15.2391V13.2783C22.6848 13.1073 22.8221 12.9689 22.9919 12.9678H22.9942H24.9562C25.1261 12.9678 25.2644 13.105 25.2656 13.2749V13.2783V15.2391Z" fill="#8C30F5"></path> <path d="M28.5163 15.2391C28.5163 15.409 28.379 15.5474 28.2092 15.5485H28.2069H26.2449C26.075 15.5496 25.9367 15.4124 25.9355 15.2414V15.2391V13.2783C25.9355 13.1073 26.0728 12.9689 26.2427 12.9678H26.2449H28.2069C28.3768 12.9678 28.5152 13.105 28.5163 13.2749V13.2783V15.2391Z" fill="#8C30F5"></path> <path d="M31.767 15.2391C31.767 15.409 31.6298 15.5474 31.4599 15.5485H31.4577H29.4957C29.3258 15.5496 29.1874 15.4124 29.1863 15.2414V15.2391V13.2783C29.1852 13.1073 29.3224 12.9689 29.4934 12.9678H29.4957H31.4577C31.6275 12.9678 31.7659 13.105 31.767 13.2749V13.2783V15.2391Z" fill="#8C30F5"></path> <path d="M35.0002 15.2391C35.0013 15.409 34.8629 15.5474 34.6931 15.5485H34.6908H32.7288C32.5589 15.5485 32.4206 15.4113 32.4194 15.2414V15.2391V13.2783C32.4194 13.1073 32.5567 12.9689 32.7266 12.9678H32.7288H34.6908C34.8607 12.9678 34.9991 13.105 35.0002 13.2749V13.2783V15.2391Z" fill="#8C30F5"></path> <path d="M38.2514 15.2391C38.2514 15.409 38.1142 15.5474 37.9443 15.5485H37.942H35.98C35.8102 15.5496 35.6718 15.4124 35.6707 15.2414V15.2391V13.2783C35.6707 13.1073 35.8079 12.9689 35.9778 12.9678H35.98L38.2514 15.2391Z" fill="#8C30F5"></path> <path d="M5.81198 12.0056C5.81311 12.1755 5.67586 12.3139 5.50598 12.315H5.50373H3.52486C3.35386 12.3161 3.21548 12.1789 3.21436 12.0079V12.0056V10.0447C3.21436 9.87373 3.35161 9.73536 3.52261 9.73536H3.52486H5.48573C5.65561 9.73423 5.79398 9.87261 5.79398 10.0425V10.0447V12.0056H5.81198Z" fill="#8C30F5"></path> <path d="M9.04619 12.0051C9.04394 12.1773 8.90331 12.3168 8.73118 12.3145H8.71881H6.77481C6.60493 12.3156 6.46656 12.1784 6.46656 12.0074V12.0051V10.0443C6.46543 9.87327 6.60268 9.73489 6.77256 9.73489H6.77481H8.73681C8.91118 9.73264 9.05631 9.86989 9.06306 10.0443V12.0051H9.04619Z" fill="#8C30F5"></path> <path d="M12.2961 12.0056C12.2972 12.1755 12.16 12.3139 11.9901 12.315H11.9879H10.009C9.83799 12.3161 9.69961 12.1789 9.69849 12.0079V12.0056V10.0447C9.69849 9.87373 9.83574 9.73536 10.0067 9.73536H10.009H11.9699C12.1397 9.73423 12.2781 9.87261 12.2781 10.0425V10.0447V12.0056H12.2961Z" fill="#8C30F5"></path> <path d="M15.5306 12.0056C15.5317 12.1755 15.3944 12.3139 15.2246 12.315H15.2212H13.2592C13.0893 12.3161 12.9509 12.1789 12.9509 12.0079V12.0056V10.0447C12.9498 9.87373 13.0871 9.73536 13.2569 9.73536H13.2592H15.2212C15.3911 9.73423 15.5294 9.87261 15.5306 10.0425V10.0447V12.0056Z" fill="#8C30F5"></path> <path d="M18.7812 12.0056C18.7812 12.1755 18.6439 12.3139 18.4741 12.315H18.4718H16.5098C16.3399 12.3161 16.2016 12.1789 16.2004 12.0079V12.0056V10.0447C16.2004 9.87373 16.3377 9.73536 16.5076 9.73536H16.5098H18.4718C18.6417 9.73423 18.7801 9.87261 18.7812 10.0425V10.0447V12.0056Z" fill="#8C30F5"></path> <path d="M22.0319 12.0056C22.0319 12.1755 21.8947 12.3139 21.7248 12.315H21.7226H19.7606C19.5907 12.3161 19.4523 12.1789 19.4512 12.0079V12.0056V10.0447C19.4501 9.87373 19.5873 9.73536 19.7583 9.73536H19.7606H21.7046C21.8744 9.73423 22.0128 9.87148 22.0139 10.0414V10.0447V12.0056H22.0319Z" fill="#8C30F5"></path> <path d="M25.2656 12.0056C25.2656 12.1755 25.1283 12.3139 24.9584 12.315H24.9562H22.9942C22.8243 12.3161 22.6859 12.1789 22.6848 12.0079V12.0056V10.0447C22.6848 9.87373 22.8221 9.73536 22.9919 9.73536H22.9942H24.9562C25.1261 9.73423 25.2644 9.87148 25.2656 10.0414V10.0447V12.0056Z" fill="#8C30F5"></path> <path d="M28.5163 12.0056C28.5174 12.1755 28.3802 12.3139 28.2103 12.315H28.2069H26.2449C26.075 12.3161 25.9367 12.1789 25.9355 12.0079V12.0056V10.0447C25.9355 9.87373 26.0728 9.73536 26.2427 9.73536H26.2449H28.2069C28.3768 9.73423 28.5152 9.87261 28.5163 10.0425V10.0447V12.0056Z" fill="#8C30F5"></path> <path d="M31.767 12.0056C31.767 12.1755 31.6298 12.3139 31.4599 12.315H31.4577H29.4957C29.3258 12.3161 29.1874 12.1789 29.1863 12.0079V12.0056V10.0447C29.1852 9.87373 29.3224 9.73536 29.4934 9.73536H29.4957H31.4577C31.6275 9.73423 31.7659 9.87148 31.767 10.0414V10.0447V12.0056Z" fill="#8C30F5"></path> <path d="M5.81198 12.0056C5.81311 12.1755 5.67586 12.3139 5.50598 12.315H5.50373H3.52486C3.35386 12.3161 3.21548 12.1789 3.21436 12.0079V12.0056V10.0447C3.21436 9.87373 3.35161 9.73536 3.52261 9.73536H3.52486H5.48573C5.65561 9.73423 5.79398 9.87261 5.79398 10.0425V10.0447V12.0056H5.81198Z" fill="#8C30F5"></path> <path d="M9.04619 12.0051C9.04394 12.1773 8.90331 12.3168 8.73118 12.3145H8.71881H6.77481C6.60493 12.3156 6.46656 12.1784 6.46656 12.0074V12.0051V10.0443C6.46543 9.87327 6.60268 9.73489 6.77256 9.73489H6.77481H8.73681C8.91118 9.73264 9.05631 9.86989 9.06306 10.0443V12.0051H9.04619Z" fill="#8C30F5"></path> <path d="M12.2961 12.0056C12.2972 12.1755 12.16 12.3139 11.9901 12.315H11.9879H10.009C9.83799 12.3161 9.69961 12.1789 9.69849 12.0079V12.0056V10.0447C9.69849 9.87373 9.83574 9.73536 10.0067 9.73536H10.009H11.9699C12.1397 9.73423 12.2781 9.87261 12.2781 10.0425V10.0447V12.0056H12.2961Z" fill="#8C30F5"></path> <path d="M15.5306 12.0056C15.5317 12.1755 15.3944 12.3139 15.2246 12.315H15.2212H13.2592C13.0893 12.3161 12.9509 12.1789 12.9509 12.0079V12.0056V10.0447C12.9498 9.87373 13.0871 9.73536 13.2569 9.73536H13.2592H15.2212C15.3911 9.73423 15.5294 9.87261 15.5306 10.0425V10.0447V12.0056Z" fill="#8C30F5"></path> <path d="M18.7812 12.0056C18.7812 12.1755 18.6439 12.3139 18.4741 12.315H18.4718H16.5098C16.3399 12.3161 16.2016 12.1789 16.2004 12.0079V12.0056V10.0447C16.2004 9.87373 16.3377 9.73536 16.5076 9.73536H16.5098H18.4718C18.6417 9.73423 18.7801 9.87261 18.7812 10.0425V10.0447V12.0056Z" fill="#8C30F5"></path> <path d="M22.0319 12.0056C22.0319 12.1755 21.8947 12.3139 21.7248 12.315H21.7226H19.7606C19.5907 12.3161 19.4523 12.1789 19.4512 12.0079V12.0056V10.0447C19.4501 9.87373 19.5873 9.73536 19.7583 9.73536H19.7606H21.7046C21.8744 9.73423 22.0128 9.87148 22.0139 10.0414V10.0447V12.0056H22.0319Z" fill="#8C30F5"></path> <path d="M25.2656 12.0056C25.2656 12.1755 25.1283 12.3139 24.9584 12.315H24.9562H22.9942C22.8243 12.3161 22.6859 12.1789 22.6848 12.0079V12.0056V10.0447C22.6848 9.87373 22.8221 9.73536 22.9919 9.73536H22.9942H24.9562C25.1261 9.73423 25.2644 9.87148 25.2656 10.0414V10.0447V12.0056Z" fill="#8C30F5"></path> <path d="M28.5163 12.0056C28.5174 12.1755 28.3802 12.3139 28.2103 12.315H28.2069H26.2449C26.075 12.3161 25.9367 12.1789 25.9355 12.0079V12.0056V10.0447C25.9355 9.87373 26.0728 9.73536 26.2427 9.73536H26.2449H28.2069C28.3768 9.73423 28.5152 9.87261 28.5163 10.0425V10.0447V12.0056Z" fill="#8C30F5"></path> <path d="M31.767 12.0056C31.767 12.1755 31.6298 12.3139 31.4599 12.315H31.4577H29.4957C29.3258 12.3161 29.1874 12.1789 29.1863 12.0079V12.0056V10.0447C29.1852 9.87373 29.3224 9.73536 29.4934 9.73536H29.4957H31.4577C31.6275 9.73423 31.7659 9.87148 31.767 10.0414V10.0447V12.0056Z" fill="#8C30F5"></path> <path d="M35.0002 12.0056C35.0013 12.1755 34.8641 12.3139 34.6942 12.315H34.6908H32.7288C32.5589 12.3161 32.4206 12.1789 32.4194 12.0079V12.0056V10.0447C32.4194 9.87373 32.5567 9.73535 32.7266 9.73535H32.7288L35.0002 12.0056Z" fill="#8C30F5"></path> <path d="M9.04619 8.75465C9.04394 8.9279 8.90331 9.06628 8.73006 9.06403H8.71881H6.77481C6.60493 9.06515 6.46656 8.9279 6.46656 8.7569V8.75465V6.79378C6.46543 6.6239 6.60268 6.4844 6.77256 6.4844H6.77481H8.73681C8.91118 6.48215 9.05631 6.6194 9.06306 6.79378V8.75465H9.04619Z" fill="#8C30F5"></path> <path d="M12.2961 8.75463C12.2972 8.92451 12.16 9.06288 11.9901 9.06401H11.9879H10.009C9.83799 9.06513 9.69961 8.92788 9.69849 8.75688V8.75463V6.79376C9.69849 6.62388 9.83574 6.48438 10.0067 6.48438H10.009H11.9699C12.1397 6.48326 12.2781 6.62163 12.2781 6.79151V6.79376V8.75463H12.2961Z" fill="#8C30F5"></path> <path d="M15.5306 8.75463C15.5306 8.92451 15.3933 9.06288 15.2234 9.06401H15.2212H13.2592C13.0893 9.06513 12.9509 8.92788 12.9509 8.75688V8.75463V6.79376C12.9498 6.62388 13.0871 6.48438 13.2569 6.48438H13.2592H15.2212C15.3911 6.48326 15.5294 6.62163 15.5306 6.79151V6.79376V8.75463Z" fill="#8C30F5"></path> <path d="M18.7812 8.75463C18.7812 8.92451 18.6439 9.06288 18.4741 9.06401H18.4718H16.5098C16.3399 9.06513 16.2016 8.92788 16.2004 8.75688V8.75463V6.79376C16.2004 6.62388 16.3377 6.48438 16.5076 6.48438H16.5098H18.4718C18.6417 6.48326 18.7801 6.62163 18.7812 6.79151V6.79376V8.75463Z" fill="#8C30F5"></path> <path d="M22.0319 8.75463C22.0319 8.92451 21.8947 9.06288 21.7248 9.06401H21.7226H19.7606C19.5907 9.06513 19.4523 8.92788 19.4512 8.75688V8.75463V6.79376C19.4501 6.62388 19.5873 6.48438 19.7583 6.48438H19.7606H21.7046C21.8744 6.48326 22.0128 6.62051 22.0139 6.79038V6.79376V8.75463H22.0319Z" fill="#8C30F5"></path> <path d="M25.2656 8.75463C25.2656 8.92451 25.1283 9.06288 24.9584 9.06401H24.9562H22.9942C22.8243 9.06513 22.6859 8.92788 22.6848 8.75688V8.75463V6.79376C22.6848 6.62388 22.8221 6.48438 22.9919 6.48438H22.9942H24.9562C25.1261 6.48326 25.2644 6.62051 25.2656 6.79038V6.79376V8.75463Z" fill="#8C30F5"></path> <path d="M28.5163 8.75463C28.5163 8.92451 28.379 9.06288 28.2092 9.06401H28.2069H26.2449C26.075 9.06513 25.9367 8.92788 25.9355 8.75688V8.75463V6.79376C25.9355 6.62388 26.0728 6.48438 26.2427 6.48438H26.2449H28.2069C28.3768 6.48326 28.5152 6.62163 28.5163 6.79151V6.79376V8.75463Z" fill="#8C30F5"></path> <path d="M31.767 8.75463C31.767 8.92451 31.6298 9.06288 31.4599 9.06401H31.4577H29.4957C29.3258 9.06513 29.1874 8.92788 29.1863 8.75688V8.75463V6.79376C29.1852 6.62388 29.3224 6.48438 29.4934 6.48438H29.4957H31.4577C31.6275 6.48326 31.7659 6.62051 31.767 6.79038V6.79376V8.75463Z" fill="#8C30F5"></path> <path d="M5.81198 8.75393C5.81311 8.9238 5.67586 9.06218 5.50598 9.0633H5.50373H3.52486C3.35386 9.06443 3.21548 8.92718 3.21436 8.75618V8.75393L5.48573 6.4668C5.65561 6.46568 5.79398 6.60293 5.79398 6.77393V6.77618V8.75393H5.81198Z" fill="#8C30F5"></path> <path d="M9.04619 8.75465C9.04394 8.9279 8.90331 9.06628 8.73006 9.06403H8.71881H6.77481C6.60493 9.06515 6.46656 8.9279 6.46656 8.7569V8.75465V6.79378C6.46543 6.6239 6.60268 6.4844 6.77256 6.4844H6.77481H8.73681C8.91118 6.48215 9.05631 6.6194 9.06306 6.79378V8.75465H9.04619Z" fill="#8C30F5"></path> <path d="M12.2961 8.75463C12.2972 8.92451 12.16 9.06288 11.9901 9.06401H11.9879H10.009C9.83799 9.06513 9.69961 8.92788 9.69849 8.75688V8.75463V6.79376C9.69849 6.62388 9.83574 6.48438 10.0067 6.48438H10.009H11.9699C12.1397 6.48326 12.2781 6.62163 12.2781 6.79151V6.79376V8.75463H12.2961Z" fill="#8C30F5"></path> <path d="M15.5306 8.75463C15.5306 8.92451 15.3933 9.06288 15.2234 9.06401H15.2212H13.2592C13.0893 9.06513 12.9509 8.92788 12.9509 8.75688V8.75463V6.79376C12.9498 6.62388 13.0871 6.48438 13.2569 6.48438H13.2592H15.2212C15.3911 6.48326 15.5294 6.62163 15.5306 6.79151V6.79376V8.75463Z" fill="#8C30F5"></path> <path d="M18.7812 8.75463C18.7812 8.92451 18.6439 9.06288 18.4741 9.06401H18.4718H16.5098C16.3399 9.06513 16.2016 8.92788 16.2004 8.75688V8.75463V6.79376C16.2004 6.62388 16.3377 6.48438 16.5076 6.48438H16.5098H18.4718C18.6417 6.48326 18.7801 6.62163 18.7812 6.79151V6.79376V8.75463Z" fill="#8C30F5"></path> <path d="M22.0319 8.75463C22.0319 8.92451 21.8947 9.06288 21.7248 9.06401H21.7226H19.7606C19.5907 9.06513 19.4523 8.92788 19.4512 8.75688V8.75463V6.79376C19.4501 6.62388 19.5873 6.48438 19.7583 6.48438H19.7606H21.7046C21.8744 6.48326 22.0128 6.62051 22.0139 6.79038V6.79376V8.75463H22.0319Z" fill="#8C30F5"></path> <path d="M25.2656 8.75463C25.2656 8.92451 25.1283 9.06288 24.9584 9.06401H24.9562H22.9942C22.8243 9.06513 22.6859 8.92788 22.6848 8.75688V8.75463V6.79376C22.6848 6.62388 22.8221 6.48438 22.9919 6.48438H22.9942H24.9562C25.1261 6.48326 25.2644 6.62051 25.2656 6.79038V6.79376V8.75463Z" fill="#8C30F5"></path> <path d="M28.5163 8.75463C28.5163 8.92451 28.379 9.06288 28.2092 9.06401H28.2069H26.2449C26.075 9.06513 25.9367 8.92788 25.9355 8.75688V8.75463V6.79376C25.9355 6.62388 26.0728 6.48438 26.2427 6.48438H26.2449H28.2069C28.3768 6.48326 28.5152 6.62163 28.5163 6.79151V6.79376V8.75463Z" fill="#8C30F5"></path> <path d="M31.767 8.75463C31.767 8.92451 31.6298 9.06288 31.4599 9.06401H31.4577H29.4957C29.3258 9.06513 29.1874 8.92788 29.1863 8.75688V8.75463V6.79376C29.1852 6.62388 29.3224 6.48438 29.4934 6.48438H29.4957H31.4577C31.6275 6.48326 31.7659 6.62051 31.767 6.79038V6.79376V8.75463Z" fill="#8C30F5"></path> <path d="M12.2961 5.52123C12.2972 5.69111 12.16 5.82948 11.9901 5.83061H11.9879H10.009C9.83799 5.83061 9.69961 5.69336 9.69849 5.52348V5.52123V3.56036C9.69849 3.38936 9.83574 3.25098 10.0067 3.25098H10.009H11.9699C12.1397 3.24986 12.2781 3.38823 12.2781 3.55811V3.56036V5.52123H12.2961Z" fill="#8C30F5"></path> <path d="M15.5306 5.52123C15.5306 5.69111 15.3933 5.82948 15.2234 5.83061H15.2212H13.2592C13.0893 5.83061 12.9509 5.69336 12.9509 5.52348V5.52123V3.56036C12.9498 3.38936 13.0871 3.25098 13.2569 3.25098H13.2592H15.2212C15.3911 3.24986 15.5294 3.38823 15.5306 3.55811V3.56036V5.52123Z" fill="#8C30F5"></path> <path d="M18.7812 5.52123C18.7812 5.69111 18.6439 5.82948 18.4741 5.83061H18.4718H16.5098C16.3399 5.83173 16.2016 5.69448 16.2004 5.52348V5.52123V3.56036C16.2004 3.38936 16.3377 3.25098 16.5076 3.25098H16.5098H18.4718C18.6417 3.24986 18.7801 3.38823 18.7812 3.55811V3.56036V5.52123Z" fill="#8C30F5"></path> <path d="M22.0319 5.52123C22.0319 5.6911 21.8947 5.82948 21.7248 5.8306H21.7226H19.7606C19.5907 5.83173 19.4523 5.69448 19.4512 5.52348V5.52123V3.56035C19.4501 3.38935 19.5873 3.25098 19.7583 3.25098H19.7606L22.0319 5.52123Z" fill="#8C30F5"></path> <path d="M28.5163 5.52123C28.5163 5.69111 28.379 5.82948 28.2092 5.83061H28.2069H26.2449C26.075 5.83173 25.9367 5.69448 25.9355 5.52348V5.52123V3.56036C25.9355 3.38936 26.0728 3.25098 26.2427 3.25098H26.2449H28.2069C28.3768 3.24986 28.5152 3.38823 28.5163 3.55811V3.56036V5.52123Z" fill="#8C30F5"></path> <path d="M9.04618 5.52125C9.04393 5.69338 8.9033 5.83288 8.73005 5.83063C8.72668 5.83063 8.7233 5.83063 8.7188 5.83063H6.7748C6.60493 5.83063 6.46655 5.69338 6.46655 5.5235V5.52125L8.7368 3.251C8.91118 3.24875 9.05518 3.386 9.06305 3.56038V5.52125H9.04618Z" fill="#8C30F5"></path> <path d="M12.2961 5.52123C12.2972 5.69111 12.16 5.82948 11.9901 5.83061H11.9879H10.009C9.83799 5.83061 9.69961 5.69336 9.69849 5.52348V5.52123V3.56036C9.69849 3.38936 9.83574 3.25098 10.0067 3.25098H10.009H11.9699C12.1397 3.24986 12.2781 3.38823 12.2781 3.55811V3.56036V5.52123H12.2961Z" fill="#8C30F5"></path> <path d="M15.5306 5.52123C15.5306 5.69111 15.3933 5.82948 15.2234 5.83061H15.2212H13.2592C13.0893 5.83061 12.9509 5.69336 12.9509 5.52348V5.52123V3.56036C12.9498 3.38936 13.0871 3.25098 13.2569 3.25098H13.2592H15.2212C15.3911 3.24986 15.5294 3.38823 15.5306 3.55811V3.56036V5.52123Z" fill="#8C30F5"></path> <path d="M18.7812 5.52123C18.7812 5.69111 18.6439 5.82948 18.4741 5.83061H18.4718H16.5098C16.3399 5.83173 16.2016 5.69448 16.2004 5.52348V5.52123V3.56036C16.2004 3.38936 16.3377 3.25098 16.5076 3.25098H16.5098H18.4718C18.6417 3.24986 18.7801 3.38823 18.7812 3.55811V3.56036V5.52123Z" fill="#8C30F5"></path> <path d="M25.2656 5.52123C25.2656 5.69111 25.1283 5.82948 24.9584 5.83061H24.9562H22.9942C22.8243 5.83061 22.6859 5.69336 22.6848 5.52348V5.52123L24.9562 3.25098C25.1261 3.24986 25.2644 3.38711 25.2656 3.55698V3.56036V5.52123Z" fill="#8C30F5"></path> <path d="M28.5163 5.52123C28.5163 5.69111 28.379 5.82948 28.2092 5.83061H28.2069H26.2449C26.075 5.83173 25.9367 5.69448 25.9355 5.52348V5.52123V3.56036C25.9355 3.38936 26.0728 3.25098 26.2427 3.25098H26.2449H28.2069C28.3768 3.24986 28.5152 3.38823 28.5163 3.55811V3.56036V5.52123Z" fill="#8C30F5"></path> <path d="M31.767 5.52123C31.767 5.6911 31.6298 5.82948 31.4599 5.8306H31.4577H29.4957C29.3258 5.83173 29.1874 5.69448 29.1863 5.52348V5.52123V3.56035C29.1852 3.38935 29.3235 3.25098 29.4934 3.25098H29.4957L31.767 5.52123Z" fill="#8C30F5"></path> <path d="M12.2961 2.27026C12.2972 2.44013 12.16 2.57851 11.9901 2.57963H11.9879H10.009C9.83799 2.57963 9.69961 2.44238 9.69849 2.27251V2.27026L11.9699 6.81153e-06C12.1397 -0.00111819 12.2781 0.137257 12.2781 0.307132V0.309382V2.27026H12.2961Z" fill="#8C30F5"></path> <path d="M15.5306 2.27026C15.5306 2.44013 15.3933 2.57851 15.2234 2.57963H15.2212H13.2592C13.0893 2.57963 12.9509 2.44238 12.9509 2.27251V2.27026V0.309382C12.9498 0.138382 13.0871 6.81153e-06 13.2569 6.81153e-06H13.2592H15.2212C15.3911 -0.00111819 15.5294 0.137257 15.5306 0.307132V0.309382V2.27026Z" fill="#8C30F5"></path> <path d="M18.7812 2.27026C18.7812 2.44013 18.6439 2.57851 18.4741 2.57963H18.4718H16.5098C16.3399 2.58076 16.2016 2.44238 16.2004 2.27251V2.27026V0.309382C16.2004 0.138382 16.3377 6.81153e-06 16.5076 6.81153e-06H16.5098H18.4718C18.6417 -0.00111819 18.7801 0.137257 18.7812 0.307132V0.309382V2.27026Z" fill="#8C30F5"></path> <path d="M15.5306 2.27026C15.5306 2.44013 15.3933 2.57851 15.2234 2.57963H15.2212H13.2592C13.0893 2.57963 12.9509 2.44238 12.9509 2.27251V2.27026V0.309382C12.9498 0.138382 13.0871 6.81153e-06 13.2569 6.81153e-06H13.2592H15.2212C15.3911 -0.00111819 15.5294 0.137257 15.5306 0.307132V0.309382V2.27026Z" fill="#8C30F5"></path> <path d="M18.7812 2.27026C18.7812 2.44013 18.6439 2.57851 18.4741 2.57963H18.4718H16.5098C16.3399 2.58076 16.2016 2.44238 16.2004 2.27251V2.27026V0.309382C16.2004 0.138382 16.3377 6.81153e-06 16.5076 6.81153e-06H16.5098H18.4718C18.6417 -0.00111819 18.7801 0.137257 18.7812 0.307132V0.309382V2.27026Z" fill="#8C30F5"></path> <path d="M18.4716 28.5342C18.6414 28.5353 18.7798 28.3981 18.7798 28.2282V28.2248V26.264C18.7809 26.0941 18.6437 25.9546 18.4738 25.9546H18.4716H16.5107C16.3397 25.9535 16.2013 26.0907 16.2002 26.2606V26.264L18.4716 28.5342Z" fill="#8C30F5"></path> <path d="M18.7812 24.9734C18.7812 25.1433 18.6439 25.2816 18.4741 25.2828H18.4718H16.5098C16.3399 25.2839 16.2016 25.1466 16.2004 24.9768V24.9734V23.0136C16.2004 22.8426 16.3377 22.7031 16.5076 22.7031H16.5098H18.4718C18.6417 22.702 18.7801 22.8404 18.7812 23.0103V23.0136V24.9734Z" fill="#8C30F5"></path> <path fill-rule="evenodd" clip-rule="evenodd" d="M55.5672 12.4621C55.5672 12.6353 55.4265 12.7759 55.2539 12.7759H53.3125C53.1401 12.7759 53 12.6353 53 12.4621V10.5215C53 10.3489 53.1401 10.2085 53.3125 10.2085H55.2539C55.4265 10.2085 55.5672 10.3489 55.5672 10.5215V12.4621Z" fill="#3D2664"></path> <path fill-rule="evenodd" clip-rule="evenodd" d="M61.9851 12.4621C61.9851 12.6353 61.845 12.7759 61.6719 12.7759H59.7307C59.5583 12.7759 59.4182 12.6353 59.4182 12.4621V10.5215C59.4182 10.3489 59.5583 10.2085 59.7307 10.2085H61.6719C61.845 10.2085 61.9851 10.3489 61.9851 10.5215V12.4621Z" fill="#3D2664"></path> <path fill-rule="evenodd" clip-rule="evenodd" d="M55.5672 9.25339C55.5672 9.42653 55.4265 9.56689 55.2539 9.56689H53.3125C53.1401 9.56689 53 9.42653 53 9.25339V7.31273C53 7.14037 53.1401 7 53.3125 7H55.2539C55.4265 7 55.5672 7.14037 55.5672 7.31273V9.25339Z" fill="#3D2664"></path> <path fill-rule="evenodd" clip-rule="evenodd" d="M58.7764 9.25339C58.7764 9.42653 58.6358 9.56689 58.4626 9.56689H56.522C56.3494 9.56689 56.209 9.42653 56.209 9.25339V7.31273C56.209 7.14037 56.3494 7 56.522 7H58.4626C58.6358 7 58.7764 7.14037 58.7764 7.31273V9.25339Z" fill="#3D2664"></path> <path fill-rule="evenodd" clip-rule="evenodd" d="M61.9851 9.25339C61.9851 9.42653 61.845 9.56689 61.6719 9.56689H59.7307C59.5583 9.56689 59.4182 9.42653 59.4182 9.25339V7.31273C59.4182 7.14037 59.5583 7 59.7307 7H61.6719C61.845 7 61.9851 7.14037 61.9851 7.31273V9.25339Z" fill="#3D2664"></path> <path fill-rule="evenodd" clip-rule="evenodd" d="M55.5672 6.04417C55.5672 6.21731 55.4265 6.35768 55.2539 6.35768H53.3125C53.1401 6.35768 53 6.21731 53 6.04417V4.10326C53 3.93115 53.1401 3.79053 53.3125 3.79053H55.2539C55.4265 3.79053 55.5672 3.93115 55.5672 4.10326V6.04417Z" fill="#3D2664"></path> <path fill-rule="evenodd" clip-rule="evenodd" d="M61.9851 6.04417C61.9851 6.21731 61.845 6.35768 61.6719 6.35768H59.7307C59.5583 6.35768 59.4182 6.21731 59.4182 6.04417V4.10326C59.4182 3.93115 59.5583 3.79053 59.7307 3.79053H61.6719C61.845 3.79053 61.9851 3.93115 61.9851 4.10326V6.04417Z" fill="#3D2664"></path> <path fill-rule="evenodd" clip-rule="evenodd" d="M58.7764 2.83496C58.7764 3.0081 58.6358 3.14847 58.4626 3.14847H56.522C56.3494 3.14847 56.209 3.0081 56.209 2.83496V0.894046C56.209 0.721424 56.3494 0.581055 56.522 0.581055H58.4626C58.6358 0.581055 58.7764 0.721424 58.7764 0.894046V2.83496Z" fill="#3D2664"></path> <path fill-rule="evenodd" clip-rule="evenodd" d="M55.5672 2.83496C55.5672 3.0081 55.4265 3.14847 55.2539 3.14847H53.3125C53.1401 3.14847 53 3.0081 53 2.83496L55.2539 0.581055C55.4265 0.581055 55.5672 0.721424 55.5672 0.894046V2.83496Z" fill="#3D2664"></path> <path fill-rule="evenodd" clip-rule="evenodd" d="M61.9851 2.83496C61.9851 3.0081 61.845 3.14847 61.6719 3.14847H59.7307C59.5583 3.14847 59.4182 3.0081 59.4182 2.83496V0.894046C59.4182 0.721424 59.5583 0.581055 59.7307 0.581055L61.9851 2.83496Z" fill="#3D2664"></path> <path fill-rule="evenodd" clip-rule="evenodd" d="M67.1199 12.3718C67.1199 12.5449 66.9793 12.6856 66.8064 12.6856H64.8655C64.6931 12.6856 64.5527 12.5449 64.5527 12.3718V10.4312C64.5527 10.2585 64.6931 10.1182 64.8655 10.1182H66.8064C66.9793 10.1182 67.1199 10.2585 67.1199 10.4312V12.3718Z" fill="#3D2664"></path> <path fill-rule="evenodd" clip-rule="evenodd" d="M67.1199 9.16257C67.1199 9.33545 66.9793 9.47633 66.8064 9.47633H64.8655C64.6931 9.47633 64.5527 9.33545 64.5527 9.16257V7.22191C64.5527 7.04903 64.6931 6.90918 64.8655 6.90918H66.8064C66.9793 6.90918 67.1199 7.04903 67.1199 7.22191V9.16257Z" fill="#3D2664"></path> <path fill-rule="evenodd" clip-rule="evenodd" d="M68.0747 9.47633C67.9021 9.47633 67.7617 9.33545 67.7617 9.16257V7.22191C67.7617 7.04903 67.9021 6.90918 68.0747 6.90918H70.0154C70.1885 6.90918 70.3291 7.04903 70.3291 7.22191L68.0747 9.47633Z" fill="#3D2664"></path> <path fill-rule="evenodd" clip-rule="evenodd" d="M67.1199 5.95261C67.1199 6.12574 66.9793 6.26663 66.8064 6.26663H64.8655C64.6931 6.26663 64.5527 6.12574 64.5527 5.95261V4.01195C64.5527 3.83959 64.6931 3.69922 64.8655 3.69922H66.8064C66.9793 3.69922 67.1199 3.83959 67.1199 4.01195V5.95261Z" fill="#3D2664"></path> <path fill-rule="evenodd" clip-rule="evenodd" d="M67.1199 2.74388C67.1199 2.91702 66.9793 3.05739 66.8064 3.05739H64.8655C64.6931 3.05739 64.5527 2.91702 64.5527 2.74388V0.802968C64.5527 0.630861 64.6931 0.490234 64.8655 0.490234H66.8064C66.9793 0.490234 67.1199 0.630861 67.1199 0.802968V2.74388Z" fill="#3D2664"></path> <path fill-rule="evenodd" clip-rule="evenodd" d="M70.3291 2.74388C70.3291 2.91702 70.1885 3.05739 70.0154 3.05739H68.0747C67.9018 3.05739 67.7617 2.91702 67.7617 2.74388V0.802968C67.7617 0.630861 67.9018 0.490234 68.0747 0.490234H70.0154C70.1885 0.490234 70.3291 0.630861 70.3291 0.802968V2.74388Z" fill="#3D2664"></path> <path fill-rule="evenodd" clip-rule="evenodd" d="M71.2837 3.05739C71.1113 3.05739 70.9707 2.91702 70.9707 2.74362V0.80271C70.9707 0.630861 71.1113 0.490234 71.2837 0.490234H73.2246C73.398 0.490234 73.5381 0.630861 73.5381 0.80271L71.2837 3.05739Z" fill="#3D2664"></path> <path fill-rule="evenodd" clip-rule="evenodd" d="M78.031 12.4621C78.031 12.6353 77.8907 12.7759 77.7175 12.7759H75.7764C75.604 12.7759 75.4634 12.6353 75.4634 12.4621V10.5215C75.4634 10.3489 75.604 10.2085 75.7764 10.2085H77.7175C77.8907 10.2085 78.031 10.3489 78.031 10.5215V12.4621Z" fill="#3D2664"></path> <path fill-rule="evenodd" clip-rule="evenodd" d="M81.2402 12.4621C81.2402 12.6353 81.0999 12.7759 80.9267 12.7759L78.6731 10.5215C78.6731 10.3489 78.8137 10.2085 78.9858 10.2085H80.9267C81.0999 10.2085 81.2402 10.3489 81.2402 10.5215V12.4621Z" fill="#3D2664"></path> <path fill-rule="evenodd" clip-rule="evenodd" d="M84.4492 12.4621C84.4492 12.6353 84.3086 12.7759 84.1355 12.7759H82.1946C82.0222 12.7759 81.8821 12.6353 81.8821 12.4621V10.5215C81.8821 10.3489 82.0222 10.2085 82.1946 10.2085L84.4492 12.4621Z" fill="#3D2664"></path> <path fill-rule="evenodd" clip-rule="evenodd" d="M78.031 9.25339C78.031 9.42653 77.8907 9.56689 77.7175 9.56689H75.7764C75.604 9.56689 75.4634 9.42653 75.4634 9.25339V7.31273C75.4634 7.14037 75.604 7 75.7764 7H77.7175C77.8907 7 78.031 7.14037 78.031 7.31273V9.25339Z" fill="#3D2664"></path> <path fill-rule="evenodd" clip-rule="evenodd" d="M81.2402 9.25339C81.2402 9.42653 81.0999 9.56689 80.9267 9.56689H78.9858C78.8137 9.56689 78.6731 9.42653 78.6731 9.25339V7.31273C78.6731 7.14037 78.8137 7 78.9858 7H80.9267C81.0999 7 81.2402 7.14037 81.2402 7.31273V9.25339Z" fill="#3D2664"></path> <path fill-rule="evenodd" clip-rule="evenodd" d="M82.1946 9.56666C82.0222 9.56666 81.8818 9.42604 81.8818 9.2529V7.31199C81.8818 7.13962 82.0222 6.99951 82.1946 6.99951H84.1352C84.3086 6.99951 84.4492 7.13962 84.4492 7.31199L82.1946 9.56666Z" fill="#3D2664"></path> <path fill-rule="evenodd" clip-rule="evenodd" d="M78.031 6.04417C78.031 6.21731 77.8907 6.35768 77.7175 6.35768H75.7764C75.604 6.35768 75.4634 6.21731 75.4634 6.04417V4.10326C75.4634 3.93115 75.604 3.79053 75.7764 3.79053H77.7175C77.8907 3.79053 78.031 3.93115 78.031 4.10326V6.04417Z" fill="#3D2664"></path> <path fill-rule="evenodd" clip-rule="evenodd" d="M84.4492 6.04417C84.4492 6.21731 84.3086 6.35768 84.1355 6.35768H82.1946C82.0222 6.35768 81.8821 6.21731 81.8821 6.04417V4.10326C81.8821 3.93115 82.0222 3.79053 82.1946 3.79053H84.1355C84.3086 3.79053 84.4492 3.93115 84.4492 4.10326V6.04417Z" fill="#3D2664"></path> <path fill-rule="evenodd" clip-rule="evenodd" d="M81.2402 2.83496C81.2402 3.00758 81.0999 3.14795 80.9267 3.14795H78.9858C78.8137 3.14795 78.6731 3.00758 78.6731 2.83496V0.894046C78.6731 0.721166 78.8137 0.581055 78.9858 0.581055H80.9267C81.0999 0.581055 81.2402 0.721166 81.2402 0.894046V2.83496Z" fill="#3D2664"></path> <path fill-rule="evenodd" clip-rule="evenodd" d="M84.4492 2.83496C84.4492 3.00758 84.3086 3.14795 84.1355 3.14795H82.1946C82.0222 3.14795 81.8821 3.00758 81.8821 2.83496V0.894046C81.8821 0.721166 82.0222 0.581055 82.1946 0.581055L84.4492 2.83496Z" fill="#3D2664"></path> <path fill-rule="evenodd" clip-rule="evenodd" d="M78.031 2.83496C78.031 3.00758 77.8907 3.14795 77.7175 3.14795H75.7764C75.604 3.14795 75.4634 3.00758 75.4634 2.83496L77.7175 0.581055C77.8907 0.581055 78.031 0.721166 78.031 0.894046V2.83496Z" fill="#3D2664"></path> <path fill-rule="evenodd" clip-rule="evenodd" d="M89.5845 12.4621C89.5845 12.6353 89.4442 12.7759 89.271 12.7759H87.3296C87.1572 12.7759 87.0166 12.6353 87.0166 12.4621V10.5215C87.0166 10.3489 87.1572 10.2085 87.3296 10.2085H89.271C89.4442 10.2085 89.5845 10.3489 89.5845 10.5215V12.4621Z" fill="#3D2664"></path> <path fill-rule="evenodd" clip-rule="evenodd" d="M89.5845 9.25339C89.5845 9.42653 89.4442 9.56689 89.271 9.56689H87.3296C87.1572 9.56689 87.0166 9.42653 87.0166 9.25339V7.31273C87.0166 7.14037 87.1572 7 87.3296 7H89.271C89.4442 7 89.5845 7.14037 89.5845 7.31273V9.25339Z" fill="#3D2664"></path> <path fill-rule="evenodd" clip-rule="evenodd" d="M89.5845 2.83496C89.5845 3.00758 89.4442 3.14795 89.271 3.14795H87.3296C87.1572 3.14795 87.0166 3.00758 87.0166 2.83496V0.894046C87.0166 0.721166 87.1572 0.581055 87.3296 0.581055H89.271C89.4442 0.581055 89.5845 0.721166 89.5845 0.894046V2.83496Z" fill="#3D2664"></path> <path fill-rule="evenodd" clip-rule="evenodd" d="M94.719 12.4621C94.719 12.6353 94.5784 12.7759 94.4052 12.7759L92.1519 10.5215C92.1519 10.3489 92.2922 10.2085 92.4646 10.2085H94.4052C94.5784 10.2085 94.719 10.3489 94.719 10.5215V12.4621Z" fill="#3D2664"></path> <path fill-rule="evenodd" clip-rule="evenodd" d="M97.9285 12.4621C97.9285 12.6353 97.7876 12.7759 97.6145 12.7759H95.6743C95.5015 12.7759 95.3611 12.6353 95.3611 12.4621V10.5215C95.3611 10.3489 95.5015 10.2085 95.6743 10.2085H97.6145C97.7876 10.2085 97.9285 10.3489 97.9285 10.5215V12.4621Z" fill="#3D2664"></path> <path fill-rule="evenodd" clip-rule="evenodd" d="M98.8826 12.7762C98.7099 12.7762 98.5696 12.6355 98.5696 12.4624V10.5215C98.5696 10.3489 98.7099 10.2085 98.8826 10.2085H100.824C100.997 10.2085 101.137 10.3489 101.137 10.5215L98.8826 12.7762Z" fill="#3D2664"></path> <path fill-rule="evenodd" clip-rule="evenodd" d="M94.719 9.25339C94.719 9.42653 94.5784 9.56689 94.4052 9.56689H92.4646C92.2922 9.56689 92.1519 9.42653 92.1519 9.25339V7.31273C92.1519 7.14037 92.2922 7 92.4646 7H94.4052C94.5784 7 94.719 7.14037 94.719 7.31273V9.25339Z" fill="#3D2664"></path> <path fill-rule="evenodd" clip-rule="evenodd" d="M94.719 6.04417C94.719 6.21731 94.5784 6.35768 94.4052 6.35768H92.4646C92.2922 6.35768 92.1519 6.21731 92.1519 6.04417V4.10326C92.1519 3.93115 92.2922 3.79053 92.4646 3.79053H94.4052C94.5784 3.79053 94.719 3.93115 94.719 4.10326V6.04417Z" fill="#3D2664"></path> <path fill-rule="evenodd" clip-rule="evenodd" d="M94.719 2.83496C94.719 3.0081 94.5784 3.14847 94.4052 3.14847H92.4646C92.2922 3.14847 92.1519 3.0081 92.1519 2.83496L94.4052 0.581055C94.5784 0.581055 94.719 0.721424 94.719 0.894046V2.83496Z" fill="#3D2664"></path> <path fill-rule="evenodd" clip-rule="evenodd" d="M97.9285 2.83496C97.9285 3.0081 97.7876 3.14847 97.6145 3.14847H95.6743C95.5015 3.14847 95.3611 3.0081 95.3611 2.83496V0.894046C95.3611 0.721424 95.5015 0.581055 95.6743 0.581055H97.6145C97.7876 0.581055 97.9285 0.721424 97.9285 0.894046V2.83496Z" fill="#3D2664"></path> <path fill-rule="evenodd" clip-rule="evenodd" d="M101.137 2.83496C101.137 3.0081 100.997 3.14847 100.824 3.14847H98.8828C98.7099 3.14847 98.5698 3.0081 98.5698 2.83496V0.894046C98.5698 0.721424 98.7099 0.581055 98.8828 0.581055L101.137 2.83496Z" fill="#3D2664"></path> <path fill-rule="evenodd" clip-rule="evenodd" d="M106.272 12.4621C106.272 12.6353 106.132 12.7759 105.959 12.7759H104.017C103.845 12.7759 103.705 12.6353 103.705 12.4621V10.5215C103.705 10.3489 103.845 10.2085 104.017 10.2085H105.959C106.132 10.2085 106.272 10.3489 106.272 10.5215V12.4621Z" fill="#3D2664"></path> <path fill-rule="evenodd" clip-rule="evenodd" d="M112.69 12.4621C112.69 12.6353 112.55 12.7759 112.377 12.7759H110.437C110.263 12.7759 110.124 12.6353 110.124 12.4621V10.5215C110.124 10.3489 110.263 10.2085 110.437 10.2085H112.377C112.55 10.2085 112.69 10.3489 112.69 10.5215V12.4621Z" fill="#3D2664"></path> <path fill-rule="evenodd" clip-rule="evenodd" d="M106.272 9.25339C106.272 9.42653 106.132 9.56689 105.959 9.56689H104.017C103.845 9.56689 103.705 9.42653 103.705 9.25339V7.31273C103.705 7.14037 103.845 7 104.017 7H105.959C106.132 7 106.272 7.14037 106.272 7.31273V9.25339Z" fill="#3D2664"></path> <path fill-rule="evenodd" clip-rule="evenodd" d="M109.481 9.25339C109.481 9.42653 109.34 9.56689 109.167 9.56689H107.227C107.054 9.56689 106.914 9.42653 106.914 9.25339V7.31273C106.914 7.14037 107.054 7 107.227 7H109.167C109.34 7 109.481 7.14037 109.481 7.31273V9.25339Z" fill="#3D2664"></path> <path fill-rule="evenodd" clip-rule="evenodd" d="M112.69 9.25339C112.69 9.42653 112.55 9.56689 112.377 9.56689H110.437C110.263 9.56689 110.124 9.42653 110.124 9.25339V7.31273C110.124 7.14037 110.263 7 110.437 7H112.377C112.55 7 112.69 7.14037 112.69 7.31273V9.25339Z" fill="#3D2664"></path> <path fill-rule="evenodd" clip-rule="evenodd" d="M106.272 6.04417C106.272 6.21731 106.132 6.35768 105.959 6.35768H104.017C103.845 6.35768 103.705 6.21731 103.705 6.04417V4.10326C103.705 3.93115 103.845 3.79053 104.017 3.79053H105.959C106.132 3.79053 106.272 3.93115 106.272 4.10326V6.04417Z" fill="#3D2664"></path> <path fill-rule="evenodd" clip-rule="evenodd" d="M112.69 6.04417C112.69 6.21731 112.55 6.35768 112.377 6.35768H110.437C110.263 6.35768 110.124 6.21731 110.124 6.04417V4.10326C110.124 3.93115 110.263 3.79053 110.437 3.79053H112.377C112.55 3.79053 112.69 3.93115 112.69 4.10326V6.04417Z" fill="#3D2664"></path> <path fill-rule="evenodd" clip-rule="evenodd" d="M109.481 2.83496C109.481 3.0081 109.34 3.14847 109.167 3.14847H107.227C107.054 3.14847 106.914 3.0081 106.914 2.83496V0.894046C106.914 0.721424 107.054 0.581055 107.227 0.581055H109.167C109.34 0.581055 109.481 0.721424 109.481 0.894046V2.83496Z" fill="#3D2664"></path> <path fill-rule="evenodd" clip-rule="evenodd" d="M106.272 2.83496C106.272 3.0081 106.132 3.14847 105.959 3.14847H104.017C103.845 3.14847 103.705 3.0081 103.705 2.83496L105.959 0.581055C106.132 0.581055 106.272 0.721424 106.272 0.894046V2.83496Z" fill="#3D2664"></path> <path fill-rule="evenodd" clip-rule="evenodd" d="M112.69 2.83496C112.69 3.0081 112.55 3.14847 112.377 3.14847H110.437C110.263 3.14847 110.124 3.0081 110.124 2.83496V0.894046C110.124 0.721424 110.263 0.581055 110.437 0.581055L112.69 2.83496Z" fill="#3D2664"></path> <path fill-rule="evenodd" clip-rule="evenodd" d="M117.825 12.4621C117.825 12.6353 117.685 12.7759 117.512 12.7759H115.57C115.398 12.7759 115.258 12.6353 115.258 12.4621V10.5215C115.258 10.3489 115.398 10.2085 115.57 10.2085H117.512C117.685 10.2085 117.825 10.3489 117.825 10.5215V12.4621Z" fill="#3D2664"></path> <path fill-rule="evenodd" clip-rule="evenodd" d="M124.243 12.4621C124.243 12.6353 124.103 12.7759 123.929 12.7759L121.676 10.5215C121.676 10.3489 121.816 10.2085 121.989 10.2085H123.929C124.103 10.2085 124.243 10.3489 124.243 10.5215V12.4621Z" fill="#3D2664"></path> <path fill-rule="evenodd" clip-rule="evenodd" d="M117.825 9.25339C117.825 9.42653 117.685 9.56689 117.512 9.56689H115.57C115.398 9.56689 115.258 9.42653 115.258 9.25339V7.31273C115.258 7.14037 115.398 7 115.57 7H117.512C117.685 7 117.825 7.14037 117.825 7.31273V9.25339Z" fill="#3D2664"></path> <path fill-rule="evenodd" clip-rule="evenodd" d="M121.034 9.25339C121.034 9.42653 120.894 9.56689 120.72 9.56689L118.467 7.31273C118.467 7.14037 118.607 7 118.78 7H120.72C120.894 7 121.034 7.14037 121.034 7.31273V9.25339Z" fill="#3D2664"></path> <path fill-rule="evenodd" clip-rule="evenodd" d="M124.243 9.25339C124.243 9.42653 124.103 9.56689 123.929 9.56689H121.989C121.816 9.56689 121.676 9.42653 121.676 9.25339V7.31273C121.676 7.14037 121.816 7 121.989 7H123.929C124.103 7 124.243 7.14037 124.243 7.31273V9.25339Z" fill="#3D2664"></path> <path fill-rule="evenodd" clip-rule="evenodd" d="M117.825 6.04417C117.825 6.21679 117.685 6.35768 117.512 6.35768H115.57C115.398 6.35768 115.258 6.21679 115.258 6.04417V4.10326C115.258 3.93064 115.398 3.79053 115.57 3.79053H117.512C117.685 3.79053 117.825 3.93064 117.825 4.10326V6.04417Z" fill="#3D2664"></path> <path fill-rule="evenodd" clip-rule="evenodd" d="M121.034 6.04417C121.034 6.21679 120.894 6.35768 120.72 6.35768H118.78C118.607 6.35768 118.467 6.21679 118.467 6.04417V4.10326C118.467 3.93064 118.607 3.79053 118.78 3.79053L121.034 6.04417Z" fill="#3D2664"></path> <path fill-rule="evenodd" clip-rule="evenodd" d="M124.243 6.04417C124.243 6.21679 124.103 6.35768 123.929 6.35768H121.989C121.816 6.35768 121.676 6.21679 121.676 6.04417V4.10326C121.676 3.93064 121.816 3.79053 121.989 3.79053H123.929C124.103 3.79053 124.243 3.93064 124.243 4.10326V6.04417Z" fill="#3D2664"></path> <path fill-rule="evenodd" clip-rule="evenodd" d="M117.825 2.83496C117.825 3.00758 117.685 3.14795 117.512 3.14795H115.57C115.398 3.14795 115.258 3.00758 115.258 2.83496V0.893272C115.258 0.721166 115.398 0.581055 115.57 0.581055L117.825 2.83496Z" fill="#3D2664"></path> <path fill-rule="evenodd" clip-rule="evenodd" d="M124.243 2.83496C124.243 3.00758 124.103 3.14795 123.929 3.14795H121.989C121.816 3.14795 121.676 3.00758 121.676 2.83496V0.893272C121.676 0.721166 121.816 0.581055 121.989 0.581055H123.929C124.103 0.581055 124.243 0.721166 124.243 0.893272V2.83496Z" fill="#3D2664"></path> <path fill-rule="evenodd" clip-rule="evenodd" d="M55.5672 28.3984C55.5672 28.5716 55.4265 28.7122 55.2534 28.7122H53.3125C53.1401 28.7122 53 28.5716 53 28.3984V26.4573C53 26.2846 53.1401 26.1445 53.3125 26.1445H55.2534C55.4265 26.1445 55.5672 26.2846 55.5672 26.4573V28.3984Z" fill="#3D2664"></path> <path fill-rule="evenodd" clip-rule="evenodd" d="M55.5672 25.1889C55.5672 25.3621 55.4265 25.503 55.2534 25.503H53.3125C53.1401 25.503 53 25.3621 53 25.1889V23.2483C53 23.0759 53.1401 22.9355 53.3125 22.9355H55.2534C55.4265 22.9355 55.5672 23.0759 55.5672 23.2483V25.1889Z" fill="#3D2664"></path> <path fill-rule="evenodd" clip-rule="evenodd" d="M58.7759 25.1889C58.7759 25.3621 58.636 25.503 58.4626 25.503H56.522C56.3494 25.503 56.209 25.3621 56.209 25.1889V23.2483C56.209 23.0759 56.3494 22.9355 56.522 22.9355H58.4626C58.636 22.9355 58.7759 23.0759 58.7759 23.2483V25.1889Z" fill="#3D2664"></path> <path fill-rule="evenodd" clip-rule="evenodd" d="M59.7307 25.5032C59.5584 25.5032 59.4177 25.362 59.4177 25.1892V23.2488C59.4177 23.0761 59.5584 22.936 59.7307 22.936H61.6716C61.845 22.936 61.9854 23.0761 61.9854 23.2488L59.7307 25.5032Z" fill="#3D2664"></path> <path fill-rule="evenodd" clip-rule="evenodd" d="M55.5672 21.98C55.5672 22.1531 55.4265 22.2935 55.2534 22.2935H53.3125C53.1401 22.2935 53 22.1531 53 21.98V20.0388C53 19.8667 53.1401 19.7261 53.3125 19.7261H55.2534C55.4265 19.7261 55.5672 19.8667 55.5672 20.0388V21.98Z" fill="#3D2664"></path> <path fill-rule="evenodd" clip-rule="evenodd" d="M61.9851 21.98C61.9851 22.1531 61.8448 22.2935 61.6716 22.2935H59.7307C59.5584 22.2935 59.4177 22.1531 59.4177 21.98V20.0388C59.4177 19.8667 59.5584 19.7261 59.7307 19.7261H61.6716C61.8448 19.7261 61.9851 19.8667 61.9851 20.0388V21.98Z" fill="#3D2664"></path> <path fill-rule="evenodd" clip-rule="evenodd" d="M55.5672 18.771C55.5672 18.9436 55.4265 19.0848 55.2534 19.0848H53.3125C53.1401 19.0848 53 18.9436 53 18.771L55.2534 16.5166C55.4265 16.5166 55.5672 16.6572 55.5672 16.8299V18.771Z" fill="#3D2664"></path> <path fill-rule="evenodd" clip-rule="evenodd" d="M58.7759 18.771C58.7759 18.9436 58.636 19.0848 58.4626 19.0848H56.522C56.3494 19.0848 56.209 18.9436 56.209 18.771V16.8299C56.209 16.6572 56.3494 16.5166 56.522 16.5166H58.4626C58.636 16.5166 58.7759 16.6572 58.7759 16.8299V18.771Z" fill="#3D2664"></path> <path fill-rule="evenodd" clip-rule="evenodd" d="M61.9851 18.771C61.9851 18.9436 61.8448 19.0848 61.6716 19.0848H59.7307C59.5584 19.0848 59.4177 18.9436 59.4177 18.771V16.8299C59.4177 16.6572 59.5584 16.5166 59.7307 16.5166L61.9851 18.771Z" fill="#3D2664"></path> <path fill-rule="evenodd" clip-rule="evenodd" d="M68.0223 28.3984C68.0223 28.5716 67.8814 28.7122 67.7082 28.7122L65.4546 26.4573C65.4546 26.2846 65.595 26.1445 65.7678 26.1445H67.7082C67.8814 26.1445 68.0223 26.2846 68.0223 26.4573V28.3984Z" fill="#3D2664"></path> <path fill-rule="evenodd" clip-rule="evenodd" d="M71.231 28.3984C71.231 28.5716 71.0908 28.7122 70.9177 28.7122H68.9763C68.8039 28.7122 68.6641 28.5716 68.6641 28.3984V26.4573C68.6641 26.2846 68.8039 26.1445 68.9763 26.1445H70.9177C71.0908 26.1445 71.231 26.2846 71.231 26.4573V28.3984Z" fill="#3D2664"></path> <path fill-rule="evenodd" clip-rule="evenodd" d="M72.1858 28.7119C72.0134 28.7119 71.8726 28.5716 71.8726 28.3984V26.4575C71.8726 26.2846 72.0134 26.1445 72.1858 26.1445H74.1265C74.2996 26.1445 74.4402 26.2846 74.4402 26.4575L72.1858 28.7119Z" fill="#3D2664"></path> <path fill-rule="evenodd" clip-rule="evenodd" d="M68.0223 25.1889C68.0223 25.3621 67.8814 25.503 67.7082 25.503H65.7678C65.595 25.503 65.4546 25.3621 65.4546 25.1889V23.2483C65.4546 23.0759 65.595 22.9355 65.7678 22.9355H67.7082C67.8814 22.9355 68.0223 23.0759 68.0223 23.2483V25.1889Z" fill="#3D2664"></path> <path fill-rule="evenodd" clip-rule="evenodd" d="M74.4402 25.1889C74.4402 25.3621 74.2996 25.503 74.1265 25.503H72.1858C72.0134 25.503 71.8726 25.3621 71.8726 25.1889V23.2483C71.8726 23.0759 72.0134 22.9355 72.1858 22.9355H74.1265C74.2996 22.9355 74.4402 23.0759 74.4402 23.2483V25.1889Z" fill="#3D2664"></path> <path fill-rule="evenodd" clip-rule="evenodd" d="M68.0223 21.98C68.0223 22.1531 67.8814 22.2935 67.7082 22.2935H65.7678C65.595 22.2935 65.4546 22.1531 65.4546 21.98V20.0388C65.4546 19.8667 65.595 19.7261 65.7678 19.7261H67.7082C67.8814 19.7261 68.0223 19.8667 68.0223 20.0388V21.98Z" fill="#3D2664"></path> <path fill-rule="evenodd" clip-rule="evenodd" d="M74.4402 21.98C74.4402 22.1531 74.2996 22.2935 74.1265 22.2935H72.1858C72.0134 22.2935 71.8726 22.1531 71.8726 21.98V20.0388C71.8726 19.8667 72.0134 19.7261 72.1858 19.7261H74.1265C74.2996 19.7261 74.4402 19.8667 74.4402 20.0388V21.98Z" fill="#3D2664"></path> <path fill-rule="evenodd" clip-rule="evenodd" d="M68.0223 18.771C68.0223 18.9436 67.8814 19.0848 67.7082 19.0848H65.7678C65.595 19.0848 65.4546 18.9436 65.4546 18.771V16.8299C65.4546 16.6572 65.595 16.5166 65.7678 16.5166L68.0223 18.771Z" fill="#3D2664"></path> <path fill-rule="evenodd" clip-rule="evenodd" d="M74.4402 18.771C74.4402 18.9436 74.2996 19.0848 74.1265 19.0848H72.1858C72.0134 19.0848 71.8726 18.9436 71.8726 18.771L74.1265 16.5166C74.2996 16.5166 74.4402 16.6572 74.4402 16.8299V18.771Z" fill="#3D2664"></path> <path fill-rule="evenodd" clip-rule="evenodd" d="M81.324 28.3984C81.324 28.5716 81.1839 28.7122 81.0107 28.7122L78.7571 26.4573C78.7571 26.2846 78.8969 26.1445 79.0696 26.1445H81.0107C81.1839 26.1445 81.324 26.2846 81.324 26.4573V28.3984Z" fill="#3D2664"></path> <path fill-rule="evenodd" clip-rule="evenodd" d="M84.5335 28.3984C84.5335 28.5716 84.3926 28.7122 84.2195 28.7122H82.2788C82.1065 28.7122 81.9656 28.5716 81.9656 28.3984V26.4573C81.9656 26.2846 82.1065 26.1445 82.2788 26.1445H84.2195C84.3926 26.1445 84.5335 26.2846 84.5335 26.4573V28.3984Z" fill="#3D2664"></path> <path fill-rule="evenodd" clip-rule="evenodd" d="M87.7422 28.3984C87.7422 28.5716 87.6023 28.7122 87.4289 28.7122H85.4883C85.3154 28.7122 85.1753 28.5716 85.1753 28.3984V26.4573C85.1753 26.2846 85.3154 26.1445 85.4883 26.1445L87.7422 28.3984Z" fill="#3D2664"></path> <path fill-rule="evenodd" clip-rule="evenodd" d="M81.324 25.1889C81.324 25.3621 81.1839 25.503 81.0107 25.503H79.0696C78.8969 25.503 78.7571 25.3621 78.7571 25.1889L81.0107 22.9355C81.1839 22.9355 81.324 23.0759 81.324 23.2483V25.1889Z" fill="#3D2664"></path> <path fill-rule="evenodd" clip-rule="evenodd" d="M82.2788 25.5032C82.1065 25.5032 81.9656 25.362 81.9656 25.1892V23.2488C81.9656 23.0761 82.1065 22.936 82.2788 22.936H84.2195C84.3926 22.936 84.5335 23.0761 84.5335 23.2488L82.2788 25.5032Z" fill="#3D2664"></path> <path fill-rule="evenodd" clip-rule="evenodd" d="M84.5335 21.98C84.5335 22.1531 84.3926 22.2935 84.2195 22.2935H82.2788C82.1065 22.2935 81.9656 22.1531 81.9656 21.98L84.2195 19.7261C84.3926 19.7261 84.5335 19.8667 84.5335 20.0388V21.98Z" fill="#3D2664"></path> <path fill-rule="evenodd" clip-rule="evenodd" d="M85.4883 22.2937C85.3154 22.2937 85.1753 22.1533 85.1753 21.9802V20.0388C85.1753 19.8669 85.3154 19.7266 85.4883 19.7266H87.4289C87.6021 19.7266 87.7422 19.8669 87.7422 20.0388L85.4883 22.2937Z" fill="#3D2664"></path> <path fill-rule="evenodd" clip-rule="evenodd" d="M81.324 18.771C81.324 18.9436 81.1839 19.0848 81.0107 19.0848L78.7571 16.8299C78.7571 16.6572 78.8969 16.5166 79.0696 16.5166H81.0107C81.1839 16.5166 81.324 16.6572 81.324 16.8299V18.771Z" fill="#3D2664"></path> <path fill-rule="evenodd" clip-rule="evenodd" d="M84.5335 18.771C84.5335 18.9436 84.3926 19.0848 84.2195 19.0848H82.2788C82.1065 19.0848 81.9656 18.9436 81.9656 18.771V16.8299C81.9656 16.6572 82.1065 16.5166 82.2788 16.5166H84.2195C84.3926 16.5166 84.5335 16.6572 84.5335 16.8299V18.771Z" fill="#3D2664"></path> <path fill-rule="evenodd" clip-rule="evenodd" d="M87.7422 18.771C87.7422 18.9436 87.6023 19.0848 87.4289 19.0848H85.4883C85.3154 19.0848 85.1753 18.9436 85.1753 18.771V16.8299C85.1753 16.6572 85.3154 16.5166 85.4883 16.5166L87.7422 18.771Z" fill="#3D2664"></path> <path fill-rule="evenodd" clip-rule="evenodd" d="M92.9697 28.3984C92.9697 28.5716 92.8294 28.7122 92.6562 28.7122L90.4026 26.4573C90.4026 26.2846 90.5432 26.1445 90.7153 26.1445H92.6562C92.8294 26.1445 92.9697 26.2846 92.9697 26.4573V28.3984Z" fill="#3D2664"></path> <path fill-rule="evenodd" clip-rule="evenodd" d="M96.1792 28.3984C96.1792 28.5716 96.0386 28.7122 95.8654 28.7122H93.9245C93.7522 28.7122 93.6121 28.5716 93.6121 28.3984V26.4573C93.6121 26.2846 93.7522 26.1445 93.9245 26.1445H95.8654C96.0386 26.1445 96.1792 26.2846 96.1792 26.4573V28.3984Z" fill="#3D2664"></path> <path fill-rule="evenodd" clip-rule="evenodd" d="M99.3882 28.3984C99.3882 28.5716 99.2473 28.7122 99.0742 28.7122H97.1335C96.9609 28.7122 96.8206 28.5716 96.8206 28.3984V26.4573C96.8206 26.2846 96.9609 26.1445 97.1335 26.1445L99.3882 28.3984Z" fill="#3D2664"></path> <path fill-rule="evenodd" clip-rule="evenodd" d="M92.9697 25.1889C92.9697 25.3621 92.8294 25.503 92.6562 25.503H90.7153C90.5432 25.503 90.4026 25.3621 90.4026 25.1889L92.6562 22.9355C92.8294 22.9355 92.9697 23.0759 92.9697 23.2483V25.1889Z" fill="#3D2664"></path> <path fill-rule="evenodd" clip-rule="evenodd" d="M93.9243 25.5032C93.7519 25.5032 93.6116 25.362 93.6116 25.1892V23.2488C93.6116 23.0761 93.7519 22.936 93.9243 22.936H95.8652C96.0384 22.936 96.179 23.0761 96.179 23.2488L93.9243 25.5032Z" fill="#3D2664"></path> <path fill-rule="evenodd" clip-rule="evenodd" d="M96.1792 21.98C96.1792 22.1531 96.0386 22.2935 95.8654 22.2935H93.9245C93.7522 22.2935 93.6121 22.1531 93.6121 21.98L95.8654 19.7261C96.0386 19.7261 96.1792 19.8667 96.1792 20.0388V21.98Z" fill="#3D2664"></path> <path fill-rule="evenodd" clip-rule="evenodd" d="M97.1335 22.2937C96.9609 22.2937 96.8206 22.1533 96.8206 21.9802V20.0388C96.8206 19.8669 96.9609 19.7266 97.1335 19.7266H99.0742C99.2473 19.7266 99.388 19.8669 99.388 20.0388L97.1335 22.2937Z" fill="#3D2664"></path> <path fill-rule="evenodd" clip-rule="evenodd" d="M92.9697 18.771C92.9697 18.9436 92.8294 19.0848 92.6562 19.0848L90.4026 16.8299C90.4026 16.6572 90.5432 16.5166 90.7153 16.5166H92.6562C92.8294 16.5166 92.9697 16.6572 92.9697 16.8299V18.771Z" fill="#3D2664"></path> <path fill-rule="evenodd" clip-rule="evenodd" d="M96.1792 18.771C96.1792 18.9436 96.0386 19.0848 95.8654 19.0848H93.9245C93.7522 19.0848 93.6121 18.9436 93.6121 18.771V16.8299C93.6121 16.6572 93.7522 16.5166 93.9245 16.5166H95.8654C96.0386 16.5166 96.1792 16.6572 96.1792 16.8299V18.771Z" fill="#3D2664"></path> <path fill-rule="evenodd" clip-rule="evenodd" d="M99.3882 18.771C99.3882 18.9436 99.2473 19.0848 99.0742 19.0848H97.1335C96.9609 19.0848 96.8206 18.9436 96.8206 18.771V16.8299C96.8206 16.6572 96.9609 16.5166 97.1335 16.5166L99.3882 18.771Z" fill="#3D2664"></path> <path fill-rule="evenodd" clip-rule="evenodd" d="M106.272 28.3984C106.272 28.5716 106.132 28.7122 105.959 28.7122H104.017C103.846 28.7122 103.705 28.5716 103.705 28.3984V26.4573C103.705 26.2846 103.846 26.1445 104.017 26.1445H105.959C106.132 26.1445 106.272 26.2846 106.272 26.4573V28.3984Z" fill="#3D2664"></path> <path fill-rule="evenodd" clip-rule="evenodd" d="M109.481 28.3984C109.481 28.5716 109.341 28.7122 109.168 28.7122H107.227C107.055 28.7122 106.914 28.5716 106.914 28.3984V26.4573C106.914 26.2846 107.055 26.1445 107.227 26.1445H109.168C109.341 26.1445 109.481 26.2846 109.481 26.4573V28.3984Z" fill="#3D2664"></path> <path fill-rule="evenodd" clip-rule="evenodd" d="M112.69 28.3984C112.69 28.5716 112.55 28.7122 112.377 28.7122H110.437C110.264 28.7122 110.124 28.5716 110.124 28.3984V26.4573C110.124 26.2846 110.264 26.1445 110.437 26.1445L112.69 28.3984Z" fill="#3D2664"></path> <path fill-rule="evenodd" clip-rule="evenodd" d="M106.272 25.1889C106.272 25.3621 106.132 25.503 105.959 25.503H104.017C103.846 25.503 103.705 25.3621 103.705 25.1889V23.2483C103.705 23.0759 103.846 22.9355 104.017 22.9355H105.959C106.132 22.9355 106.272 23.0759 106.272 23.2483V25.1889Z" fill="#3D2664"></path> <path fill-rule="evenodd" clip-rule="evenodd" d="M106.272 21.98C106.272 22.1531 106.132 22.2935 105.959 22.2935H104.017C103.846 22.2935 103.705 22.1531 103.705 21.98V20.0388C103.705 19.8667 103.846 19.7261 104.017 19.7261H105.959C106.132 19.7261 106.272 19.8667 106.272 20.0388V21.98Z" fill="#3D2664"></path> <path fill-rule="evenodd" clip-rule="evenodd" d="M106.272 18.771C106.272 18.9436 106.132 19.0848 105.959 19.0848H104.017C103.846 19.0848 103.705 18.9436 103.705 18.771L105.959 16.5166C106.132 16.5166 106.272 16.6572 106.272 16.8299V18.771Z" fill="#3D2664"></path> <path fill-rule="evenodd" clip-rule="evenodd" d="M121.034 23.5845C121.034 23.7579 120.894 23.8985 120.72 23.8985H118.78C118.607 23.8985 118.467 23.7579 118.467 23.5845V21.6436C118.467 21.4712 118.607 21.3306 118.78 21.3306H120.72C120.894 21.3306 121.034 21.4712 121.034 21.6436V23.5845Z" fill="#3D2664"></path> <path fill-rule="evenodd" clip-rule="evenodd" d="M117.825 28.3984C117.825 28.5716 117.685 28.7122 117.512 28.7122L115.258 26.4573C115.258 26.2846 115.398 26.1445 115.57 26.1445H117.512C117.685 26.1445 117.825 26.2846 117.825 26.4573V28.3984Z" fill="#3D2664"></path> <path fill-rule="evenodd" clip-rule="evenodd" d="M121.034 28.3984C121.034 28.5716 120.894 28.7122 120.72 28.7122H118.78C118.607 28.7122 118.467 28.5716 118.467 28.3984V26.4573C118.467 26.2846 118.607 26.1445 118.78 26.1445H120.72C120.894 26.1445 121.034 26.2846 121.034 26.4573V28.3984Z" fill="#3D2664"></path> <path fill-rule="evenodd" clip-rule="evenodd" d="M121.989 28.7119C121.816 28.7119 121.676 28.5716 121.676 28.3984V26.4575C121.676 26.2846 121.816 26.1445 121.989 26.1445H123.93C124.103 26.1445 124.243 26.2846 124.243 26.4575L121.989 28.7119Z" fill="#3D2664"></path> <path fill-rule="evenodd" clip-rule="evenodd" d="M117.825 25.1889C117.825 25.3621 117.685 25.503 117.512 25.503H115.57C115.398 25.503 115.258 25.3621 115.258 25.1889V23.2483C115.258 23.0759 115.398 22.9355 115.57 22.9355H117.512C117.685 22.9355 117.825 23.0759 117.825 23.2483V25.1889Z" fill="#3D2664"></path> <path fill-rule="evenodd" clip-rule="evenodd" d="M117.825 21.98C117.825 22.1531 117.685 22.2935 117.512 22.2935H115.57C115.398 22.2935 115.258 22.1531 115.258 21.98V20.0388C115.258 19.8667 115.398 19.7261 115.57 19.7261H117.512C117.685 19.7261 117.825 19.8667 117.825 20.0388V21.98Z" fill="#3D2664"></path> <path fill-rule="evenodd" clip-rule="evenodd" d="M117.825 18.771C117.825 18.9436 117.685 19.0848 117.512 19.0848H115.57C115.398 19.0848 115.258 18.9436 115.258 18.771L117.512 16.5166C117.685 16.5166 117.825 16.6572 117.825 16.8299V18.771Z" fill="#3D2664"></path> <path fill-rule="evenodd" clip-rule="evenodd" d="M121.034 18.771C121.034 18.9436 120.894 19.0848 120.72 19.0848H118.78C118.607 19.0848 118.467 18.9436 118.467 18.771V16.8299C118.467 16.6572 118.607 16.5166 118.78 16.5166H120.72C120.894 16.5166 121.034 16.6572 121.034 16.8299V18.771Z" fill="#3D2664"></path> <path fill-rule="evenodd" clip-rule="evenodd" d="M124.243 18.771C124.243 18.9436 124.103 19.0848 123.929 19.0848H121.989C121.816 19.0848 121.676 18.9436 121.676 18.771V16.8299C121.676 16.6572 121.816 16.5166 121.989 16.5166L124.243 18.771Z" fill="#3D2664"></path> <path d="M73.1508 44.7119H69.7605L68.7441 40.0874C68.6957 39.8938 68.6183 39.5091 68.5118 38.9331C68.4102 38.3572 68.3352 37.8756 68.2868 37.4884C68.2481 37.803 68.1851 38.195 68.098 38.6645C68.0109 39.1291 67.9238 39.5575 67.8367 39.9495C67.7544 40.3415 67.4035 41.929 66.784 44.7119H63.3937L60.7656 34.0981H63.5316L64.6859 39.4195C64.9473 40.5956 65.1263 41.5321 65.2231 42.2291C65.2861 41.7354 65.3974 41.0651 65.5571 40.2181C65.7216 39.3711 65.8741 38.6693 66.0145 38.1127L66.951 34.0981H69.6081L70.5155 38.1127C70.6704 38.7565 70.8277 39.4994 70.9874 40.3415C71.1471 41.1836 71.2536 41.8128 71.3069 42.2291C71.3698 41.6918 71.5416 40.7602 71.8223 39.434L72.9984 34.0981H75.7644L73.1508 44.7119ZM87.0679 39.3905C87.0679 41.1764 86.6299 42.534 85.7539 43.4632C84.8779 44.3925 83.5953 44.8571 81.9062 44.8571C80.2413 44.8571 78.9635 44.3901 78.073 43.456C77.1873 42.5219 76.7445 41.1619 76.7445 39.376C76.7445 37.6094 77.1849 36.2615 78.0657 35.3322C78.9514 34.3981 80.2364 33.9311 81.9207 33.9311C83.6098 33.9311 84.89 34.3933 85.7611 35.3177C86.6323 36.2421 87.0679 37.5997 87.0679 39.3905ZM79.7645 39.3905C79.7645 41.4426 80.4784 42.4686 81.9062 42.4686C82.6322 42.4686 83.1694 42.2194 83.5179 41.7209C83.8712 41.2224 84.0478 40.4456 84.0478 39.3905C84.0478 38.3305 83.8687 37.5489 83.5106 37.0456C83.1573 36.5374 82.6273 36.2833 81.9207 36.2833C80.4833 36.2833 79.7645 37.319 79.7645 39.3905ZM91.8521 40.8497V44.7119H88.9845V34.0981H92.4619C95.3465 34.0981 96.7888 35.1435 96.7888 37.2343C96.7888 38.4636 96.1886 39.4147 94.9883 40.0874L98.081 44.7119H94.8286L92.5781 40.8497H91.8521ZM91.8521 38.6935H92.3893C93.3912 38.6935 93.8921 38.2507 93.8921 37.365C93.8921 36.6342 93.4009 36.2688 92.4184 36.2688H91.8521V38.6935ZM108.114 44.7119H104.876L102.778 40.6537L101.929 41.1619V44.7119H99.0466V34.0981H101.929V38.7081C102.074 38.4225 102.367 37.97 102.807 37.3505L105.036 34.0981H108.172L104.825 38.8532L108.114 44.7119ZM116.209 41.4886C116.209 42.1468 116.042 42.7324 115.708 43.2454C115.374 43.7536 114.892 44.1505 114.263 44.436C113.634 44.7168 112.896 44.8571 112.049 44.8571C111.342 44.8571 110.749 44.8087 110.27 44.7119C109.791 44.6103 109.293 44.436 108.775 44.1892V41.6338C109.322 41.9145 109.89 42.1347 110.481 42.2944C111.071 42.4493 111.613 42.5267 112.107 42.5267C112.533 42.5267 112.845 42.4541 113.043 42.3089C113.242 42.1589 113.341 41.9677 113.341 41.7354C113.341 41.5902 113.3 41.4644 113.218 41.3579C113.14 41.2466 113.012 41.1352 112.833 41.0239C112.659 40.9126 112.189 40.6851 111.425 40.3415C110.732 40.0269 110.212 39.722 109.864 39.4268C109.52 39.1315 109.264 38.7928 109.094 38.4104C108.93 38.0281 108.847 37.5755 108.847 37.0528C108.847 36.0752 109.203 35.3129 109.915 34.766C110.626 34.2191 111.604 33.9456 112.847 33.9456C113.946 33.9456 115.067 34.1997 116.209 34.7079L115.33 36.9221C114.338 36.4672 113.482 36.2397 112.76 36.2397C112.388 36.2397 112.117 36.3051 111.947 36.4357C111.778 36.5664 111.693 36.7285 111.693 36.9221C111.693 37.1303 111.8 37.3166 112.013 37.4811C112.23 37.6457 112.816 37.9458 113.769 38.3814C114.684 38.7928 115.318 39.2356 115.672 39.7099C116.03 40.1794 116.209 40.7723 116.209 41.4886Z" fill="#8C30F5"></path> </svg> 