<?xml version="1.0" encoding="UTF-8"?> <svg xmlns="http://www.w3.org/2000/svg" width="409" height="855" viewBox="0 0 409 855" fill="none"> <path fill-rule="evenodd" clip-rule="evenodd" d="M404.129 334.171H405.086C406.143 334.171 407 335.028 407 336.086V433.714C407 434.772 406.143 435.629 405.086 435.629H404.129V334.171Z" fill="#121515"></path> <path fill-rule="evenodd" clip-rule="evenodd" d="M404.129 220.271H405.086C406.143 220.271 407 221.129 407 222.186V270.043C407 271.1 406.143 271.957 405.086 271.957H404.129V220.271Z" fill="#121515"></path> <g filter="url(#filter0_dd)"> <path fill-rule="evenodd" clip-rule="evenodd" d="M48.0714 3C24.2837 3 5 22.8419 5 47.3182V803.682C5 828.158 24.2837 848 48.0714 848H361.057C384.845 848 404.129 828.158 404.129 803.682V47.3182C404.129 22.8419 384.845 3 361.057 3H48.0714ZM54.9308 56.1816C39.5129 56.1816 27.0142 68.6804 27.0142 84.0983V766.901C27.0142 782.319 39.5129 794.818 54.9308 794.818H358.026C373.444 794.818 385.943 782.319 385.943 766.901V84.0983C385.943 68.6804 373.444 56.1816 358.026 56.1816H54.9308Z" fill="#3A4245"></path> </g> <path fill-rule="evenodd" clip-rule="evenodd" d="M48.0714 7.92407C26.9267 7.92407 9.78564 25.5613 9.78564 47.318V803.682C9.78564 825.438 26.9267 843.076 48.0714 843.076H361.057C382.202 843.076 399.343 825.438 399.343 803.682V47.318C399.343 25.5613 382.202 7.92407 361.057 7.92407H48.0714ZM54.9306 56.1815C39.5126 56.1815 27.0139 68.6803 27.0139 84.0982V766.901C27.0139 782.319 39.5126 794.818 54.9306 794.818H358.026C373.444 794.818 385.942 782.319 385.942 766.901V84.0982C385.942 68.6803 373.444 56.1815 358.026 56.1815H54.9306Z" fill="#121515"></path> <path fill-rule="evenodd" clip-rule="evenodd" d="M129.428 32.5354C129.428 30.1566 131.357 28.2283 133.735 28.2283H275.393C277.771 28.2283 279.7 30.1566 279.7 32.5354V32.5354C279.7 34.9142 277.771 36.8426 275.393 36.8426H133.735C131.357 36.8426 129.428 34.9142 129.428 32.5354V32.5354Z" fill="#262C2D"></path> <path fill-rule="evenodd" clip-rule="evenodd" d="M129.428 810.693C129.428 808.314 131.357 806.386 133.735 806.386H275.393C277.771 806.386 279.7 808.314 279.7 810.693V810.693C279.7 813.072 277.771 815 275.393 815H133.735C131.357 815 129.428 813.072 129.428 810.693V810.693Z" fill="#262C2D"></path> <defs> <filter id="filter0_dd" x="0.533334" y="0.766667" width="408.062" height="853.933" filterUnits="userSpaceOnUse" color-interpolation-filters="sRGB"> <feFlood flood-opacity="0" result="BackgroundImageFix"></feFlood> <feColorMatrix in="SourceAlpha" type="matrix" values="0 0 0 0 0 0 0 0 0 0 0 0 0 0 0 0 0 0 127 0"></feColorMatrix> <feOffset></feOffset> <feGaussianBlur stdDeviation="1.11667"></feGaussianBlur> <feColorMatrix type="matrix" values="0 0 0 0 0 0 0 0 0 0.0823529 0 0 0 0 0.25098 0 0 0 0.14 0"></feColorMatrix> <feBlend mode="normal" in2="BackgroundImageFix" result="effect1_dropShadow"></feBlend> <feColorMatrix in="SourceAlpha" type="matrix" values="0 0 0 0 0 0 0 0 0 0 0 0 0 0 0 0 0 0 127 0"></feColorMatrix> <feOffset dy="2.23333"></feOffset> <feGaussianBlur stdDeviation="2.23333"></feGaussianBlur> <feColorMatrix type="matrix" values="0 0 0 0 0 0 0 0 0 0.0823529 0 0 0 0 0.25098 0 0 0 0.05 0"></feColorMatrix> <feBlend mode="normal" in2="effect1_dropShadow" result="effect2_dropShadow"></feBlend> <feBlend mode="normal" in="SourceGraphic" in2="effect2_dropShadow" result="shape"></feBlend> </filter> </defs> </svg> 